<?xml version="1.0" standalone="no"?>
<!DOCTYPE svg PUBLIC "-//W3C//DTD SVG 20010904//EN"
 "http://www.w3.org/TR/2001/REC-SVG-20010904/DTD/svg10.dtd">
<svg version="1.0" xmlns="http://www.w3.org/2000/svg"
 width="700.000000pt" height="700.000000pt" viewBox="0 0 700.000000 700.000000"
 preserveAspectRatio="xMidYMid meet">
<metadata>
Created by potrace 1.11, written by Peter Selinger 2001-2013
</metadata>
<g transform="translate(0.000000,700.000000) scale(0.100000,-0.100000)"
fill="#000000" stroke="none">
<path d="M3990 6750 c0 -23 35 -28 43 -6 7 18 -1 26 -25 26 -11 0 -18 -7 -18
-20z"/>
<path d="M2774 6751 c-8 -9 -4 -22 6 -16 6 3 11 1 11 -4 1 -6 2 -17 3 -23 1
-7 -4 -49 -11 -93 -23 -142 -27 -205 -13 -205 15 0 73 61 64 69 -3 3 -12 -3
-20 -13 -7 -11 -16 -17 -19 -14 -3 2 2 49 10 104 8 54 18 123 21 151 6 53 6
53 -20 51 -15 -1 -29 -4 -32 -7z"/>
<path d="M2633 6718 c-12 -6 -23 -18 -26 -27 -20 -66 -140 -329 -157 -343 -33
-27 -24 -40 16 -23 20 8 45 15 55 15 11 0 19 7 19 16 0 8 -4 12 -10 9 -25 -16
-27 10 -6 67 24 64 43 84 86 90 23 3 24 1 26 -55 1 -48 -3 -61 -19 -72 -34
-24 -11 -29 40 -10 57 21 75 35 46 35 -26 0 -29 14 -32 165 -1 66 -6 125 -9
131 -5 8 -14 8 -29 2z m0 -104 c-1 -36 -3 -67 -5 -70 -3 -2 -19 -7 -37 -10
l-32 -7 20 49 c28 73 44 104 50 104 3 0 5 -30 4 -66z"/>
<path d="M3284 6665 c-56 -58 -85 -134 -62 -162 18 -22 37 -15 77 26 l38 39
-5 -40 c-3 -32 -1 -39 9 -33 24 13 59 48 59 57 0 5 -7 2 -16 -7 -9 -9 -19 -14
-21 -11 -4 4 33 139 43 157 2 4 -17 7 -42 7 -40 1 -51 -3 -80 -33z m72 -28
c-8 -34 -68 -111 -89 -115 -36 -7 -4 101 43 148 20 20 24 21 37 7 10 -10 13
-24 9 -40z"/>
<path d="M3456 6675 c-23 -34 -20 -52 4 -24 14 17 20 20 20 9 1 -8 3 -24 5
-35 5 -23 9 -121 6 -151 -2 -37 -49 -77 -87 -76 -23 1 -34 -3 -34 -12 0 -20
28 -28 53 -15 57 31 153 169 181 262 14 47 11 67 -10 67 -10 0 -14 -13 -14
-43 0 -35 -40 -147 -53 -147 -1 0 -4 26 -5 58 -2 31 -5 66 -7 77 -2 11 -4 28
-4 38 -1 25 -36 21 -55 -8z"/>
<path d="M3699 6686 c-30 -15 -39 -53 -22 -95 7 -18 13 -42 13 -53 0 -25 -28
-35 -43 -14 -8 11 -17 13 -27 6 -19 -12 -5 -27 32 -34 33 -6 68 22 68 55 0 13
-7 42 -14 64 -13 35 -13 42 1 55 12 11 17 12 20 3 6 -17 33 -16 33 1 0 19 -34
26 -61 12z"/>
<path d="M3137 6684 c-3 -4 2 -23 12 -43 30 -60 6 -131 -44 -131 -21 0 -50 22
-41 31 2 2 7 33 10 67 5 50 4 63 -6 60 -8 -3 -15 -30 -19 -71 -4 -44 -12 -73
-24 -87 -20 -22 -50 -26 -60 -9 -13 21 -7 76 14 118 l20 43 -47 -6 c-69 -10
-114 -65 -78 -95 18 -15 33 4 17 22 -15 19 0 33 41 41 l37 7 -19 -43 c-28 -61
-26 -112 3 -125 27 -12 70 6 81 33 6 15 9 14 32 -7 23 -22 27 -22 52 -9 40 23
64 72 64 131 -1 59 -23 95 -45 73z"/>
<path d="M3955 6654 c-37 -19 -64 -44 -48 -44 7 0 15 5 18 10 3 6 13 10 21 10
11 0 6 -16 -21 -63 -44 -80 -46 -102 -7 -92 29 7 66 35 57 43 -3 3 -14 -3 -25
-13 -32 -29 -26 3 16 80 40 73 36 94 -11 69z"/>
<path d="M4529 6641 l24 -19 -39 -48 c-21 -27 -41 -51 -44 -54 -3 -3 -27 -31
-54 -63 -31 -36 -54 -56 -64 -52 -7 3 -19 2 -24 -2 -6 -3 10 -15 37 -25 26
-10 50 -16 54 -12 3 4 0 9 -6 11 -7 3 -13 10 -13 16 0 9 142 193 167 217 7 6
2 -18 -36 -160 -17 -63 -31 -116 -31 -117 -1 -14 42 11 162 92 77 53 142 95
144 93 1 -2 -14 -26 -35 -53 -20 -28 -57 -76 -80 -108 -36 -49 -47 -58 -67
-54 -48 9 -32 -11 25 -32 71 -26 79 -26 57 -2 -16 17 -13 24 67 132 57 78 88
113 100 111 35 -6 15 18 -23 28 -40 11 -40 11 -163 -74 -67 -47 -123 -82 -125
-77 -2 5 9 53 23 107 15 55 28 106 29 114 3 16 -56 49 -89 49 -18 1 -18 -1 4
-18z"/>
<path d="M4073 6626 c-13 -6 -23 -14 -23 -18 0 -12 14 -10 28 4 6 6 14 9 18 5
3 -3 -14 -40 -39 -81 -32 -53 -42 -76 -33 -79 8 -3 26 13 43 37 27 38 114 106
135 106 14 0 -1 -38 -38 -96 -39 -61 -42 -74 -14 -74 25 0 70 21 70 32 0 5 -9
4 -21 -2 -35 -19 -34 -3 3 53 47 71 54 94 30 101 -24 8 -48 0 -89 -31 -37 -27
-41 -24 -17 12 26 40 -2 57 -53 31z"/>
<path d="M2234 6365 c0 -162 3 -235 11 -235 14 0 14 462 0 467 -7 2 -11 -75
-11 -232z"/>
<path d="M4874 6352 c-31 -11 -70 -45 -87 -78 -21 -40 -4 -78 37 -82 92 -11
198 129 120 158 -28 11 -39 11 -70 2z m80 -37 c13 -34 -109 -114 -146 -94 -11
6 -15 15 -11 27 22 56 141 108 157 67z"/>
<path d="M1938 6328 c-42 -24 -60 -62 -45 -96 12 -27 35 -34 101 -30 38 2 51
-1 60 -15 9 -15 7 -22 -12 -37 -21 -17 -26 -18 -62 -5 -33 12 -40 12 -40 1 0
-17 39 -65 40 -49 0 6 13 14 29 18 16 3 39 17 51 30 18 19 21 31 16 60 -8 43
-36 57 -88 46 -65 -15 -103 20 -57 53 19 13 26 13 49 1 35 -18 43 -10 23 21
-18 28 -17 28 -65 2z"/>
<path d="M3235 6319 c-59 -9 -181 -27 -240 -36 -114 -18 -447 -113 -469 -134
-6 -5 -16 -9 -23 -9 -25 0 -261 -111 -371 -174 -563 -324 -986 -805 -1227
-1395 -38 -93 -107 -299 -120 -356 -37 -170 -55 -261 -60 -310 -4 -33 -9 -62
-10 -65 -2 -3 -6 -59 -11 -125 -14 -226 -5 -431 27 -640 160 -1029 887 -1895
1874 -2233 140 -48 293 -88 405 -107 19 -3 46 -7 60 -10 190 -36 644 -41 833
-10 12 2 51 9 87 15 36 7 76 14 90 16 414 74 913 317 1269 619 77 66 272 265
343 351 263 320 478 743 563 1112 37 157 59 292 72 429 14 145 7 496 -11 613
-2 14 -7 46 -10 71 -26 188 -100 451 -182 647 -323 772 -960 1356 -1759 1613
-129 42 -353 92 -469 104 -31 4 -67 9 -79 12 -37 9 -518 11 -582 2z m505 -503
c802 -81 1494 -561 1855 -1288 111 -223 201 -526 221 -738 3 -36 7 -76 10 -90
6 -32 6 -347 0 -380 -3 -14 -7 -54 -11 -89 -5 -52 -20 -141 -51 -289 -2 -13
-25 -84 -49 -158 -115 -347 -314 -667 -575 -923 -529 -518 -1249 -750 -1985
-637 -138 22 -139 22 -275 61 -374 108 -706 303 -980 575 -134 132 -166 169
-236 265 -261 356 -412 745 -451 1160 -10 99 -9 368 0 455 14 130 18 157 43
270 71 317 216 629 418 900 81 109 297 330 403 414 357 280 809 459 1243 492
47 4 86 8 88 9 5 4 268 -3 332 -9z"/>
<path d="M2705 4909 c-414 -53 -832 -497 -837 -888 -1 -82 13 -134 51 -192 63
-93 178 -141 335 -138 192 4 379 94 549 264 66 66 67 68 47 82 -19 14 -25 10
-92 -52 -88 -84 -185 -147 -269 -176 -88 -30 -215 -32 -279 -3 -158 72 -186
268 -75 509 16 33 29 62 29 65 1 3 21 37 45 77 85 143 213 271 336 336 75 40
103 48 185 54 64 5 82 2 122 -16 77 -37 118 -118 118 -237 0 -52 3 -62 19 -67
10 -2 24 -2 29 2 6 4 47 91 91 194 l79 187 -27 0 c-17 0 -43 -14 -69 -35 l-41
-36 -48 24 c-96 48 -181 61 -298 46z"/>
<path d="M4630 4900 c-47 -10 -118 -32 -159 -50 -68 -29 -190 -99 -217 -125
-6 -5 -33 -28 -60 -49 -139 -112 -256 -284 -320 -472 -36 -105 -40 -254 -8
-325 60 -130 180 -192 363 -188 143 3 290 56 418 150 64 47 193 168 193 180 0
5 -9 13 -20 19 -18 10 -30 3 -93 -58 -142 -137 -282 -202 -427 -197 -169 5
-260 103 -255 275 6 200 149 469 338 637 195 173 428 203 519 68 30 -44 39
-82 44 -169 2 -33 8 -62 15 -66 14 -9 49 -1 49 11 0 5 34 88 75 185 41 97 75
178 75 180 0 2 -12 4 -27 4 -18 0 -40 -13 -65 -37 l-38 -37 -39 23 c-99 55
-224 69 -361 41z"/>
<path d="M5170 3890 c0 -47 4 -80 10 -80 6 0 10 16 10 35 0 23 6 38 15 42 23
8 29 -3 27 -43 -2 -25 1 -35 10 -32 15 5 18 46 6 77 -6 18 -14 22 -33 19 -23
-5 -25 -2 -25 28 0 19 -4 34 -10 34 -6 0 -10 -33 -10 -80z"/>
<path d="M4860 3858 c0 -26 5 -48 10 -48 11 0 12 2 14 45 1 20 7 31 19 33 29
6 19 21 -13 20 -29 -1 -30 -3 -30 -50z"/>
<path d="M4936 3892 c-17 -20 -14 -61 6 -73 7 -4 28 -7 48 -7 38 0 37 -4 31
79 -1 23 -64 23 -85 1z m59 -32 c0 -16 -6 -26 -19 -28 -23 -5 -35 13 -28 40 7
30 47 20 47 -12z"/>
<path d="M5050 3833 c0 -47 4 -72 10 -68 6 3 10 17 10 29 0 20 4 22 27 18 18
-3 30 1 40 13 30 43 4 85 -52 83 l-35 -1 0 -74z m75 37 c8 -26 -1 -40 -26 -40
-22 0 -34 22 -25 45 8 22 44 18 51 -5z"/>
<path d="M1931 3403 c-169 -441 -109 -867 158 -1122 56 -53 170 -129 231 -155
25 -10 54 -22 65 -27 36 -15 129 -40 170 -45 22 -4 59 -9 83 -14 56 -10 289
-5 378 9 118 18 317 70 389 101 11 5 54 23 95 40 169 70 376 192 540 318 111
86 126 98 251 222 198 196 327 373 445 610 l42 85 -36 17 c-21 10 -42 17 -49
18 -6 0 -23 -26 -38 -57 -52 -114 -179 -317 -257 -409 -206 -245 -441 -448
-678 -584 -175 -100 -438 -207 -576 -234 -11 -2 -30 -7 -44 -10 -133 -30 -353
-40 -485 -21 -302 42 -531 216 -629 478 -14 37 -23 67 -21 67 3 0 1 10 -4 23
-20 51 -31 263 -17 332 2 11 7 40 11 65 9 60 49 203 74 267 l20 51 -40 16
c-21 9 -43 16 -48 16 -4 0 -18 -26 -30 -57z"/>
<path d="M5112 6290 c-22 -13 -42 -18 -60 -14 -25 5 -26 4 -9 -9 17 -14 16
-17 -25 -45 -73 -51 -103 -83 -87 -93 19 -12 71 -11 89 2 12 8 9 10 -13 6 -45
-7 -40 8 21 56 55 43 59 44 85 31 29 -16 38 -2 10 15 -17 10 -17 12 1 26 10 8
24 16 30 18 8 3 8 8 1 16 -8 7 -20 5 -43 -9z"/>
<path d="M5270 6265 c-12 -14 -11 -18 1 -26 20 -12 34 -6 34 16 0 24 -19 30
-35 10z"/>
<path d="M1760 6219 c-45 -26 -57 -53 -49 -108 7 -56 55 -101 106 -101 40 0
90 43 97 83 6 36 -6 34 -23 -4 -16 -36 -46 -50 -82 -37 -34 12 -53 34 -68 77
-9 28 -8 39 3 56 20 31 53 38 59 14 6 -21 32 -25 43 -7 7 10 -29 48 -45 48 -3
0 -22 -10 -41 -21z"/>
<path d="M1520 6185 c-16 -19 -5 -47 17 -43 22 4 29 43 9 51 -8 3 -20 -1 -26
-8z"/>
<path d="M5140 6179 c-12 -8 -7 -9 18 -6 17 2 32 1 32 -3 0 -3 -23 -24 -51
-45 -28 -22 -58 -46 -67 -53 -15 -11 -15 -14 -2 -22 21 -13 77 -12 86 1 5 9
-1 10 -20 5 -42 -10 -30 9 39 64 36 28 63 55 60 60 -8 13 -76 12 -95 -1z"/>
<path d="M1565 6084 c-25 -22 -27 -25 -9 -21 28 6 31 3 86 -69 33 -43 44 -64
37 -75 -19 -30 -7 -29 36 2 44 31 52 51 17 43 -12 -3 -33 17 -71 71 -30 41
-57 75 -60 75 -4 -1 -19 -12 -36 -26z"/>
<path d="M5315 6104 c-5 -1 -21 -5 -35 -8 -29 -6 -72 -42 -89 -73 -13 -26 -2
-57 27 -71 60 -31 183 51 168 112 -6 23 -47 46 -71 40z m48 -33 c4 -1 7 -10 7
-21 0 -23 -69 -66 -117 -73 -47 -7 -63 16 -33 48 24 25 94 54 120 49 8 -1 18
-3 23 -3z"/>
<path d="M1278 5997 c-34 -30 -35 -39 -5 -32 18 5 28 0 39 -17 9 -13 24 -32
34 -43 11 -11 43 -49 73 -83 47 -56 53 -66 43 -83 -19 -30 3 -22 45 16 35 32
36 35 15 35 -22 0 -70 45 -102 96 -14 22 -13 26 13 51 25 26 29 27 51 13 13
-8 40 -35 60 -58 29 -36 34 -47 26 -63 -15 -27 -4 -24 40 14 45 37 49 46 18
40 -18 -3 -33 8 -68 51 -57 70 -80 82 -113 56 -13 -11 -30 -33 -37 -50 l-13
-31 -31 38 c-17 20 -38 45 -46 55 -14 18 -16 17 -42 -5z"/>
<path d="M5423 5989 c9 -5 21 -8 26 -4 5 3 12 1 16 -4 3 -6 -28 -30 -70 -54
-51 -29 -72 -46 -65 -53 7 -7 26 -3 59 13 60 30 161 43 161 21 0 -8 -29 -32
-65 -53 -74 -43 -80 -49 -62 -62 18 -14 81 -17 72 -4 -3 6 -10 9 -15 6 -5 -3
-11 -1 -14 4 -3 5 23 26 59 47 72 42 84 69 38 81 -38 10 -43 10 -83 2 -36 -8
-33 -3 17 27 30 18 0 44 -51 44 -33 -1 -37 -3 -23 -11z"/>
<path d="M1232 5795 c-21 -18 -32 -36 -32 -53 0 -20 -3 -23 -12 -14 -9 9 -17
7 -35 -10 -28 -26 -30 -42 -4 -33 14 4 41 -16 110 -85 76 -75 91 -95 85 -113
-5 -17 5 -11 40 22 48 47 53 61 16 41 -19 -10 -26 -8 -49 14 l-26 26 22 15
c48 34 55 47 50 93 -4 33 -13 53 -38 78 -48 47 -87 53 -127 19z m96 -48 c49
-45 56 -82 25 -118 -20 -24 -51 -13 -100 34 -47 45 -51 61 -27 96 13 19 22 22
47 17 17 -4 42 -16 55 -29z"/>
<path d="M5702 5706 c-117 -46 -212 -87 -210 -92 4 -11 -11 -16 207 67 216 83
231 90 231 101 0 12 -1 12 -228 -76z"/>
<path d="M1058 5602 c-52 -31 -70 -94 -34 -116 27 -17 42 14 17 35 -18 15 -18
18 -5 38 17 24 42 27 69 7 18 -13 18 -15 -2 -68 -18 -46 -19 -59 -9 -79 25
-51 99 -23 102 39 1 21 5 26 22 24 12 -2 26 6 36 20 22 30 20 41 -3 26 -17
-10 -26 -7 -70 30 -66 55 -90 64 -123 44z m120 -98 c24 -43 -23 -94 -56 -60
-13 13 -14 21 -3 56 10 35 14 39 31 30 11 -6 23 -17 28 -26z"/>
<path d="M5950 5520 c-71 -21 -141 -37 -162 -35 -21 1 -38 0 -38 -3 0 -10 51
-72 60 -72 4 0 6 8 3 18 -5 22 12 38 53 46 27 6 35 2 62 -30 18 -21 32 -40 32
-44 0 -14 -47 -75 -56 -73 -5 1 -18 5 -29 9 -17 7 -16 3 8 -27 15 -19 48 -64
72 -101 43 -66 68 -87 59 -50 -3 12 12 27 54 55 32 20 63 37 69 37 19 0 55
-48 49 -67 -3 -10 -33 -35 -67 -56 -48 -30 -64 -36 -75 -26 -23 19 -17 -7 12
-51 30 -46 37 -49 32 -18 -2 17 11 31 62 65 35 24 68 50 73 59 15 26 -1 61
-39 85 -24 14 -32 24 -24 29 14 9 1 38 -26 61 -15 12 -16 12 -10 -8 6 -18 -3
-28 -62 -67 -37 -25 -73 -46 -80 -46 -19 0 -41 52 -32 76 5 11 40 72 79 134
71 112 82 141 59 139 -7 0 -69 -18 -138 -39z m83 -13 c-31 -48 -59 -87 -63
-87 -7 0 -42 53 -41 64 0 10 92 44 104 38 4 -2 4 -9 0 -15z"/>
<path d="M932 5461 c-8 -5 -14 -25 -14 -45 0 -29 -3 -35 -13 -26 -10 8 -18 4
-34 -19 -26 -37 -27 -45 -1 -31 22 12 38 3 121 -63 28 -21 35 -34 32 -50 -7
-25 0 -19 41 36 28 39 29 60 1 37 -15 -13 -45 3 -112 59 -31 26 -31 61 1 61
27 0 40 22 23 39 -13 13 -27 14 -45 2z"/>
<path d="M791 5256 c-90 -96 67 -250 160 -157 23 23 29 39 29 70 0 23 -4 41
-10 41 -5 0 -10 -12 -10 -27 -1 -44 -25 -68 -68 -67 -75 0 -137 80 -96 125 16
18 18 18 35 3 15 -14 21 -14 34 -4 12 10 13 16 4 26 -18 21 -53 17 -78 -10z"/>
<path d="M6371 5110 c-19 -11 -9 -45 14 -45 13 0 21 8 23 21 3 23 -17 37 -37
24z"/>
<path d="M6274 5072 c5 -15 -9 -27 -69 -59 -64 -35 -77 -39 -89 -28 -25 25
-24 5 1 -41 25 -44 45 -59 36 -26 -3 13 7 24 34 39 21 11 56 31 78 43 22 12
43 24 47 27 10 6 -20 63 -33 63 -6 0 -8 -8 -5 -18z"/>
<path d="M838 4941 c-27 -49 -48 -92 -48 -95 0 -16 18 -3 31 22 8 15 29 54 47
86 18 33 29 63 25 67 -4 4 -29 -32 -55 -80z"/>
<path d="M6348 4938 c-4 -29 -156 -96 -164 -73 -4 8 -10 15 -15 15 -4 0 -2
-18 6 -41 21 -58 27 -66 36 -41 4 11 29 30 55 42 75 33 93 35 109 14 32 -42
14 -66 -73 -103 -45 -18 -56 -20 -69 -9 -14 11 -15 10 -8 -11 23 -73 45 -98
45 -52 0 10 24 26 65 42 55 23 67 25 83 13 21 -15 33 -46 23 -62 -12 -20 -123
-64 -147 -58 l-23 6 18 -42 c18 -42 43 -65 35 -31 -4 14 11 25 71 52 42 19 81
43 86 53 13 24 -13 75 -46 90 -19 9 -22 15 -15 29 16 30 11 49 -21 81 -18 19
-26 34 -20 37 8 5 7 17 -1 39 -14 37 -25 41 -30 10z"/>
<path d="M585 4891 c-3 -11 -3 -31 1 -45 5 -21 3 -25 -9 -20 -11 4 -21 -4 -31
-24 -17 -34 -12 -46 13 -30 14 8 32 4 82 -17 79 -35 89 -43 82 -61 -3 -8 -1
-14 4 -14 12 0 53 99 43 105 -4 3 -10 -2 -14 -10 -3 -8 -11 -15 -18 -15 -20 0
-122 50 -130 63 -13 21 -9 47 6 41 15 -6 40 29 29 40 -14 14 -52 5 -58 -13z"/>
<path d="M512 4683 c-18 -7 -42 -57 -42 -87 0 -36 43 -81 90 -95 36 -10 46
-10 78 6 46 23 70 79 50 121 -7 14 -19 27 -25 30 -9 2 -9 -3 1 -23 29 -55 -23
-113 -86 -97 -20 5 -17 28 13 99 10 22 15 44 12 47 -7 7 -73 7 -91 -1z m49
-31 c14 -6 14 -11 -1 -54 -14 -41 -18 -45 -35 -35 -66 35 -32 118 36 89z"/>
<path d="M6483 4543 c-7 -2 -13 -13 -13 -23 0 -14 9 -20 33 -22 27 -2 33 -8
35 -30 3 -22 -2 -30 -23 -38 -37 -14 -37 -14 -70 35 -32 48 -54 59 -91 45 -38
-15 -36 -63 5 -101 24 -23 26 -27 12 -36 -15 -9 -15 -13 1 -44 16 -32 17 -33
17 -9 1 23 9 28 67 45 87 27 108 46 101 97 -3 25 -15 48 -32 64 -14 13 -27 24
-28 23 -1 0 -8 -3 -14 -6z m-41 -95 c23 -31 18 -42 -21 -46 -36 -4 -61 12 -61
37 0 43 51 48 82 9z"/>
<path d="M430 4487 c0 -7 -6 -21 -13 -32 -12 -15 -19 -16 -45 -7 -30 10 -32 9
-32 -11 0 -16 9 -26 30 -34 21 -8 30 -18 30 -35 1 -22 1 -22 12 -3 6 11 12 21
12 22 1 1 37 -9 80 -23 73 -23 80 -23 102 -9 34 22 31 95 -3 95 -13 0 -13 -3
-3 -15 7 -8 9 -22 6 -31 -8 -20 -49 -16 -138 15 -34 11 -36 14 -28 37 13 32
13 44 0 44 -5 0 -10 -6 -10 -13z"/>
<path d="M6575 4320 c4 -11 2 -21 -4 -21 -6 -1 -14 -2 -18 -3 -5 -1 -34 -8
-66 -15 -68 -15 -101 -41 -92 -74 8 -27 44 -59 57 -51 5 3 0 13 -11 21 -17 11
-19 18 -11 33 8 15 51 33 75 31 2 0 22 6 44 14 l39 13 8 -31 c5 -17 15 -32 21
-34 9 -3 10 4 3 28 -11 36 -1 49 36 49 28 0 36 10 19 26 -9 9 -24 12 -44 8
-23 -5 -32 -2 -37 10 -9 23 -27 20 -19 -4z"/>
<path d="M366 4276 c-3 -12 -6 -30 -6 -41 1 -19 1 -19 14 -2 13 17 17 17 87 0
41 -10 77 -21 80 -25 3 -5 4 -22 1 -38 -6 -42 -39 -50 -125 -28 -39 10 -72 16
-74 14 -2 -2 -6 -21 -9 -42 -5 -36 -4 -38 10 -20 14 18 19 18 78 5 35 -7 76
-13 92 -12 43 1 63 47 44 101 -5 16 -4 22 6 22 16 0 26 21 26 53 0 19 -1 20
-16 6 -14 -15 -24 -14 -109 6 l-94 22 -5 -21z"/>
<path d="M6620 4146 c0 -18 -8 -24 -46 -30 -16 -3 -51 -10 -77 -15 -38 -7 -50
-6 -54 5 -12 31 -23 11 -17 -28 8 -52 23 -85 24 -51 0 23 8 27 80 39 25 4 48
9 53 10 4 1 15 2 25 3 33 3 43 16 36 49 -7 32 -24 45 -24 18z"/>
<path d="M6704 4135 c-8 -19 3 -35 26 -35 19 0 30 17 23 38 -6 17 -42 15 -49
-3z"/>
<path d="M350 4018 c-44 -24 -56 -65 -34 -122 4 -11 1 -16 -10 -16 -12 0 -16
-10 -16 -37 0 -35 1 -35 19 -19 11 10 29 15 44 12 13 -2 69 -10 122 -17 81
-10 98 -15 102 -30 9 -35 21 -19 28 37 7 58 2 81 -10 44 -5 -17 -14 -20 -46
-18 -43 2 -43 2 -28 47 14 39 -2 82 -37 106 -34 22 -104 29 -134 13z m124 -56
c17 -10 32 -28 34 -41 5 -29 -22 -59 -51 -56 -12 1 -38 3 -58 4 -41 1 -69 19
-73 46 -11 65 72 91 148 47z"/>
<path d="M6513 3990 c-54 -23 -73 -108 -36 -158 43 -58 157 -52 189 10 20 39
13 103 -14 131 -23 22 -103 33 -139 17z m107 -36 c33 -7 51 -34 42 -67 -12
-48 -135 -74 -173 -36 -58 58 26 123 131 103z"/>
<path d="M483 3754 c-10 -17 -21 -20 -85 -19 -40 1 -81 -3 -91 -7 -31 -16 -37
-49 -16 -90 19 -37 19 -38 0 -57 -20 -20 -20 -55 -1 -92 13 -24 12 -29 -2 -26
-9 1 -13 -11 -14 -35 -1 -42 5 -47 22 -20 9 13 22 17 55 16 24 -2 61 -3 81 -3
28 -1 38 -6 43 -22 10 -31 17 -16 20 41 2 48 -7 66 -19 35 -4 -12 -21 -15 -76
-13 -39 1 -75 5 -80 8 -18 11 -21 58 -5 74 20 20 141 19 161 -1 17 -17 22 -7
22 45 1 41 -13 59 -20 25 -2 -14 -14 -16 -73 -14 -79 3 -95 11 -95 53 0 36 22
45 103 43 38 -1 62 -7 67 -16 14 -22 21 -4 18 47 -3 43 -4 47 -15 28z"/>
<path d="M6479 3744 c-3 -5 -4 -22 -3 -39 1 -16 2 -38 3 -47 1 -10 6 -18 12
-18 5 0 8 4 4 9 -9 16 8 20 84 22 81 2 93 -6 89 -56 -3 -34 -23 -42 -110 -44
-45 -1 -58 2 -58 14 0 8 -5 15 -11 15 -6 0 -8 -20 -5 -52 5 -67 6 -67 16 -40
8 18 17 22 57 23 89 1 117 7 134 28 14 17 16 28 8 53 -5 17 -13 36 -19 42 -15
15 -12 26 5 26 12 0 15 9 13 35 -2 39 -8 43 -24 17 -9 -14 -28 -18 -93 -20
-76 -3 -82 -2 -89 19 -5 12 -11 18 -13 13z"/>
<path d="M6565 3363 c-35 -9 -66 -36 -86 -74 -21 -43 -24 -75 -8 -116 13 -34
59 -84 71 -77 4 3 -5 19 -21 35 -47 46 -47 101 0 148 29 29 75 44 112 37 12
-3 34 -7 49 -10 14 -3 40 -18 57 -32 56 -47 37 -126 -37 -155 -13 -5 -20 -13
-17 -19 8 -13 95 -13 95 0 0 6 -4 10 -9 10 -6 0 -3 16 5 35 55 131 -64 255
-211 218z"/>
<path d="M368 3343 c-99 -15 -109 -171 -13 -203 66 -22 137 10 151 67 21 82
-47 149 -138 136z m90 -50 c29 -7 46 -47 31 -74 -22 -41 -134 -56 -170 -23
-62 56 37 125 139 97z"/>
<path d="M470 3104 c0 -3 7 -12 15 -20 60 -60 -8 -145 -102 -129 -34 6 -53 29
-53 64 0 16 6 20 22 18 17 -1 24 4 26 21 5 30 -31 30 -52 0 -47 -67 32 -160
120 -143 85 16 121 102 68 164 -23 28 -44 40 -44 25z"/>
<path d="M6460 3022 c-24 -25 -30 -39 -30 -74 0 -59 39 -98 104 -105 79 -9
133 49 115 124 -11 52 -43 76 -105 81 -49 4 -56 2 -84 -26z m136 -27 c44 -14
54 -84 14 -105 -46 -25 -167 15 -164 54 1 9 2 23 3 31 2 31 80 41 147 20z"/>
<path d="M6408 2820 c-26 -67 -32 -118 -8 -81 7 12 21 10 82 -10 64 -21 73
-27 76 -50 4 -36 -22 -61 -56 -53 -70 16 -122 38 -122 50 0 25 -17 15 -24 -13
-3 -16 -8 -39 -12 -53 -5 -22 -4 -23 8 -8 11 13 21 15 49 8 94 -24 109 -31
115 -57 9 -34 -7 -58 -37 -58 -47 1 -137 35 -142 53 -3 14 -6 12 -14 -8 -6
-14 -13 -38 -17 -55 -7 -28 -7 -29 11 -13 18 16 23 16 83 -2 117 -36 148 -21
136 66 -5 37 -3 44 14 49 23 7 34 42 28 84 -3 22 0 31 12 34 10 2 20 17 23 33
7 36 2 41 -18 21 -14 -14 -20 -14 -56 -2 -22 8 -58 19 -79 25 -28 8 -40 17
-43 33 -2 16 -5 18 -9 7z"/>
<path d="M553 2793 c-19 -7 -16 -40 4 -47 23 -9 47 22 32 41 -12 14 -16 15
-36 6z"/>
<path d="M406 2751 c-10 -16 5 -41 24 -41 23 0 32 13 24 34 -7 17 -39 22 -48
7z"/>
<path d="M584 2693 c1 -12 -19 -24 -73 -44 -41 -15 -78 -32 -83 -37 -26 -26
-12 -73 29 -106 17 -13 21 -22 14 -29 -19 -19 -12 -57 15 -82 21 -19 24 -28
15 -39 -8 -10 -8 -22 3 -47 l14 -34 10 26 c8 20 26 31 83 52 68 24 75 25 91
10 23 -20 23 -6 2 47 -15 37 -29 45 -29 18 0 -9 -123 -58 -145 -58 -3 0 -13
12 -22 28 -23 38 -10 56 57 81 63 24 95 27 95 9 0 -6 3 -8 6 -5 9 9 -16 97
-27 97 -5 0 -9 -8 -9 -18 0 -13 -17 -24 -68 -40 -38 -12 -71 -22 -75 -22 -15
0 -38 50 -32 69 9 28 131 69 157 52 22 -14 23 -4 2 49 -17 41 -33 53 -30 23z"/>
<path d="M6188 2447 c-10 -23 -20 -51 -23 -62 -6 -18 -5 -18 13 2 19 22 22 22
56 8 l37 -16 -21 -28 c-40 -57 -14 -128 56 -157 51 -21 82 -17 114 15 23 22
28 35 25 64 -2 25 1 34 10 31 14 -6 42 53 30 64 -4 4 -10 1 -12 -5 -6 -18 -26
-16 -76 6 -23 10 -73 32 -112 49 -48 20 -69 35 -67 45 6 34 -15 23 -30 -16z
m195 -116 c38 -17 47 -25 47 -46 0 -39 -34 -66 -72 -60 -77 14 -123 68 -98
115 14 26 47 24 123 -9z"/>
<path d="M714 2318 c1 -17 -12 -28 -62 -53 -69 -33 -82 -47 -82 -87 0 -36 45
-88 77 -88 20 0 24 4 21 23 -3 23 -28 31 -40 12 -5 -6 -13 -4 -24 7 -21 21
-12 61 17 75 19 8 28 3 64 -34 46 -47 74 -54 105 -23 16 16 18 24 8 51 -7 19
-22 36 -40 43 -25 11 -27 14 -14 25 14 12 14 16 0 42 -17 34 -31 38 -30 7z
m37 -87 c20 -16 22 -23 13 -38 -18 -30 -59 -28 -84 4 l-22 28 29 12 c37 16 37
16 64 -6z"/>
<path d="M6170 2172 c-17 -14 -22 -28 -22 -60 1 -31 -3 -40 -13 -36 -8 4 -20
-7 -30 -25 -15 -31 -9 -41 12 -20 8 8 27 3 70 -19 78 -40 91 -44 114 -32 42
23 67 121 33 134 -26 10 -34 7 -34 -13 0 -10 9 -25 21 -32 l21 -14 -20 -25
c-17 -21 -24 -23 -48 -14 -22 7 -29 16 -27 34 9 96 7 112 -12 126 -25 18 -38
18 -65 -4z m59 -51 c9 -15 6 -69 -3 -79 -7 -6 -56 22 -58 32 -4 33 -3 42 5 54
14 18 45 15 56 -7z"/>
<path d="M848 2067 c15 -18 5 -29 -61 -66 -50 -29 -62 -32 -83 -22 -21 9 -23
13 -12 31 15 24 0 44 -26 34 -28 -11 -16 -56 19 -73 16 -8 24 -16 17 -19 -18
-6 -15 -26 8 -53 19 -24 19 -24 20 -3 0 26 6 31 88 75 53 29 64 32 72 19 5 -8
12 -11 16 -8 9 9 -44 98 -58 98 -7 0 -7 -4 0 -13z"/>
<path d="M6055 1970 c-29 -45 -34 -70 -10 -50 12 10 26 5 77 -27 69 -43 77
-68 38 -107 -18 -18 -20 -18 -84 19 -50 30 -66 44 -68 64 -3 24 -5 23 -30 -21
-33 -55 -34 -62 -10 -47 15 9 30 4 85 -30 37 -22 76 -41 86 -41 29 0 50 27 57
71 5 27 11 38 20 35 13 -5 44 34 44 55 0 8 -4 8 -15 -1 -13 -11 -28 -5 -88 31
-59 36 -71 49 -69 67 5 32 -4 27 -33 -18z"/>
<path d="M934 1965 c-24 -24 -24 -26 -9 -62 9 -21 23 -49 31 -62 12 -17 13
-26 5 -34 -8 -8 -20 -1 -45 26 -18 20 -39 38 -45 38 -6 1 -17 2 -23 3 -24 4
-50 -16 -63 -47 -11 -28 -11 -36 3 -60 17 -29 59 -57 85 -57 22 0 58 32 61 55
2 15 9 19 29 17 14 -2 28 2 32 8 11 18 13 60 4 66 -16 10 -48 80 -41 90 24 35
79 11 102 -46 15 -35 1 -60 -32 -60 -17 0 -18 -3 -8 -15 15 -18 42 -19 58 -3
30 30 -1 107 -58 146 -42 28 -55 28 -86 -3z m-26 -157 c5 -44 -62 -82 -93 -52
-22 23 -18 39 15 68 37 30 73 23 78 -16z"/>
<path d="M723 1834 c-7 -19 24 -47 40 -37 8 5 7 8 -1 11 -7 2 -12 12 -12 23 0
23 -18 25 -27 3z"/>
<path d="M5845 1823 c-26 -26 -13 -69 56 -189 35 -59 64 -118 65 -131 1 -30
14 -27 42 10 27 38 27 39 -1 32 -26 -7 -31 -2 -71 68 l-27 47 28 -5 c15 -3 48
-11 73 -19 38 -11 45 -17 42 -37 -2 -23 -2 -23 23 6 14 17 31 38 36 48 9 16 7
17 -18 14 -15 -2 -57 4 -93 13 -36 10 -77 20 -92 24 -16 4 -34 18 -43 36 -18
35 -21 70 -4 53 6 -6 18 -9 25 -6 19 7 18 39 -2 47 -21 8 -20 8 -39 -11z"/>
<path d="M1034 1760 c5 -21 -2 -31 -48 -65 -82 -60 -90 -96 -37 -152 25 -26
76 -31 84 -9 9 24 -17 38 -39 22 -16 -13 -21 -12 -36 1 -23 20 -23 35 1 64
l18 23 50 -32 c27 -18 59 -32 70 -32 23 0 53 29 53 51 0 26 -29 57 -60 64 -26
6 -29 9 -19 21 10 12 7 20 -15 42 l-27 27 5 -25z m60 -89 c14 -15 15 -24 6
-40 -14 -27 -40 -27 -75 1 l-27 21 23 18 c31 24 52 24 73 0z"/>
<path d="M1150 1571 c0 -5 10 -11 22 -13 38 -5 32 -33 -17 -79 -67 -64 -73
-66 -101 -33 -22 28 -23 28 -24 7 0 -13 4 -23 9 -23 23 0 21 -36 -3 -57 -21
-18 -23 -23 -11 -33 11 -9 21 -7 44 9 18 13 32 17 36 11 3 -5 14 -10 23 -10
15 0 15 1 0 16 -15 15 -11 21 48 78 65 62 78 92 50 116 -19 15 -76 24 -76 11z"/>
<path d="M5593 1383 c-49 -52 -60 -69 -52 -80 17 -20 24 -17 76 36 l48 50 107
-106 c92 -92 109 -105 122 -94 9 8 16 17 16 21 0 11 -229 235 -243 237 -7 1
-40 -28 -74 -64z"/>
<path d="M1255 1416 c-26 -26 -25 -44 6 -109 11 -24 10 -30 -4 -45 -25 -24
-52 -4 -54 39 -1 19 -2 37 -2 41 -1 5 -12 -2 -25 -13 l-25 -21 36 -39 c42 -46
73 -50 108 -15 l24 25 -20 57 c-22 67 -20 84 15 84 32 0 46 -26 39 -73 -5 -43
4 -47 35 -14 26 27 28 37 7 37 -8 0 -15 5 -15 10 0 21 -49 60 -75 60 -14 0
-37 -11 -50 -24z"/>
<path d="M1429 1312 c8 -14 -1 -29 -41 -76 -75 -85 -68 -134 21 -151 25 -5 31
-9 22 -18 -8 -8 -5 -17 11 -34 27 -29 40 -29 33 0 -7 30 89 141 116 134 11 -3
22 -1 25 4 3 5 2 9 -3 9 -4 0 -23 14 -40 31 -32 29 -36 29 -34 -1 0 -8 -21
-40 -48 -70 l-50 -55 -28 17 c-43 26 -41 52 11 113 36 42 51 52 68 48 19 -4
16 2 -16 31 -43 39 -62 46 -47 18z"/>
<path d="M5453 1298 c-21 -18 -40 -35 -43 -38 -3 -3 -19 -17 -37 -31 -20 -17
-28 -31 -23 -39 10 -16 22 -9 99 59 56 49 76 81 51 81 -5 0 -26 -15 -47 -32z"/>
<path d="M5338 1156 c-16 -12 -17 -17 -4 -59 l14 -47 -48 -35 c-26 -19 -52
-35 -57 -35 -4 0 -25 11 -44 25 -32 21 -39 22 -55 10 -12 -9 -16 -17 -9 -23
24 -21 285 -202 292 -202 4 0 16 6 25 13 18 14 16 24 -57 257 -15 47 -27 91
-28 98 -1 15 -7 15 -29 -2z m53 -243 l18 -54 -27 16 c-15 9 -42 29 -61 44
l-34 28 39 27 c33 23 39 24 42 10 2 -9 12 -41 23 -71z"/>
<path d="M1636 1153 c-3 -4 -1 -12 6 -20 9 -11 4 -23 -20 -56 -17 -23 -44 -59
-59 -80 l-27 -39 24 -19 c33 -25 42 -24 35 4 -4 16 7 39 41 85 41 56 50 63 73
58 l26 -6 -26 22 c-54 47 -67 56 -73 51z"/>
<path d="M1874 934 c3 -9 6 -19 6 -24 0 -4 12 -7 26 -7 36 0 68 -35 61 -65
-10 -37 -46 -78 -68 -78 -29 0 -59 18 -59 35 0 19 -39 20 -46 1 -8 -21 23 -62
56 -76 49 -20 96 -5 130 41 38 53 45 90 26 128 -22 41 -54 61 -99 61 -32 0
-38 -3 -33 -16z"/>
<path d="M4995 942 c-6 -4 -10 -91 -10 -223 -1 -174 2 -216 12 -212 7 3 14 10
14 17 4 40 3 426 -1 426 -3 0 -9 -4 -15 -8z"/>
<path d="M1480 894 c-11 -12 -11 -18 1 -30 13 -12 18 -12 34 0 16 12 17 16 6
30 -17 20 -25 20 -41 0z"/>
<path d="M2057 783 c-36 -77 -41 -91 -38 -125 2 -29 38 -58 72 -58 16 0 28 -4
25 -9 -3 -4 6 -13 19 -19 23 -11 26 -8 76 95 50 101 52 106 34 119 -17 13 -21
9 -52 -49 -48 -91 -48 -92 -72 -95 -27 -4 -51 14 -51 39 0 11 16 51 35 89 34
67 34 70 16 80 -11 5 -21 10 -23 10 -2 0 -21 -35 -41 -77z"/>
<path d="M2414 768 c-8 -13 -12 -11 101 -49 111 -37 115 -38 116 -24 1 13
-210 85 -217 73z"/>
<path d="M4649 752 c-14 -6 -11 -21 27 -121 24 -63 42 -116 40 -118 -3 -3
-119 89 -136 107 -3 3 -24 20 -47 38 -35 27 -45 31 -67 23 l-25 -10 36 -93
c19 -51 41 -106 48 -123 7 -16 18 -47 25 -67 11 -38 40 -52 55 -28 4 6 -12 58
-35 116 -23 58 -39 108 -35 112 3 4 9 2 13 -4 4 -6 51 -45 105 -88 80 -63 103
-77 123 -72 13 4 24 12 23 19 -1 23 -115 311 -125 313 -5 1 -16 -1 -25 -4z"/>
<path d="M2313 728 c-21 -47 -68 -157 -76 -180 -9 -26 29 -45 42 -21 29 55 82
197 77 209 -8 21 -31 17 -43 -8z"/>
<path d="M4365 685 c-5 -2 -43 -13 -82 -25 -48 -14 -73 -26 -73 -35 0 -19 12
-19 75 0 28 9 67 20 88 26 21 5 37 16 37 24 0 14 -21 18 -45 10z"/>
<path d="M2830 635 c0 -9 9 -15 23 -15 12 0 61 -9 109 -19 48 -10 90 -16 93
-13 14 14 -2 21 -87 37 -51 9 -103 19 -115 21 -16 3 -23 0 -23 -11z"/>
<path d="M2633 618 c-18 -11 -20 -16 -9 -31 8 -10 20 -15 30 -11 26 10 62 -4
73 -29 12 -26 -6 -94 -29 -108 -22 -14 -51 -10 -73 11 -18 17 -24 18 -39 7
-17 -13 -17 -15 6 -42 20 -23 33 -28 70 -29 71 -2 118 55 118 142 0 69 -89
123 -147 90z"/>
<path d="M3815 618 c-2 -7 -29 -89 -59 -183 -31 -93 -56 -173 -56 -177 -1 -4
-8 -24 -16 -44 -12 -28 -12 -35 -2 -32 10 4 157 413 158 441 0 12 -20 8 -25
-5z"/>
<path d="M4081 492 l19 -88 -30 -94 c-16 -52 -28 -95 -26 -97 2 -2 14 1 28 6
18 7 29 24 43 70 10 34 21 61 24 61 3 0 26 -23 51 -50 36 -40 49 -49 68 -44
12 4 22 9 22 13 -1 3 -30 37 -65 75 -57 63 -65 77 -79 139 -9 38 -16 76 -16
83 0 9 -11 14 -29 14 l-29 0 19 -88z"/>
<path d="M3072 524 c-34 -24 -12 -46 37 -38 48 8 71 -13 71 -65 0 -67 -58 -99
-108 -58 -9 7 -17 6 -28 -4 -13 -13 -12 -18 10 -38 43 -40 120 -32 151 16 9
13 19 49 22 79 5 51 4 55 -30 89 -39 39 -86 47 -125 19z"/>
<path d="M3324 470 c-6 -44 -9 -50 -30 -50 -17 0 -24 -6 -24 -19 0 -14 5 -18
20 -14 21 6 24 -5 14 -44 -4 -16 -14 -23 -30 -23 -15 0 -24 -6 -24 -15 0 -9 9
-15 21 -15 19 0 20 -4 14 -47 -3 -26 -8 -50 -11 -55 -3 -4 4 -8 14 -8 22 0 32
18 32 58 0 33 10 48 30 47 17 0 22 -46 9 -82 -5 -14 -4 -23 6 -27 19 -7 32 12
39 59 3 22 5 41 6 43 0 1 11 2 25 2 16 0 25 6 25 15 0 9 -9 15 -24 15 -21 0
-23 3 -17 32 5 23 14 34 31 38 34 8 38 30 5 30 -20 0 -25 4 -22 18 3 9 8 34
12 55 5 34 4 38 -12 35 -12 -2 -20 -17 -26 -48 -10 -53 -8 -50 -35 -55 -20 -3
-21 0 -16 33 3 20 7 45 10 55 4 12 0 17 -15 17 -17 0 -21 -9 -27 -50z m61
-119 c-8 -34 -18 -43 -37 -36 -16 6 -14 39 4 62 17 21 40 3 33 -26z"/>
<path d="M2200 460 c-9 -17 -7 -22 12 -29 18 -7 25 -5 32 11 7 14 6 22 -5 29
-21 13 -27 11 -39 -11z"/>
</g>
</svg>
