<?xml version="1.0" encoding="UTF-8"?>
<svg width="80px" height="81px" viewBox="0 0 80 81" version="1.1" xmlns="http://www.w3.org/2000/svg" xmlns:xlink="http://www.w3.org/1999/xlink">
    <!-- Generator: Sketch 48.2 (47327) - http://www.bohemiancoding.com/sketch -->
    <title>Group</title>
    <desc>Created with Sketch.</desc>
    <defs></defs>
    <g id="Page-1" stroke="none" stroke-width="1" fill="none" fill-rule="evenodd">
        <g id="C_C_panel" transform="translate(-35.000000, -118.000000)">
            <g id="Group" transform="translate(35.000000, 118.000000)">
                <polyline id="Fill-2" fill="#0C0D0B" points="79.792 80.038 0.597 80.038 0.597 0.842 79.792 80.038"></polyline>
                <polyline id="Fill-3" fill="#ACAEAA" points="79.792 80.038 79.792 0.842 0.597 0.842 79.792 80.038"></polyline>
                <path d="M44.999,43.405 C44.999,48.133 45.532,51.128 46.797,53.325 C48.26,55.92 50.458,57.317 53.12,57.317 C55.783,57.317 57.646,56.254 58.844,53.99 C60.376,51.26 61.041,47.533 61.041,42.208 C61.041,32.024 58.646,27.298 53.52,27.298 C48.128,27.298 44.999,33.155 44.999,43.405 Z M35.015,53.923 C36.879,50.994 37.611,47.267 37.611,41.142 C37.611,36.484 37.078,33.287 35.88,31.024 C34.482,28.495 32.152,26.964 29.556,26.964 C24.098,26.964 21.369,32.024 21.369,41.942 C21.369,51.993 23.964,56.985 29.223,56.985 C31.819,56.985 33.684,55.987 35.015,53.923 Z M37.478,54.656 C36.08,56.32 35.281,56.985 33.883,57.717 C31.886,58.717 29.623,59.248 26.96,59.248 C17.841,59.248 12.648,53.325 12.648,42.739 C12.648,31.424 18.107,25.167 27.892,25.167 C31.886,25.167 34.482,26.232 37.478,29.027 L37.478,18.311 C37.478,13.318 36.879,12.72 31.953,12.652 L31.953,11.054 L45.532,10.455 C45.266,14.383 45.066,19.443 45.066,23.435 L45.066,30.359 C46.729,28.295 47.663,27.496 49.326,26.632 C51.189,25.633 53.254,25.167 55.717,25.167 C64.703,25.167 69.695,31.024 69.695,41.476 C69.695,53.057 64.436,59.248 54.651,59.248 C50.591,59.248 47.861,58.183 45.132,55.388 L45.132,61.511 C45.132,66.637 45.665,67.237 50.324,67.303 L50.324,68.9 L32.019,68.9 L32.019,67.303 C36.945,67.103 37.478,66.571 37.478,61.179 L37.478,54.656 Z" id="Fill-4" fill="#FFFFFE"></path>
            </g>
        </g>
    </g>
</svg>