<?xml version="1.0" encoding="UTF-8"?>
<svg width="80px" height="80px" viewBox="0 0 80 80" version="1.1" xmlns="http://www.w3.org/2000/svg" xmlns:xlink="http://www.w3.org/1999/xlink">
    <!-- Generator: Sketch 48.2 (47327) - http://www.bohemiancoding.com/sketch -->
    <title>instagram-icon</title>
    <desc>Created with Sketch.</desc>
    <defs></defs>
    <g id="Page-1" stroke="none" stroke-width="1" fill="none" fill-rule="evenodd">
        <g id="C_C_panel" transform="translate(-35.000000, -242.000000)">
            <g id="instagram-icon" transform="translate(35.000000, 242.000000)">
                <path d="M40.195,79.705 L0.591,79.705 L0.591,40.101 C0.591,61.977 18.319,79.705 40.195,79.705" id="Fill-5" fill="#0C0D0B"></path>
                <path d="M0.591,40.101 L0.591,0.515 L40.195,0.515 C18.319,0.515 0.591,18.243 0.591,40.101" id="Fill-6" fill="#0C0D0B"></path>
                <path d="M79.799,0.515 L79.799,40.101 C79.799,18.243 62.071,0.515 40.195,0.515 L79.799,0.515" id="Fill-7" fill="#0C0D0B"></path>
                <path d="M79.799,40.101 L79.799,79.705 L40.195,79.705 C62.071,79.705 79.799,61.977 79.799,40.101" id="Fill-8" fill="#0C0D0B"></path>
                <path d="M40.195,68.106 L12.192,68.106 L12.192,40.103 C12.192,55.571 24.727,68.106 40.195,68.106" id="Fill-9" fill="#0C0D0B"></path>
                <path d="M12.192,40.103 L12.192,12.113 L40.195,12.113 C24.727,12.113 12.192,24.648 12.192,40.103" id="Fill-10" fill="#0C0D0B"></path>
                <path d="M68.198,12.113 L68.198,40.103 C68.198,24.648 55.663,12.113 40.195,12.113 L68.198,12.113" id="Fill-11" fill="#0C0D0B"></path>
                <path d="M68.198,40.103 L68.198,68.106 L40.195,68.106 C55.663,68.106 68.198,55.571 68.198,40.103" id="Fill-12" fill="#0C0D0B"></path>
                <path d="M40.195,59.907 L20.393,59.907 L20.393,40.105 C20.393,51.044 29.257,59.907 40.195,59.907" id="Fill-13" fill="#0C0D0B"></path>
                <path d="M20.393,40.105 L20.393,20.313 L40.195,20.313 C29.257,20.313 20.393,29.176 20.393,40.105" id="Fill-14" fill="#0C0D0B"></path>
                <path d="M59.997,20.313 L59.997,40.105 C59.997,29.176 51.133,20.313 40.195,20.313 L59.997,20.313" id="Fill-15" fill="#0C0D0B"></path>
                <path d="M59.997,40.105 L59.997,59.907 L40.195,59.907 C51.133,59.907 59.997,51.044 59.997,40.105" id="Fill-16" fill="#0C0D0B"></path>
                <polygon id="Fill-17" fill="#0C0D0B" points="26.203 54.093 54.187 54.093 54.187 26.109 26.203 26.109"></polygon>
                <path d="M46.782,40.105 C46.782,43.743 43.833,46.693 40.195,46.693 C36.557,46.693 33.607,43.743 33.607,40.105 C33.607,36.467 36.557,33.518 40.195,33.518 C43.833,33.518 46.782,36.467 46.782,40.105" id="Fill-18" fill="#FFFFFE"></path>
                <path d="M50.096,32.036 C50.096,32.951 49.354,33.693 48.439,33.693 C47.524,33.693 46.782,32.951 46.782,32.036 C46.782,31.121 47.524,30.38 48.439,30.38 C49.354,30.38 50.096,31.121 50.096,32.036" id="Fill-19" fill="#FFFFFE"></path>
            </g>
        </g>
    </g>
</svg>