<?xml version="1.0" encoding="UTF-8"?>
<svg width="80px" height="93px" viewBox="0 0 80 93" version="1.1" xmlns="http://www.w3.org/2000/svg" xmlns:xlink="http://www.w3.org/1999/xlink">
    <!-- Generator: Sketch 48.2 (47327) - http://www.bohemiancoding.com/sketch -->
    <title>pinterest-icon</title>
    <desc>Created with Sketch.</desc>
    <defs></defs>
    <g id="Page-1" stroke="none" stroke-width="1" fill="none" fill-rule="evenodd">
        <g id="C_C_panel" transform="translate(-35.000000, -358.000000)">
            <g id="pinterest-icon" transform="translate(35.000000, 358.000000)">
                <path d="M79.792,53.257 C79.792,75.126 62.064,92.854 40.195,92.854 C18.326,92.854 0.597,75.126 0.597,53.257" id="Fill-36" fill="#0C0D0B"></path>
                <path d="M25.18,0.199 C30.166,0.199 33.113,2.864 33.113,5.811 C33.113,7.567 32.264,8.927 31.244,10.513 L29.713,12.723 C28.807,14.14 28.467,15.159 28.467,16.464 C28.467,17.483 29.601,19.07 33.001,19.07 L33.001,22.073 C28.014,22.073 25.067,19.41 25.067,16.464 C25.067,14.82 25.407,13.574 26.427,11.93 L28.014,9.55 C28.637,8.53 29.713,7.283 29.713,5.98 C29.713,4.563 28.467,3.203 25.18,3.203 L25.18,0.199" id="Fill-37" fill="#0B0B09"></path>
                <path d="M40.487,0.199 C45.473,0.199 48.42,2.864 48.42,5.811 C48.42,7.567 47.57,8.927 46.549,10.513 L45.02,12.723 C44.113,14.14 43.774,15.159 43.774,16.464 C43.774,17.483 44.908,19.07 48.308,19.07 L48.308,22.073 C43.321,22.073 40.374,19.41 40.374,16.464 C40.374,14.82 40.713,13.574 41.734,11.93 L43.321,9.55 C43.944,8.53 45.02,7.283 45.02,5.98 C45.02,4.563 43.774,3.203 40.487,3.203 L40.487,0.199" id="Fill-38" fill="#0B0B09"></path>
                <path d="M44.741,40.699 C46.451,39.889 47.62,38.27 47.62,36.56 C47.62,32.918 43.931,31.118 36.509,31.118 C29.312,31.118 25.533,32.828 25.533,36.021 C25.533,39.71 29.896,41.959 37.093,41.959 C40.422,41.959 42.851,41.554 44.741,40.699 Z M27.647,41.868 C25.128,39.8 24.094,37.64 24.094,34.581 C24.094,28.554 28.367,25.136 35.878,25.136 C39.882,25.136 43.392,26.169 45.551,27.924 C47.664,29.633 48.88,32.468 48.88,35.527 C48.88,38.09 48.249,39.71 46.451,41.779 L52.703,41.779 C56.706,41.779 57.066,41.509 57.2,38.09 L58.28,38.09 L58.28,50.64 L57.2,50.64 C57.111,47.492 56.706,47.222 52.703,47.222 L30.211,47.222 C26.387,47.222 25.893,47.626 25.848,50.64 L24.769,50.64 L24.184,41.868 L27.647,41.868 Z" id="Fill-39" fill="#0B0B09"></path>
            </g>
        </g>
    </g>
</svg>