<?xml version="1.0" encoding="UTF-8"?>
<svg width="208px" height="208px" viewBox="0 0 208 208" version="1.1" xmlns="http://www.w3.org/2000/svg" xmlns:xlink="http://www.w3.org/1999/xlink">
    <!-- Generator: Sketch 48.2 (47327) - http://www.bohemiancoding.com/sketch -->
    <title>video-logo-outer</title>
    <desc>Created with Sketch.</desc>
    <defs>
        <polygon id="path-1" points="0.0003 0.621 207.379 0.621 207.379 208 0.0003 208"></polygon>
    </defs>
    <g id="Sticker" stroke="none" stroke-width="1" fill="none" fill-rule="evenodd" transform="translate(0.000000, -1.000000)">
        <g id="video-logo-outer">
            <g>
                <path d="M51.0847,176.931 C50.4157,176.443 50.1577,176.428 49.9517,176.702 L47.2747,180.25 C47.0177,180.592 47.0227,180.917 47.6747,181.427 L47.4077,181.782 L45.5947,180.485 L48.9937,175.98 C49.1997,175.705 49.1267,175.471 48.4617,174.952 L48.7287,174.598 L51.3517,176.577 L51.0847,176.931 Z M45.2667,183.315 C44.9647,183.715 44.4797,183.814 44.0917,183.522 C43.7037,183.228 43.6477,182.756 43.9487,182.358 C44.2497,181.957 44.7277,181.871 45.1157,182.163 C45.5037,182.456 45.5677,182.917 45.2667,183.315 Z" id="Fill-6" fill="#000000"></path>
                <path d="M47.8103,174.5081 C47.1743,173.9741 46.9193,173.9421 46.6943,174.2001 L43.7823,177.5591 C43.5013,177.8821 43.4953,178.2181 44.1113,178.7701 L43.8213,179.1051 L42.1103,177.6971 L42.7563,176.9521 C41.8373,176.8551 40.8403,176.6531 40.1283,176.0341 C39.3833,175.3881 39.3673,174.4471 40.2103,173.4771 L42.6353,170.6811 C42.8603,170.4221 42.8033,170.1831 42.1753,169.6191 L42.4653,169.2841 L44.8513,171.3541 L44.5603,171.6891 C44.0003,171.2211 43.7673,171.2071 43.5423,171.4671 L41.4543,173.8731 C40.6213,174.8341 40.7743,175.4211 41.4213,175.9841 C41.9073,176.4041 42.5263,176.5631 43.0253,176.6001 L45.7883,173.4141 C46.0123,173.1551 45.9663,172.9261 45.4353,172.4471 L45.7263,172.1121 L48.1003,174.1721 L47.8103,174.5081 Z" id="Fill-8" fill="#000000"></path>
                <path d="M40.4421,170.1439 L40.1501,169.8489 C40.4511,168.6489 40.4671,167.6889 39.8851,167.0989 C39.3431,166.5499 38.6861,166.6369 38.2891,167.0279 C37.8121,167.5009 37.8991,167.9759 38.5281,169.1819 C39.2371,170.5099 39.2421,171.2279 38.6021,171.8599 C37.7171,172.7329 36.4951,172.6949 35.5011,171.6879 C35.1801,171.3619 34.8911,170.8259 34.8121,170.4599 L34.3671,170.5399 L34.1361,170.3059 L35.5191,168.9399 L35.8101,169.2359 C35.5011,170.1839 35.4451,170.9999 35.9371,171.4989 C36.4191,171.9869 37.0551,172.0019 37.5021,171.5599 C37.9191,171.1489 37.7921,170.5909 37.2231,169.5469 C36.5441,168.3109 36.4881,167.5419 37.1791,166.8599 C38.0341,166.0159 39.2771,165.8529 40.3011,166.8899 C40.6721,167.2659 41.0311,167.9559 41.1401,168.3909 L41.7671,168.3739 L41.9981,168.6079 L40.4421,170.1439 Z" id="Fill-10" fill="#000000"></path>
                <path d="M36.154,165.0921 L32.969,167.8801 L33.77,168.7951 L33.469,169.0581 L32.456,168.2921 L31.079,169.4981 L29.919,168.9551 L31.705,167.3911 L30.338,165.8321 L30.79,165.4361 L32.157,166.9951 L35.244,164.2911 C35.836,163.7731 35.926,163.3131 35.531,162.8611 C35.267,162.5601 34.834,162.5211 34.262,162.5841 L34.217,162.1861 C35.287,161.9531 35.887,162.0731 36.49,162.7621 C37.122,163.4831 37.057,164.2991 36.154,165.0921" id="Fill-12" fill="#000000"></path>
                <path d="M31.112,158.7513 L29.624,159.8883 C31.227,161.2553 31.752,161.4473 32.502,160.8733 C32.979,160.5083 33.154,159.9613 32.702,159.3693 C32.354,158.9173 31.655,158.7313 31.112,158.7513 M33.579,161.7413 C33.125,162.0883 32.494,162.2303 31.868,161.9513 C30.731,161.4533 29.516,160.2413 29.25,160.1753 L28.92,160.4273 C27.785,161.2963 27.676,161.8833 28.24,162.6213 C28.518,162.9843 28.785,163.1223 29.127,163.1683 C29.25,162.9293 29.397,162.7443 29.556,162.6233 C29.897,162.3613 30.334,162.3703 30.63,162.7563 C30.907,163.1193 30.78,163.5403 30.45,163.7923 C29.792,164.2953 28.601,163.8203 27.767,162.7303 C26.863,161.5503 26.885,160.4733 27.974,159.6383 L30.575,157.6483 C31.131,157.2233 31.172,156.9933 30.508,156.3143 L30.746,156.0613 C31.206,156.3553 31.491,156.5883 31.769,156.9523 C32.23,157.5533 32.047,157.8553 31.486,158.3933 L31.521,158.4383 C32.379,158.5013 33.208,158.7853 33.72,159.4553 C34.45,160.4093 34.193,161.2723 33.579,161.7413" id="Fill-14" fill="#000000"></path>
                <path d="M28.7751,150.7523 C28.2841,151.0733 28.1321,151.5983 28.9611,152.8673 L29.6091,153.8603 C30.1831,154.3723 30.7111,154.6073 31.2611,154.2483 C31.8481,153.8653 31.9861,153.0583 31.1191,151.7303 C30.4551,150.7133 29.4921,150.2833 28.7751,150.7523 M24.7621,154.6183 C23.7811,155.2583 23.6031,156.1093 24.0091,156.7313 C24.4001,157.3303 25.0761,157.5023 26.1761,156.7843 C27.2771,156.0643 27.3281,155.2803 26.9301,154.6713 C26.5471,154.0843 25.8631,153.8993 24.7621,154.6183 M23.1621,155.7483 C22.5081,155.8163 21.8271,155.7153 21.4601,155.1523 C21.1871,154.7333 21.2821,154.3313 21.6051,154.1203 C21.8671,153.9483 22.2041,154.0193 22.3681,154.2703 C22.5321,154.5213 22.4731,154.9013 22.1141,155.1353 C22.3421,155.3273 22.7811,155.4503 23.1181,155.4183 C23.0811,154.7093 23.3651,154.0453 24.0591,153.5923 C25.2191,152.8353 26.5001,153.2793 27.2961,154.4993 C27.4521,154.7383 27.5761,154.9813 27.6771,155.2403 C28.0871,155.5023 28.3961,155.6083 28.6231,155.4593 C28.8621,155.3033 28.9131,154.9113 28.2801,153.9413 L27.9601,153.4513 C26.9761,151.9433 26.8751,150.9003 27.9401,150.2053 C28.8851,149.5883 30.4201,149.8993 31.6701,151.8143 C32.6381,153.2993 32.6221,154.5553 31.9281,155.0083 C31.3781,155.3673 30.4321,155.1483 29.7271,154.3283 L29.6681,154.3673 C30.0081,155.2033 29.9171,155.6383 29.3901,155.9813 C29.0191,156.2233 28.4651,156.1083 27.8191,155.7443 C27.9551,156.5273 27.6941,157.2773 26.8801,157.8093 C25.7311,158.5593 24.4401,158.1223 23.6351,156.8893 C23.4001,156.5303 23.2341,156.1453 23.1621,155.7483" id="Fill-16" fill="#000000"></path>
                <path d="M26.7522,150.2474 C26.3362,149.5284 26.1072,149.4104 25.8072,149.5774 L21.9212,151.7394 C21.5462,151.9484 21.4262,152.2614 21.8172,152.9934 L21.4302,153.2084 L20.3022,151.2994 L21.2772,150.7584 C20.4832,150.6264 19.7022,150.3094 19.3392,149.6584 C18.9852,149.0204 19.2622,148.4914 19.6882,148.2534 C20.0872,148.0314 20.5452,148.1214 20.7612,148.5084 C20.9692,148.8834 20.9192,149.3204 20.4942,149.5564 C20.4312,149.5924 20.3492,149.6204 20.2672,149.6494 C20.5552,150.2264 21.1862,150.4474 21.6882,150.4954 L25.2232,148.5274 C25.5232,148.3614 25.5232,148.0674 25.0772,147.2354 L25.4642,147.0194 L27.1392,150.0304 L26.7522,150.2474 Z" id="Fill-18" fill="#000000"></path>
                <path d="M21.2903,142.1195 L19.5933,142.9135 C20.8683,144.5915 21.3403,144.8905 22.1953,144.4915 C22.7393,144.2355 23.0263,143.7375 22.7113,143.0645 C22.4683,142.5465 21.8253,142.2175 21.2903,142.1195 M23.0633,145.5685 C22.5443,145.8115 21.8983,145.8125 21.3463,145.4085 C20.3413,144.6805 19.4133,143.2355 19.1663,143.1135 L18.7903,143.2895 C17.4953,143.8955 17.2643,144.4455 17.6583,145.2895 C17.8523,145.7035 18.0843,145.8935 18.4073,146.0125 C18.5783,145.8045 18.7613,145.6545 18.9423,145.5705 C19.3313,145.3885 19.7573,145.4905 19.9633,145.9305 C20.1573,146.3455 19.9423,146.7285 19.5673,146.9045 C18.8163,147.2565 17.7533,146.5385 17.1713,145.2945 C16.5403,143.9475 16.7913,142.8985 18.0353,142.3165 L21.0013,140.9285 C21.6353,140.6315 21.7243,140.4165 21.2203,139.6095 L21.5063,139.4115 C21.8933,139.8005 22.1233,140.0875 22.3173,140.5015 C22.6383,141.1885 22.3953,141.4435 21.7323,141.8485 L21.7563,141.9005 C22.5823,142.1455 23.3313,142.6005 23.6893,143.3655 C24.1983,144.4525 23.7623,145.2415 23.0633,145.5685" id="Fill-20" fill="#000000"></path>
                <path d="M19.6736,135.1937 C19.4266,134.5217 19.2536,134.4617 18.9296,134.5737 L15.9306,135.6077 C14.7286,136.0237 14.5586,136.6277 14.8386,137.4377 C15.0486,138.0457 15.4586,138.3577 15.8726,138.6377 L19.8586,137.2607 C20.1826,137.1497 20.2846,137.0077 20.0656,136.3297 L20.4846,136.1837 L21.4826,139.0747 L21.0636,139.2197 C20.7796,138.4407 20.5746,138.2847 20.2506,138.3957 L16.0496,139.8477 C15.6436,139.9867 15.4706,140.2737 15.7276,141.0617 L15.3086,141.2077 L14.5316,139.1317 L15.4636,138.8087 C14.7166,138.2657 13.9966,137.7137 13.6886,136.8217 C13.4456,136.1197 13.6876,135.4617 14.3466,135.0067 C13.3696,134.4537 12.6486,133.8097 12.3496,132.9457 C12.0276,132.0117 12.5036,131.2437 13.7186,130.8227 L17.2176,129.6147 C17.5416,129.5037 17.6076,129.2547 17.3506,128.4657 L17.7686,128.3207 L18.7716,131.2247 L18.3526,131.3707 C18.1066,130.6997 17.9336,130.6387 17.6096,130.7507 L14.6106,131.7857 C13.4076,132.2017 13.2196,132.7497 13.4996,133.5597 C13.6576,134.0197 14.0606,134.3957 14.6976,134.7957 C14.8816,134.7157 14.9986,134.6607 15.1196,134.6197 L18.5376,133.4377 C18.8616,133.3257 18.9556,133.1587 18.6986,132.3697 L19.1166,132.2257 L20.0916,135.0477 L19.6736,135.1937 Z" id="Fill-22" fill="#000000"></path>
                <g id="Group-3" transform="translate(0.000000, 0.379000)">
                    <mask id="mask-2" fill="white">
                        <use xlink:href="#path-1"></use>
                    </mask>
                    <g id="Clip-2"></g>
                    <path d="M207.3793,104.3102 C207.3793,161.5762 160.9563,208.0002 103.6893,208.0002 C46.4233,208.0002 0.0003,161.5762 0.0003,104.3102 C0.0003,47.0442 46.4233,0.6202 103.6893,0.6202 C160.9563,0.6202 207.3793,47.0442 207.3793,104.3102" id="Fill-1" fill="#FBED21" mask="url(#mask-2)"></path>
                </g>
                <path d="M17.0954,127.5296 C16.6384,127.6456 16.1704,127.3656 16.0514,126.8946 C15.9354,126.4376 16.2144,125.9686 16.6724,125.8536 C17.1284,125.7386 17.5974,126.0166 17.7124,126.4736 C17.8324,126.9456 17.5534,127.4146 17.0954,127.5296 M12.9824,128.5706 C12.5254,128.6856 12.0574,128.4076 11.9384,127.9356 C11.8224,127.4786 12.1014,127.0096 12.5584,126.8936 C13.0154,126.7786 13.4844,127.0576 13.5994,127.5146 C13.7194,127.9866 13.4404,128.4536 12.9824,128.5706" id="Fill-24" fill="#000000"></path>
                <path d="M13.2439,122.4534 C11.2859,122.7794 9.6079,121.6704 9.3139,119.9084 C9.0659,118.4294 9.7559,117.5314 10.4609,117.4124 C10.9119,117.3384 11.3109,117.5614 11.3849,117.9974 C11.4639,118.4764 11.2139,118.7954 10.7909,118.8654 C10.4099,118.9294 10.0999,118.7194 9.9539,118.5404 C9.7919,118.7844 9.6539,119.2584 9.7449,119.8074 C9.9219,120.8644 10.9369,121.5634 12.7269,121.2654 C14.4039,120.9844 15.3769,119.9534 15.1499,118.5994 C15.0299,117.8824 14.5159,117.3154 13.8859,116.9284 L14.1069,116.6014 C15.0649,117.0514 15.8199,117.6624 16.0309,118.9304 C16.3399,120.7774 15.1189,122.1414 13.2439,122.4534" id="Fill-26" fill="#000000"></path>
                <path d="M11.6643,110.9046 C9.6713,111.0816 8.8013,111.9476 8.9033,113.0866 C9.0023,114.2116 10.0013,114.7976 11.9943,114.6196 C13.9873,114.4426 14.8713,113.5746 14.7703,112.4366 C14.6713,111.3266 13.6573,110.7276 11.6643,110.9046 M12.1403,115.9406 C10.1613,116.1156 8.6273,115.0046 8.4553,113.0536 C8.2773,111.0476 9.5403,109.7586 11.5183,109.5836 C13.5113,109.4066 15.0443,110.5186 15.2163,112.4556 C15.3973,114.4906 14.1323,115.7636 12.1403,115.9406" id="Fill-28" fill="#000000"></path>
                <path d="M14.2995,104.1429 C14.2995,103.4279 14.1585,103.3119 13.8155,103.3039 L10.6425,103.2419 C9.3705,103.2159 9.0035,103.7239 8.9865,104.5809 C8.9735,105.2249 9.2505,105.6589 9.5435,106.0649 L13.7595,106.1479 C14.1025,106.1559 14.2475,106.0579 14.2765,105.3429 L14.7185,105.3529 L14.6575,108.4109 L14.2165,108.4029 C14.2175,107.5729 14.0795,107.3559 13.7365,107.3479 L9.2905,107.2609 C8.8625,107.2519 8.6005,107.4619 8.5705,108.2899 L8.1275,108.2829 L8.1135,106.0659 L9.0995,106.0839 C8.5855,105.3169 8.1005,104.5489 8.1195,103.6069 C8.1335,102.8629 8.5875,102.3289 9.3635,102.1299 C8.6365,101.2719 8.1815,100.4199 8.1995,99.5049 C8.2195,98.5179 8.9305,97.9599 10.2175,97.9869 L13.9185,98.0589 C14.2625,98.0669 14.4095,97.8549 14.4395,97.0249 L14.8825,97.0349 L14.8225,100.1079 L14.3785,100.0979 C14.3795,99.3829 14.2375,99.2659 13.8955,99.2589 L10.7225,99.1969 C9.4505,99.1719 9.0835,99.6219 9.0675,100.4799 C9.0575,100.9659 9.3055,101.4559 9.7655,102.0519 C9.9665,102.0409 10.0945,102.0299 10.2235,102.0329 L13.8395,102.1029 C14.1825,102.1109 14.3275,101.9849 14.3585,101.1569 L14.8015,101.1649 L14.7425,104.1519 L14.2995,104.1429 Z" id="Fill-30" fill="#000000"></path>
                <path d="M12.3923,90.6341 C10.8333,90.4301 9.7403,90.9641 9.6023,92.0131 C9.5023,92.7791 9.8463,93.3421 10.1653,93.7601 L13.7083,94.2241 C14.6343,94.0861 15.0543,93.6381 15.1663,92.7871 C15.2883,91.8521 14.3623,90.8941 12.3923,90.6341 Z M17.3273,96.9631 C17.4073,96.1381 17.3073,95.9081 16.9533,95.8621 L9.8253,94.9251 C9.4003,94.8691 9.1173,95.0491 8.9953,95.8681 L8.5553,95.8111 L8.7873,93.6071 L9.6943,93.7261 C9.2123,92.9991 8.8663,92.3491 8.9813,91.4701 C9.2013,89.7981 10.6243,89.0631 12.4953,89.3091 C14.4353,89.5631 15.8733,90.8041 15.6323,92.6321 C15.5383,93.3561 15.2813,93.8841 14.9413,94.3861 L17.1093,94.6711 C17.4633,94.7181 17.6343,94.4081 17.7963,93.3921 L18.2223,93.4481 L17.7523,97.0181 L17.3273,96.9631 Z" id="Fill-32" fill="#000000"></path>
                <path d="M14.4499,87.6078 L10.8919,86.8158 C10.4599,86.7208 10.3129,86.9208 10.1049,87.7248 L9.6729,87.6278 L10.0929,85.4088 L14.2089,86.3248 C15.4499,86.6008 15.8939,86.1868 16.0989,85.2658 C16.2379,84.6378 16.1219,84.1728 15.9499,83.6958 L11.7929,82.7708 C11.3599,82.6738 11.2039,82.9178 11.0049,83.6788 L10.5719,83.5838 L10.9929,81.3628 L16.5169,82.5908 C16.8669,82.6698 17.0389,82.4878 17.2469,81.6848 L17.6649,81.7788 L17.1839,83.9398 L16.3749,83.7598 C16.7209,84.5708 16.9639,85.4588 16.7589,86.3788 C16.5349,87.3828 15.7059,87.8868 14.4499,87.6078" id="Fill-34" fill="#000000"></path>
                <path d="M16.5564,79.7767 L12.5014,78.5627 L12.1524,79.7267 L11.7684,79.6117 L11.8784,78.3457 L10.1254,77.8217 L9.9694,76.5497 L12.2434,77.2307 L12.8384,75.2447 L13.4134,75.4177 L12.8184,77.4037 L16.7504,78.5817 C17.5034,78.8057 17.9414,78.6397 18.1144,78.0637 C18.2284,77.6797 18.0314,77.2937 17.6734,76.8427 L17.9874,76.5927 C18.7534,77.3747 18.9694,77.9467 18.7074,78.8237 C18.4324,79.7427 17.7064,80.1217 16.5564,79.7767" id="Fill-36" fill="#000000"></path>
                <path d="M16.1272,73.7826 L17.1332,70.8786 C16.0442,70.3206 14.8822,70.4516 14.5232,71.4166 C14.2192,72.2336 14.6132,73.0966 16.1272,73.7826 M16.3162,75.2416 C14.4812,74.5576 13.4942,72.9086 14.1432,71.1676 C14.7962,69.4126 16.6222,69.1786 18.0552,69.8346 L16.5242,73.9456 L16.6042,73.9756 L16.6312,73.9856 C18.1052,74.5356 19.4512,74.1976 19.9392,72.8846 C20.2182,72.1346 19.9602,71.3516 19.5042,70.5716 L19.8582,70.3986 C20.5042,71.2036 21.0082,72.1836 20.5042,73.5376 C19.8052,75.4116 18.0842,75.8986 16.3162,75.2416" id="Fill-38" fill="#000000"></path>
                <path d="M21.3259,69.8978 C21.6569,69.1368 21.6149,68.8828 21.3029,68.7408 L17.2589,66.8998 C16.8689,66.7228 16.5459,66.8108 16.1899,67.5588 L15.7869,67.3758 L16.6529,65.3358 L17.6669,65.7968 C17.3019,65.0828 17.0929,64.2648 17.4009,63.5878 C17.7039,62.9258 18.2949,62.8348 18.7359,63.0358 C19.1529,63.2248 19.3529,63.6458 19.1699,64.0478 C18.9919,64.4388 18.6099,64.6578 18.1679,64.4568 C18.1029,64.4258 18.0309,64.3768 17.9589,64.3308 C17.6659,64.9028 17.8619,65.5418 18.1209,65.9728 L21.8009,67.6498 C22.1129,67.7918 22.3489,67.6158 22.7529,66.7638 L23.1559,66.9478 L21.7289,70.0818 L21.3259,69.8978 Z" id="Fill-40" fill="#000000"></path>
                <polygon id="Fill-42" fill="#000000" points="23.3127 65.1527 26.3167 59.5607 26.8327 59.8377 23.8297 65.4297"></polygon>
                <path d="M24.3269,57.7923 C22.6479,56.7323 22.1359,54.7863 23.0899,53.2763 C23.8899,52.0083 25.0029,51.7983 25.6069,52.1793 C25.9939,52.4233 26.1439,52.8553 25.9069,53.2303 C25.6469,53.6423 25.2489,53.7113 24.8859,53.4813 C24.5599,53.2753 24.4679,52.9133 24.4779,52.6843 C24.1939,52.7573 23.7759,53.0173 23.4789,53.4883 C22.9069,54.3963 23.1979,55.5923 24.7329,56.5623 C26.1709,57.4703 27.5829,57.3483 28.3149,56.1873 C28.7049,55.5713 28.6969,54.8063 28.4859,54.0983 L28.8679,54.0003 C29.2849,54.9753 29.4389,55.9343 28.7519,57.0213 C27.7529,58.6043 25.9339,58.8083 24.3269,57.7923" id="Fill-44" fill="#000000"></path>
                <path d="M30.1091,53.9085 C30.5861,53.2315 30.5961,52.9725 30.3191,52.7715 L26.7311,50.1525 C26.3841,49.8995 26.0501,49.9225 25.5501,50.5825 L25.1921,50.3215 L26.4511,48.4985 L27.3521,49.1565 C27.1391,48.3825 27.0991,47.5395 27.5371,46.9375 C27.9661,46.3495 28.5641,46.3795 28.9571,46.6665 C29.3261,46.9355 29.4381,47.3875 29.1761,47.7465 C28.9241,48.0925 28.5051,48.2285 28.1131,47.9425 C28.0561,47.8995 27.9951,47.8395 27.9341,47.7755 C27.5321,48.2785 27.5951,48.9435 27.7611,49.4185 L31.0271,51.8025 C31.3041,52.0055 31.5711,51.8815 32.1381,51.1285 L32.4961,51.3885 L30.4661,54.1705 L30.1091,53.9085 Z" id="Fill-46" fill="#000000"></path>
                <path d="M35.1931,45.5443 L33.7601,44.3393 C32.7751,46.1993 32.7011,46.7533 33.4231,47.3593 C33.8821,47.7463 34.4541,47.7983 34.9321,47.2303 C35.3001,46.7913 35.3291,46.0703 35.1931,45.5443 M32.8101,48.5993 C32.3731,48.2313 32.0991,47.6473 32.2341,46.9753 C32.4741,45.7583 33.3941,44.3113 33.4001,44.0353 L33.0831,43.7693 C31.9901,42.8503 31.3931,42.8713 30.7951,43.5803 C30.5011,43.9313 30.4251,44.2213 30.4541,44.5643 C30.7141,44.6333 30.9251,44.7353 31.0791,44.8643 C31.4061,45.1413 31.4941,45.5683 31.1811,45.9403 C30.8871,46.2903 30.4481,46.2573 30.1311,45.9903 C29.4971,45.4573 29.7021,44.1923 30.5851,43.1443 C31.5411,42.0063 32.5981,41.7933 33.6471,42.6763 L36.1511,44.7813 C36.6871,45.2333 36.9191,45.2233 37.4391,44.4273 L37.7381,44.6053 C37.5491,45.1183 37.3851,45.4463 37.0901,45.7963 C36.6031,46.3763 36.2691,46.2623 35.6231,45.8313 L35.5871,45.8753 C35.7111,46.7273 35.6131,47.5963 35.0701,48.2413 C34.2981,49.1593 33.4001,49.0963 32.8101,48.5993" id="Fill-48" fill="#000000"></path>
                <path d="M39.5378,38.2425 C38.4218,37.1375 37.2278,36.8995 36.4838,37.6505 C35.9418,38.1995 35.8738,38.8555 35.8768,39.3825 L38.4148,41.8945 C39.2358,42.3455 39.8418,42.2405 40.4448,41.6325 C41.1078,40.9615 40.9498,39.6385 39.5378,38.2425 Z M39.6398,46.2635 C40.2028,45.6545 40.2618,45.4115 40.0078,45.1605 L34.9008,40.1045 C34.5958,39.8035 34.2628,39.7745 33.6688,40.3525 L33.3538,40.0415 L34.8718,38.4275 L35.5218,39.0705 C35.5778,38.2015 35.6958,37.4735 36.3188,36.8435 C37.5048,35.6455 39.0818,35.9205 40.4228,37.2475 C41.8128,38.6245 42.2058,40.4805 40.9108,41.7915 C40.3968,42.3085 39.8738,42.5745 39.2978,42.7685 L40.8518,44.3075 C41.1058,44.5585 41.4288,44.4155 42.1728,43.7035 L42.4768,44.0055 L39.9438,46.5645 L39.6398,46.2635 Z" id="Fill-50" fill="#000000"></path>
                <path d="M43.157,38.8187 C43.78,38.2717 43.862,38.0147 43.641,37.7537 L38.589,31.7887 C38.312,31.4617 37.939,31.4417 37.298,31.9647 L37.011,31.6277 L38.73,30.0957 L41.537,33.4117 C41.784,32.5087 42.124,31.5847 42.845,30.9757 C43.585,30.3477 44.517,30.4757 45.348,31.4567 L47.741,34.2817 C47.962,34.5427 48.218,34.5127 48.86,33.9887 L49.146,34.3267 L46.736,36.3667 L46.45,36.0287 C46.986,35.5557 47.046,35.3177 46.824,35.0557 L44.765,32.6247 C43.943,31.6547 43.34,31.7147 42.686,32.2697 C42.196,32.6857 41.944,33.2737 41.832,33.7607 L44.556,36.9767 C44.778,37.2387 45.012,37.2267 45.566,36.7767 L45.852,37.1147 L43.443,39.1547 L43.157,38.8187 Z" id="Fill-52" fill="#000000"></path>
                <path d="M49.4665,33.6029 C50.1255,33.1009 50.2135,32.8579 50.0095,32.5819 L47.3715,29.0029 C47.1175,28.6589 46.8035,28.5699 46.1275,29.0509 L45.8645,28.6939 L47.6255,27.3249 L50.9765,31.8689 C51.1795,32.1449 51.4255,32.1409 52.1125,31.6529 L52.3755,32.0089 L49.7295,33.9589 L49.4665,33.6029 Z M45.0045,26.2039 C44.7075,25.7999 44.7515,25.3049 45.1425,25.0169 C45.5335,24.7289 46.0025,24.8109 46.2995,25.2119 C46.5955,25.6159 46.5435,26.0979 46.1525,26.3869 C45.7615,26.6749 45.3015,26.6059 45.0045,26.2039 Z" id="Fill-54" fill="#000000"></path>
                <path d="M51.2566,28.8421 C50.1746,27.1761 50.5236,25.1941 52.0216,24.2201 C53.2796,23.4041 54.3786,23.6781 54.7676,24.2771 C55.0166,24.6601 54.9716,25.1161 54.6006,25.3581 C54.1926,25.6211 53.8016,25.5181 53.5686,25.1591 C53.3586,24.8351 53.4256,24.4681 53.5306,24.2621 C53.2416,24.2111 52.7536,24.2731 52.2866,24.5761 C51.3876,25.1591 51.1516,26.3711 52.1396,27.8921 C53.0666,29.3191 54.4006,29.7991 55.5506,29.0521 C56.1626,28.6541 56.4756,27.9571 56.5796,27.2241 L56.9676,27.2951 C56.9386,28.3541 56.6776,29.2901 55.5996,29.9911 C54.0286,31.0121 52.2916,30.4361 51.2566,28.8421" id="Fill-56" fill="#000000"></path>
                <path d="M57.487,26.2279 L57.849,26.0279 C58.925,26.6399 59.845,26.9139 60.57,26.5109 C61.245,26.1349 61.339,25.4799 61.068,24.9929 C60.741,24.4049 60.259,24.3609 58.928,24.6429 C57.458,24.9689 56.765,24.7819 56.328,23.9949 C55.724,22.9069 56.09,21.7389 57.327,21.0519 C57.727,20.8299 58.323,20.6959 58.695,20.7179 L58.739,20.2679 L59.027,20.1089 L59.97,21.8079 L59.608,22.0089 C58.778,21.4569 58.005,21.1829 57.392,21.5229 C56.793,21.8559 56.608,22.4649 56.913,23.0149 C57.197,23.5269 57.768,23.5539 58.927,23.2869 C60.302,22.9639 61.057,23.1179 61.529,23.9669 C62.112,25.0179 61.935,26.2599 60.66,26.9669 C60.198,27.2239 59.437,27.3849 58.988,27.3729 L58.836,27.9809 L58.549,28.1399 L57.487,26.2279 Z" id="Fill-58" fill="#000000"></path>
                <polygon id="Fill-60" fill="#000000" points="66.4099 20.013 66.3879 12.949 67.0299 12.668 66.9999 19.757 67.0159 26.809 66.3749 27.089"></polygon>
                <path d="M78.2805,14.4339 L78.2205,10.5019 C78.2165,10.2939 77.9615,10.3429 77.8905,10.4999 L76.0535,15.1199 L78.2805,14.4339 Z M75.8465,15.7079 L74.6755,18.7019 C74.5025,19.1589 74.3385,19.5979 74.3975,19.7889 C74.4605,19.9949 74.6765,20.0629 74.9765,19.9709 L75.4685,19.8189 C75.5365,19.7969 75.5995,19.8079 75.6065,19.9259 L75.6315,20.2039 C75.6385,20.2749 75.6245,20.3249 75.5285,20.3539 C75.3925,20.3959 74.7915,20.5359 73.7265,20.8649 C72.8245,21.1429 72.3595,21.3299 72.2085,21.3769 C72.1405,21.3989 72.0635,21.3929 72.0565,21.3199 L72.0315,20.9969 C72.0205,20.9119 72.0395,20.8759 72.0935,20.8599 L72.2985,20.7959 C72.8855,20.6149 73.3335,20.0289 73.6445,19.2889 L77.6395,9.7839 C77.6785,9.6669 77.7245,9.6219 77.9805,9.5289 C78.1665,9.4569 78.4685,9.3179 78.5925,9.2359 C78.7305,9.1479 78.9005,9.0209 79.0095,8.9879 C79.1185,8.9539 79.1865,8.9769 79.1885,9.0809 L79.5185,17.2829 C79.5355,17.5329 79.5585,17.8989 79.6265,18.1189 C79.6935,18.3359 79.9765,18.4279 80.2495,18.3439 L80.6185,18.2309 C80.7005,18.2049 80.7545,18.2339 80.7705,18.3329 L80.8045,18.5919 C80.8175,18.6779 80.8015,18.7269 80.6785,18.7659 C80.5145,18.8169 79.9555,18.9429 79.0275,19.2299 C78.0705,19.5249 77.6595,19.6969 77.4415,19.7639 C77.3185,19.8019 77.2745,19.7549 77.2625,19.6699 L77.2375,19.3929 C77.2335,19.3329 77.2435,19.2709 77.3125,19.2499 L77.5725,19.1699 C78.0915,19.0099 78.4165,18.8049 78.3745,17.6969 L78.2785,14.9579 L75.8465,15.7079 Z" id="Fill-62" fill="#000000"></path>
                <path d="M83.0876,9.6947 C83.1716,9.1177 83.0756,8.7727 82.6726,8.8677 L82.2696,8.9627 C82.1716,8.9847 82.1446,8.9327 82.1556,8.8567 L82.1816,8.5877 C82.1896,8.4967 82.2136,8.4767 82.2976,8.4577 L84.0226,8.0517 C84.1476,8.0217 84.2086,8.0957 84.1966,8.2307 L83.0316,16.2697 C82.9816,16.6197 82.8276,17.4637 83.1196,17.3937 C83.3426,17.3417 83.8556,16.6497 83.9796,16.4287 C84.0216,16.3607 84.0526,16.3677 84.1046,16.4007 L84.2966,16.5307 C84.3306,16.5517 84.3586,16.6047 84.3156,16.6737 C84.2726,16.7997 83.2556,18.2877 82.3646,18.4967 C82.1846,18.5397 82.0396,18.4847 81.9646,18.1657 C81.9156,17.9557 82.0576,16.9977 82.1266,16.5417 L83.0876,9.6947 Z" id="Fill-64" fill="#000000"></path>
                <path d="M86.0276,12.39 C85.7586,12.431 85.5496,12.665 85.5916,12.935 C85.6166,13.192 85.7856,13.252 85.9256,13.317 C86.0186,13.36 86.2456,13.426 86.2906,13.709 C86.3296,13.963 86.1926,14.202 85.8256,14.257 C85.5856,14.296 85.1266,14.135 85.0326,13.528 C84.9536,13.02 85.1896,12.577 85.4566,12.16 C85.6076,11.919 86.0156,11.568 86.4536,11.498 L87.4846,11.339 L88.7716,11.053 C88.9526,11.01 89.0716,11.122 88.9286,11.318 C88.5766,11.85 87.6446,14.049 87.8506,15.376 C87.9526,16.041 88.3776,16.351 88.8586,16.276 C89.4936,16.178 90.0466,15.731 90.3576,15.032 C90.5386,14.612 90.6216,13.746 90.6416,13.136 C90.6556,12.569 90.5786,11.887 90.6136,11.361 C90.6716,10.991 90.9096,10.852 91.1786,10.81 C91.4326,10.771 91.5586,10.925 91.5846,11.094 C91.6216,11.335 91.4016,12.25 91.1876,13.384 C91.0966,13.918 91.0046,14.352 91.0616,14.719 C91.1576,15.341 91.8056,15.791 92.4846,15.685 C93.4306,15.538 94.2996,14.332 94.0046,12.426 C93.9666,12.186 93.7916,11.707 93.6586,11.598 C93.5116,11.49 93.1286,11.259 93.0736,10.907 C93.0216,10.568 93.2696,10.297 93.6086,10.244 C93.9476,10.193 94.3496,10.363 94.5406,11.59 C94.6976,12.608 94.5976,14.012 94.0856,15.003 C93.7686,15.573 93.2836,16.458 92.2106,16.624 C91.3486,16.758 90.7136,16.018 90.5826,15.546 C90.3656,15.927 89.5546,17.036 88.4806,17.202 C87.8736,17.297 87.1206,16.921 86.9716,15.961 C86.7756,14.79 87.7916,12.666 88.2516,11.901 L88.1376,11.818 C87.9816,11.928 87.4686,12.166 87.1436,12.217 L86.0276,12.39 Z" id="Fill-66" fill="#000000"></path>
                <path d="M99.5671,12.3724 C99.7411,11.9464 99.8611,11.5804 99.8361,11.1664 C99.8121,10.7824 99.6421,10.3344 99.1141,10.3664 C97.8021,10.4474 96.4611,13.5514 96.5451,14.9074 C96.5651,15.2344 96.7181,15.3964 96.9611,15.3824 C97.6731,15.3384 99.3421,12.9154 99.5671,12.3724 Z M101.2111,9.7794 C101.2681,9.7764 101.2861,9.8464 101.2621,9.9044 C101.0261,10.5064 100.4211,12.5194 100.3631,12.7534 C100.2931,13.0004 99.8031,14.8064 99.8111,14.9344 C99.8191,15.0624 99.8931,15.1014 99.9781,15.0964 C100.1501,15.0854 100.8311,14.2984 100.9231,14.1634 C100.9631,14.1194 101.0041,14.0874 101.0351,14.1284 L101.1731,14.2634 C101.2181,14.3034 101.2341,14.3314 101.2081,14.3754 C101.0681,14.6704 99.9031,15.9584 99.0901,16.0094 C98.9191,16.0204 98.7861,15.9714 98.7751,15.7854 C98.7621,15.5714 98.8781,15.1204 99.3261,13.5754 L99.2531,13.5514 C98.7111,14.5004 97.3641,16.1154 96.3511,16.1784 C96.0231,16.1984 95.5641,15.9544 95.5251,15.3124 C95.3971,13.2294 97.5461,10.0054 99.2861,9.8984 C99.8851,9.8614 100.1711,10.1014 100.3281,10.3214 L100.5751,9.9194 C100.6141,9.8594 100.6541,9.8134 100.7121,9.8104 L101.2111,9.7794 Z" id="Fill-68" fill="#000000"></path>
                <path d="M102.0779,11.849 C102.0499,11.834 102.0349,11.791 102.0649,11.721 C102.1509,11.55 102.9209,9.798 103.7919,9.803 C104.2349,9.807 104.3899,10.164 104.4949,11.423 C104.6269,13.051 104.7159,14.725 104.7379,15.654 L104.7949,15.639 C105.1999,14.998 106.0679,13.305 106.2729,12.62 C106.3459,12.378 106.4919,11.994 106.4959,11.379 C106.4959,11.222 106.4699,10.965 106.4279,10.85 C106.3709,10.721 106.2729,10.521 106.2739,10.334 C106.2749,10.106 106.4059,9.821 106.8629,9.825 C107.2489,9.827 107.4319,10.185 107.4299,10.542 C107.4239,11.471 106.8729,12.667 106.4529,13.564 C105.8139,14.932 104.2979,17.479 103.0459,18.685 C102.6579,19.082 101.7089,19.976 100.8659,19.97 C100.3089,19.966 100.0679,19.622 100.0699,19.293 C100.0729,18.936 100.3889,18.724 100.6449,18.711 C100.8889,18.7 101.0159,18.814 101.1729,18.945 C101.2719,19.031 101.4149,19.117 101.5289,19.118 C101.6719,19.119 101.9149,19.035 102.2029,18.822 C102.9919,18.242 103.5549,17.416 103.7869,16.905 C103.9029,16.633 103.9189,16.32 103.9059,16.105 C103.8809,15.777 103.6349,11.889 103.4829,11.145 C103.4269,10.873 103.3569,10.744 103.2419,10.743 C102.9849,10.741 102.5229,11.581 102.4059,11.895 C102.3769,11.952 102.3199,11.952 102.2769,11.937 L102.0779,11.849 Z" id="Fill-70" fill="#000000"></path>
                <path d="M107.3215,15.141 C107.3335,14.939 107.5355,14.68 107.8345,14.698 C108.1495,14.719 108.3215,14.944 108.3925,15.192 C108.4635,15.439 108.5255,15.6 108.8815,15.621 C109.2955,15.648 109.7035,15.3 109.7345,14.801 C109.7725,14.188 109.3795,13.577 109.2215,13.108 C109.1375,12.859 108.8395,12.34 108.8945,11.684 C108.9455,10.857 109.7865,9.992 110.7995,10.054 C111.2275,10.079 111.8015,10.287 111.7685,10.844 C111.7525,11.101 111.5115,11.286 111.2975,11.273 C111.1265,11.263 110.9185,11.15 110.8335,10.901 C110.7725,10.725 110.7725,10.496 110.4875,10.479 C110.2015,10.461 109.7635,10.821 109.7325,11.334 C109.6995,11.863 110.0915,12.488 110.1645,12.693 C110.2395,12.87 110.6535,13.598 110.6075,14.354 C110.5385,15.466 109.5985,16.082 108.6135,16.022 C107.7855,15.971 107.2925,15.612 107.3215,15.141" id="Fill-72" fill="#000000"></path>
                <path d="M118.4543,8.3158 C118.5103,7.9338 118.8533,7.6518 119.2923,7.7148 C119.7873,7.7878 119.9903,8.1768 119.9433,8.5028 C119.9123,8.7148 119.6713,9.1858 119.0913,9.1018 C118.4683,9.0108 118.4323,8.4708 118.4543,8.3158 M115.4743,16.3048 C115.5213,15.9798 115.8563,15.3638 116.6813,13.8648 L117.2513,12.8218 C117.4483,12.4598 117.6023,12.1928 117.6273,12.0238 C117.6453,11.8968 117.5693,11.8278 117.4553,11.8108 C117.2153,11.7768 116.4393,12.4438 116.1803,12.6378 C116.1163,12.6848 116.0583,12.6778 116.0223,12.6288 L115.9273,12.4848 C115.8773,12.4338 115.8533,12.4028 115.9033,12.3508 C115.9733,12.2748 117.6623,10.7868 118.5613,10.9608 C118.7313,10.9848 118.8853,11.1238 118.8493,11.3628 C118.8123,11.6178 118.4943,12.2218 118.1413,12.8638 L117.0083,14.8948 C116.7343,15.3908 116.6323,15.6928 116.6183,15.7918 C116.5993,15.9188 116.6293,16.0098 116.7393,16.0548 C117.0443,16.0418 117.9243,15.3458 118.0143,15.2288 C118.0483,15.1908 118.1053,15.1988 118.1653,15.2798 L118.2643,15.3948 C118.3103,15.4748 118.3203,15.5038 118.2683,15.5698 C118.1663,15.6698 116.8383,16.8648 115.6633,16.6928 C115.5243,16.6588 115.4423,16.5308 115.4743,16.3048" id="Fill-74" fill="#000000"></path>
                <path d="M119.3327,17.0882 C119.1797,17.0562 119.1567,17.0222 119.2067,16.9302 L120.7427,14.5522 C121.2607,13.7562 121.8647,12.8312 121.9147,12.5942 C121.9437,12.4532 121.9077,12.3452 121.7547,12.3132 C121.4887,12.2562 120.6757,12.7862 120.3827,13.0022 C120.3317,13.0342 120.2907,13.0262 120.2457,12.9582 L120.1457,12.8052 C120.1027,12.7372 120.0947,12.7072 120.1477,12.6592 C120.4107,12.4522 121.6897,11.5092 122.6957,11.7222 C123.0187,11.7902 123.0937,12.0542 123.0557,12.2352 C122.9637,12.6692 122.0837,13.8702 121.9037,14.1682 L121.9547,14.2082 C122.5147,13.6252 124.4297,12.0862 125.6747,12.3492 C126.0937,12.4372 126.3297,12.7052 126.2527,13.0682 C126.1237,13.6842 125.6487,14.3422 124.9487,15.3782 C124.3767,16.2222 123.8767,16.9342 123.8297,17.1582 C123.8117,17.2412 123.8477,17.3512 123.9597,17.3742 C124.1687,17.4202 124.8937,17.0312 125.1157,16.8742 C125.1817,16.8442 125.2337,16.8682 125.2647,16.9352 L125.3387,17.0672 C125.3827,17.1352 125.3907,17.1652 125.3197,17.2232 C125.1047,17.4112 123.7637,18.1662 122.8277,17.9692 C122.6457,17.9322 122.5057,17.8282 122.5507,17.6182 C122.6057,17.3542 123.3427,16.3542 124.0287,15.2422 C124.3387,14.7392 125.0867,13.6852 125.1517,13.3772 C125.1927,13.1822 125.1207,13.0352 124.8697,12.9822 C124.3237,12.8672 122.6687,13.8622 121.8447,14.7262 C121.5077,15.0772 121.2077,15.3942 120.6387,16.2962 L120.0917,17.1592 C120.0517,17.2102 120.0187,17.2322 119.8787,17.2022 L119.3327,17.0882 Z" id="Fill-76" fill="#000000"></path>
                <path d="M134.9529,12.6634 C135.0619,12.5364 135.1669,12.3784 135.2119,12.2584 C135.3069,12.0034 135.0449,11.7674 134.6559,11.6224 L134.1749,11.4424 C134.0539,11.3964 134.0209,11.3244 134.0639,11.2484 L134.2029,11.0404 C134.2649,10.9584 134.3069,10.9274 134.3999,10.9624 C134.5339,11.0134 135.0679,11.2584 137.0079,11.9834 C137.2219,12.0634 137.2189,12.1534 137.1609,12.3924 L135.3849,19.0954 C135.2939,19.4574 135.4149,19.5034 135.6789,19.3274 L142.8949,14.4304 C143.0389,14.3324 143.1489,14.2804 143.3239,14.3474 C144.8089,14.9024 145.2519,15.0224 145.4259,15.0874 C145.5199,15.1224 145.5449,15.1784 145.5059,15.2404 L145.3479,15.5004 C145.3039,15.5754 145.2669,15.5934 145.1739,15.5584 L144.7729,15.4074 C144.4519,15.2874 144.1519,15.5564 143.7199,16.1424 L139.6609,21.7314 C139.2979,22.2524 139.4029,22.5814 139.7509,22.7114 L140.1659,22.8664 C140.2459,22.8964 140.2579,22.9474 140.2199,23.0094 L140.0609,23.2694 C140.0179,23.3454 139.9949,23.3674 139.8599,23.3164 C139.6999,23.2574 139.2729,23.0524 138.3239,22.6954 C137.2399,22.2904 136.7029,22.1354 136.5689,22.0854 C136.4489,22.0404 136.4499,21.9954 136.4989,21.9054 L136.6109,21.6884 C136.6539,21.6134 136.6999,21.5694 136.8069,21.6104 L137.1559,21.7404 C137.8249,21.9904 138.2459,21.7214 138.6219,21.2054 L142.8329,15.4144 C142.9659,15.2204 142.7919,15.1544 142.6489,15.2524 L134.2639,20.9484 C133.9529,21.1674 133.6449,21.0524 133.7639,20.6544 L135.8189,12.8354 C135.8879,12.5704 135.7669,12.5264 135.6299,12.6874 L131.0079,18.3564 C130.4499,19.0334 130.6529,19.3074 130.9469,19.4184 L131.4149,19.5934 C131.5089,19.6284 131.5069,19.6734 131.4589,19.7624 L131.3239,20.0004 C131.2849,20.0624 131.2299,20.0884 131.1229,20.0484 C130.9749,19.9924 130.5759,19.7974 129.7599,19.4914 C129.0099,19.2114 128.5939,19.1014 128.4469,19.0464 C128.3799,19.0224 128.3679,18.9724 128.4069,18.9104 L128.5649,18.6484 C128.6079,18.5724 128.6319,18.5524 128.6989,18.5774 L128.9669,18.6774 C129.6889,18.9474 130.0079,18.6244 130.3959,18.1584 L134.9529,12.6634 Z" id="Fill-78" fill="#000000"></path>
                <path d="M147.1609,21.9828 C147.3709,21.5928 147.2999,21.1588 146.8779,20.9478 C146.3399,20.6798 145.4199,20.8308 144.2649,21.5478 C143.4859,22.0218 142.7899,22.6498 142.4909,23.2518 C142.2869,23.6608 142.4479,24.0448 142.7539,24.1968 C144.0859,24.8598 146.7409,22.8278 147.1609,21.9828 M142.1449,22.5998 C142.9469,20.9878 145.2509,19.4048 146.9529,20.2508 C147.8099,20.6778 148.0109,21.5598 147.5769,22.4298 C146.8769,23.8368 144.4969,25.8308 142.6409,24.9078 C141.9369,24.5558 141.6609,23.5728 142.1449,22.5998" id="Fill-80" fill="#000000"></path>
                <path d="M150.3777,23.1624 L149.5077,22.6684 C149.4337,22.6264 149.4227,22.5864 149.4897,22.5264 L149.7447,22.3084 C149.8057,22.2604 149.8567,22.2574 149.9307,22.2994 L150.8257,22.8084 L152.2917,21.7354 C152.4237,21.6454 152.4757,21.6424 152.5957,21.6614 C152.7537,21.7024 153.1477,21.7624 153.2737,21.7684 C153.3697,21.7734 153.4537,21.7714 153.5027,21.7994 C153.5777,21.8424 153.5607,21.9304 153.3747,22.0564 L151.6077,23.2534 L152.8747,23.9734 C152.9367,24.0104 152.9407,24.0604 152.8467,24.1394 L152.5867,24.3364 C152.5527,24.3664 152.4897,24.3624 152.4397,24.3344 L151.1717,23.6134 L148.3777,25.7244 C148.0307,25.9864 147.7177,26.2194 147.6407,26.3564 C147.5627,26.4934 147.5697,26.5964 147.6817,26.6604 C148.0427,26.8644 149.2527,26.6154 149.3767,26.5714 C149.4417,26.5424 149.4717,26.5754 149.4877,26.6354 L149.5397,26.8604 C149.5557,26.9194 149.5417,26.9444 149.4887,26.9794 C149.2137,27.0864 147.4727,27.4614 146.5167,26.9164 C146.2057,26.7404 146.1897,26.5664 146.2877,26.3924 C146.3947,26.2054 146.5767,26.0304 146.7567,25.8874 L150.3777,23.1624 Z" id="Fill-82" fill="#000000"></path>
                <path d="M156.4719,22.7435 C156.6779,22.4185 157.1079,22.3015 157.4829,22.5385 C157.9059,22.8055 157.9319,23.2445 157.7559,23.5225 C157.6409,23.7035 157.2279,24.0355 156.7329,23.7225 C156.2009,23.3855 156.3879,22.8775 156.4719,22.7435 M150.4929,28.8275 C150.6689,28.5505 151.2249,28.1235 152.5889,27.0905 L153.5349,26.3695 C153.8629,26.1195 154.1129,25.9395 154.2039,25.7945 C154.2729,25.6855 154.2309,25.5925 154.1349,25.5305 C153.9299,25.3995 152.9479,25.6935 152.6329,25.7645 C152.5539,25.7825 152.5049,25.7525 152.4919,25.6935 L152.4639,25.5215 C152.4389,25.4565 152.4299,25.4165 152.4969,25.3915 C152.5909,25.3485 154.7409,24.6795 155.4919,25.2055 C155.6369,25.2955 155.7209,25.4845 155.5909,25.6895 C155.4529,25.9065 154.9159,26.3285 154.3309,26.7705 L152.4679,28.1655 C152.0159,28.5055 151.7999,28.7395 151.7459,28.8245 C151.6779,28.9335 151.6679,29.0295 151.7489,29.1145 C152.0329,29.2265 153.1209,28.9495 153.2509,28.8795 C153.2979,28.8585 153.3469,28.8895 153.3689,28.9885 L153.4119,29.1355 C153.4219,29.2245 153.4189,29.2565 153.3449,29.2945 C153.2109,29.3455 151.5099,29.8925 150.5069,29.2595 C150.3929,29.1715 150.3699,29.0215 150.4929,28.8275" id="Fill-84" fill="#000000"></path>
                <path d="M159.4773,29.7474 C159.7463,29.3944 159.7433,28.9544 159.3583,28.6824 C158.8693,28.3334 157.9363,28.3384 156.6843,28.8674 C155.8403,29.2154 155.0563,29.7274 154.6673,30.2754 C154.4033,30.6484 154.5023,31.0524 154.7823,31.2504 C155.9933,32.1114 158.9313,30.5174 159.4773,29.7474 M154.4263,29.5784 C155.4693,28.1104 157.9913,26.9044 159.5403,28.0054 C160.3223,28.5594 160.3813,29.4624 159.8193,30.2534 C158.9093,31.5344 156.2483,33.1334 154.5593,31.9344 C153.9183,31.4784 153.7973,30.4634 154.4263,29.5784" id="Fill-86" fill="#000000"></path>
                <path d="M158.1511,34.3529 C158.0301,34.2519 158.0261,34.2119 158.1121,34.1539 L160.5751,32.7559 C161.4041,32.2899 162.3661,31.7499 162.5211,31.5629 C162.6121,31.4519 162.6311,31.3389 162.5091,31.2389 C162.3001,31.0659 161.3351,31.1599 160.9751,31.2149 C160.9141,31.2199 160.8811,31.1929 160.8731,31.1139 L160.8551,30.9319 C160.8481,30.8519 160.8541,30.8199 160.9241,30.8029 C161.2531,30.7409 162.8241,30.4979 163.6181,31.1509 C163.8721,31.3599 163.8171,31.6289 163.6991,31.7729 C163.4171,32.1159 162.0801,32.7729 161.7831,32.9549 L161.8081,33.0109 C162.5761,32.7549 164.9861,32.2779 165.9681,33.0859 C166.2991,33.3579 166.3841,33.7059 166.1481,33.9939 C165.7481,34.4779 165.0221,34.8429 163.9221,35.4369 C163.0251,35.9199 162.2521,36.3209 162.1061,36.4969 C162.0511,36.5629 162.0321,36.6769 162.1201,36.7489 C162.2861,36.8849 163.1071,36.8769 163.3781,36.8399 C163.4491,36.8429 163.4841,36.8909 163.4811,36.9629 L163.4851,37.1149 C163.4931,37.1939 163.4861,37.2249 163.3971,37.2439 C163.1201,37.3119 161.5811,37.3599 160.8411,36.7509 C160.6981,36.6339 160.6221,36.4789 160.7581,36.3129 C160.9301,36.1029 162.0461,35.5579 163.1691,34.8909 C163.6771,34.5879 164.8281,33.9989 165.0281,33.7559 C165.1561,33.6009 165.1601,33.4389 164.9621,33.2759 C164.5301,32.9209 162.6031,33.0379 161.4731,33.4199 C161.0111,33.5779 160.5981,33.7189 159.6751,34.2549 L158.7911,34.7669 C158.7331,34.7929 158.6921,34.7969 158.5821,34.7059 L158.1511,34.3529 Z" id="Fill-88" fill="#000000"></path>
                <polygon id="Fill-90" fill="#000000" points="169.3464 39.5335 175.9314 36.9635 176.4244 37.4615 169.7994 39.9915 163.2234 42.5525 162.7314 42.0545"></polygon>
                <path d="M177.4822,48.1156 L179.6552,44.7526 L179.6192,44.7076 L175.7422,45.9026 L177.4822,48.1156 Z M177.1922,48.5786 L175.2132,46.0616 L173.7772,46.5026 C172.3942,46.9166 172.3042,47.0786 172.9152,48.1786 L172.5892,48.4356 L170.6722,45.9976 L170.9982,45.7416 C171.7562,46.3836 172.3892,46.2846 173.6552,45.9066 L181.0462,43.7486 L181.4442,44.2536 L176.9722,51.4436 C176.5692,52.0876 176.4992,52.5066 177.0402,53.4256 L176.7142,53.6796 L174.1082,50.3676 L174.4342,50.1106 C175.2592,51.0446 175.6142,51.0556 176.0412,50.3746 L177.1922,48.5786 Z" id="Fill-92" fill="#000000"></path>
                <path d="M177.072,53.5423 C177.531,54.2333 177.767,54.3383 178.056,54.1523 L181.803,51.7563 C182.165,51.5243 182.266,51.2053 181.832,50.4993 L182.205,50.2603 L183.447,52.0973 L182.616,52.6283 C183.47,52.9813 184.37,53.4593 184.878,54.2553 C185.41,55.0863 185.158,55.9933 184.074,56.6883 L180.953,58.6823 C180.664,58.8663 180.652,59.1133 181.094,59.8323 L180.72,60.0693 L179.018,57.4073 L179.391,57.1693 C179.797,57.7753 180.017,57.8553 180.306,57.6703 L182.993,55.9523 C184.065,55.2663 184.085,54.6593 183.622,53.9383 C183.276,53.3963 182.726,53.0663 182.258,52.8913 L178.704,55.1643 C178.414,55.3493 178.394,55.5823 178.767,56.1923 L178.394,56.4323 L176.699,53.7813 L177.072,53.5423 Z" id="Fill-94" fill="#000000"></path>
                <path d="M189.3264,57.0736 C189.7654,56.8326 190.2494,56.9436 190.4824,57.3706 C190.7154,57.7976 190.5724,58.2496 190.1324,58.4896 C189.6934,58.7286 189.2224,58.6126 188.9894,58.1856 C188.7564,57.7596 188.8884,57.3126 189.3264,57.0736 Z M181.3904,60.4966 C181.8004,61.2176 182.0294,61.3376 182.3304,61.1736 L186.2314,59.0406 C186.6074,58.8366 186.7384,58.5366 186.3524,57.8026 L186.7424,57.5896 L187.8614,59.5196 L182.9064,62.2256 C182.6054,62.3896 182.5754,62.6356 182.9674,63.3826 L182.5784,63.5946 L181.0024,60.7096 L181.3904,60.4966 Z" id="Fill-96" fill="#000000"></path>
                <path d="M185.1335,67.8665 C185.4305,68.5155 185.6075,68.5645 185.9225,68.4285 L188.8345,67.1645 C190.0015,66.6565 190.1255,66.0435 189.7835,65.2555 C189.5275,64.6665 189.0945,64.3875 188.6595,64.1375 L184.7895,65.8175 C184.4745,65.9545 184.3835,66.1035 184.6545,66.7635 L184.2485,66.9405 L183.0295,64.1345 L183.4365,63.9575 C183.7795,64.7135 183.9965,64.8515 184.3115,64.7155 L188.3915,62.9445 C188.7845,62.7735 188.9355,62.4745 188.6185,61.7095 L189.0255,61.5325 L189.9605,63.5435 L189.0545,63.9355 C189.8415,64.4195 190.6025,64.9175 190.9785,65.7825 C191.2745,66.4635 191.0835,67.1385 190.4605,67.6435 C191.4795,68.1215 192.2475,68.7075 192.6125,69.5465 C193.0045,70.4515 192.5895,71.2565 191.4085,71.7675 L188.0115,73.2425 C187.6965,73.3795 187.6515,73.6335 187.9675,74.3985 L187.5615,74.5755 L186.3375,71.7555 L186.7435,71.5785 C187.0425,72.2285 187.2185,72.2755 187.5335,72.1405 L190.4455,70.8765 C191.6125,70.3695 191.7595,69.8085 191.4175,69.0205 C191.2235,68.5755 190.7935,68.2305 190.1275,67.8815 C189.9495,67.9735 189.8375,68.0375 189.7185,68.0905 L186.4005,69.5305 C186.0855,69.6665 186.0055,69.8415 186.3225,70.6075 L185.9165,70.7845 L184.7265,68.0435 L185.1335,67.8665 Z" id="Fill-98" fill="#000000"></path>
                <path d="M190.2888,78.4876 L192.0748,77.9256 C191.0348,76.0946 190.6068,75.7356 189.7068,76.0186 C189.1348,76.1986 188.7838,76.6526 189.0058,77.3616 C189.1778,77.9076 189.7718,78.3206 190.2888,78.4876 M188.9908,74.8356 C189.5358,74.6636 190.1768,74.7476 190.6698,75.2216 C191.5678,76.0776 192.2968,77.6316 192.5238,77.7846 L192.9198,77.6596 C194.2828,77.2316 194.5858,76.7166 194.3068,75.8306 C194.1688,75.3936 193.9658,75.1746 193.6608,75.0146 C193.4628,75.1976 193.2628,75.3196 193.0718,75.3806 C192.6628,75.5086 192.2538,75.3526 192.1078,74.8886 C191.9718,74.4536 192.2348,74.1006 192.6298,73.9766 C193.4208,73.7276 194.3778,74.5806 194.7888,75.8886 C195.2348,77.3056 194.8478,78.3116 193.5388,78.7236 L190.4168,79.7056 C189.7488,79.9156 189.6318,80.1166 190.0238,80.9806 L189.7148,81.1386 C189.3828,80.7036 189.1938,80.3886 189.0568,79.9536 C188.8298,79.2306 189.1038,79.0086 189.8148,78.6956 L189.7978,78.6406 C189.0128,78.2886 188.3308,77.7406 188.0778,76.9346 C187.7178,75.7906 188.2548,75.0676 188.9908,74.8356" id="Fill-100" fill="#000000"></path>
                <path d="M191.4236,82.1361 L195.5346,81.1331 L195.2456,79.9521 L195.6356,79.8591 L196.1796,81.0051 L197.9576,80.5731 L198.7356,81.5881 L196.4296,82.1511 L196.9216,84.1641 L196.3376,84.3071 L195.8466,82.2931 L191.8606,83.2651 C191.0966,83.4511 190.8026,83.8181 190.9456,84.4011 C191.0406,84.7901 191.4056,85.0241 191.9426,85.2321 L191.7986,85.6051 C190.7426,85.3191 190.2666,84.9341 190.0496,84.0451 C189.8226,83.1151 190.2566,82.4211 191.4236,82.1361" id="Fill-102" fill="#000000"></path>
                <path d="M199.7849,85.6527 C200.2779,85.5607 200.7019,85.8187 200.7889,86.2977 C200.8769,86.7747 200.5979,87.1607 200.1059,87.2497 C199.6129,87.3397 199.2029,87.0807 199.1159,86.6027 C199.0279,86.1237 199.2929,85.7427 199.7849,85.6527 Z M191.1729,86.4097 C191.3359,87.2227 191.5149,87.4077 191.8529,87.3457 L196.2279,86.5487 C196.6489,86.4707 196.8669,86.2277 196.7319,85.4097 L197.1679,85.3297 L197.6249,87.5137 L192.0679,88.5287 C191.7299,88.5907 191.6259,88.8127 191.7639,89.6437 L191.3269,89.7237 L190.7369,86.4887 L191.1729,86.4097 Z" id="Fill-104" fill="#000000"></path>
                <path d="M195.4006,95.0941 C197.3846,94.8451 198.2236,93.9481 198.0806,92.8141 C197.9406,91.6941 196.9206,91.1451 194.9356,91.3941 C192.9506,91.6441 192.0996,92.5421 192.2416,93.6761 C192.3806,94.7821 193.4156,95.3441 195.4006,95.0941 M194.7416,90.0781 C196.7126,89.8321 198.2856,90.8871 198.5286,92.8291 C198.7796,94.8281 197.5656,96.1611 195.5946,96.4091 C193.6086,96.6581 192.0366,95.6031 191.7956,93.6751 C191.5406,91.6471 192.7566,90.3271 194.7416,90.0781" id="Fill-106" fill="#000000"></path>
                <path d="M192.8459,97.7523 C192.8919,98.5803 193.0439,98.7883 193.3869,98.7753 L197.8279,98.6033 C198.2559,98.5853 198.5049,98.3623 198.4869,97.5333 L198.9289,97.5163 L199.0729,99.7273 L198.0879,99.7663 C198.6459,100.5023 199.1789,101.3673 199.2169,102.3103 C199.2549,103.2943 198.5799,103.9503 197.2939,104.0003 L193.5959,104.1453 C193.2529,104.1583 193.1169,104.3633 193.1359,105.2073 L192.6929,105.2243 L192.5709,102.0683 L193.0129,102.0523 C193.0549,102.7783 193.2059,102.9583 193.5489,102.9453 L196.7329,102.8203 C198.0049,102.7723 198.3269,102.2593 198.2939,101.4023 C198.2689,100.7593 197.9619,100.1983 197.6459,99.8113 L193.4329,99.9753 C193.0909,99.9883 192.9549,100.1803 192.9689,100.8943 L192.5259,100.9113 L192.4029,97.7703 L192.8459,97.7523 Z" id="Fill-108" fill="#000000"></path>
                <path d="M197.198,108.8841 C200.06,109.1391 202.037,111.4411 201.797,114.1321 C201.708,115.1151 201.295,115.8961 200.934,116.3951 L201.511,116.8491 L201.471,117.2891 L198.395,117.0161 L198.433,116.5881 C200.096,116.1341 201.172,115.3401 201.297,113.9451 C201.443,112.3071 200.023,110.6871 197.118,110.4281 C194.355,110.1811 192.844,111.8401 192.701,113.4351 C192.557,115.0431 193.462,116.0151 194.607,116.6771 L194.338,117.1251 C193.066,116.4241 191.808,115.0771 191.993,112.9981 C192.233,110.3211 194.308,108.6251 197.198,108.8841" id="Fill-110" fill="#000000"></path>
                <path d="M194.0237,123.2943 C195.9917,123.6573 197.0617,123.0573 197.2697,121.9323 C197.4747,120.8213 196.6697,119.9903 194.7027,119.6263 C192.7347,119.2623 191.6497,119.8593 191.4417,120.9843 C191.2397,122.0803 192.0567,122.9303 194.0237,123.2943 M194.9167,118.3153 C196.8697,118.6743 198.0487,120.1573 197.6917,122.0823 C197.3257,124.0653 195.7627,124.9673 193.8097,124.6063 C191.8417,124.2423 190.6637,122.7593 191.0167,120.8483 C191.3887,118.8383 192.9487,117.9483 194.9167,118.3153" id="Fill-112" fill="#000000"></path>
                <path d="M189.6579,129.1019 C189.4659,129.7899 189.5689,129.9419 189.8979,130.0389 L192.9369,130.9549 C194.1549,131.3219 194.6449,130.9319 194.8919,130.1109 C195.0779,129.4949 194.9289,129.0009 194.7559,128.5319 L190.7189,127.3159 C190.3899,127.2169 190.2229,127.2719 190.0039,127.9519 L189.5799,127.8249 L190.4619,124.8959 L190.8859,125.0239 C190.6609,125.8209 190.7359,126.0679 191.0639,126.1659 L195.3209,127.4489 C195.7319,127.5719 196.0399,127.4399 196.2919,126.6509 L196.7169,126.7789 L196.1329,128.9159 L195.1889,128.6319 C195.4759,129.5099 195.7369,130.3789 195.4649,131.2829 C195.2499,131.9949 194.6699,132.3869 193.8689,132.3709 C194.3369,133.3929 194.5459,134.3359 194.2829,135.2109 C193.9979,136.1559 193.1629,136.5009 191.9309,136.1309 L188.3859,135.0629 C188.0569,134.9629 187.8589,135.1279 187.6059,135.9179 L187.1819,135.7909 L188.0679,132.8469 L188.4909,132.9759 C188.2999,133.6639 188.4029,133.8149 188.7319,133.9139 L191.7709,134.8289 C192.9889,135.1959 193.4629,134.8599 193.7099,134.0389 C193.8499,133.5739 193.7439,133.0339 193.4609,132.3359 C193.2649,132.2919 193.1379,132.2689 193.0149,132.2329 L189.5529,131.1899 C189.2229,131.0909 189.0499,131.1729 188.7969,131.9619 L188.3729,131.8339 L189.2339,128.9749 L189.6579,129.1019 Z" id="Fill-114" fill="#000000"></path>
                <path d="M187.862,142.639 C189.309,143.253 190.506,143.033 190.92,142.059 C191.222,141.349 191.042,140.713 190.845,140.225 L187.556,138.826 C186.627,138.709 186.102,139.031 185.766,139.82 C185.397,140.689 186.033,141.861 187.862,142.639 Z M184.804,135.216 C184.506,135.991 184.54,136.238 184.869,136.378 L191.486,139.192 C191.881,139.361 192.202,139.264 192.54,138.507 L192.947,138.68 L192.133,140.742 L191.291,140.383 C191.559,141.212 191.719,141.934 191.372,142.748 C190.713,144.301 189.144,144.628 187.407,143.889 C185.604,143.122 184.552,141.541 185.275,139.845 C185.56,139.174 185.949,138.734 186.412,138.339 L184.399,137.483 C184.07,137.343 183.823,137.596 183.394,138.531 L182.999,138.364 L184.409,135.048 L184.804,135.216 Z" id="Fill-116" fill="#000000"></path>
                <path d="M183.3225,147.6126 L184.9815,148.4826 C185.5455,146.4536 185.4975,145.8946 184.6625,145.4576 C184.1315,145.1776 183.5595,145.2506 183.2145,145.9076 C182.9485,146.4156 183.0755,147.1276 183.3225,147.6126 M184.9955,144.1136 C185.5025,144.3796 185.8955,144.8926 185.9075,145.5766 C185.9345,146.8186 185.3475,148.4316 185.3995,148.7016 L185.7665,148.8946 C187.0325,149.5576 187.6115,149.4096 188.0435,148.5866 C188.2565,148.1816 188.2685,147.8816 188.1655,147.5526 C187.8975,147.5416 187.6675,147.4856 187.4905,147.3916 C187.1115,147.1936 186.9335,146.7936 187.1585,146.3626 C187.3715,145.9566 187.8075,145.8946 188.1745,146.0886 C188.9095,146.4736 188.9805,147.7546 188.3425,148.9686 C187.6525,150.2866 186.6645,150.7216 185.4485,150.0836 L182.5485,148.5636 C181.9285,148.2376 181.7035,148.2976 181.3665,149.1856 L181.0355,149.0786 C181.1105,148.5356 181.1995,148.1776 181.4125,147.7736 C181.7655,147.1016 182.1155,147.1406 182.8395,147.4246 L182.8665,147.3726 C182.5625,146.5676 182.4705,145.6956 182.8625,144.9486 C183.4205,143.8846 184.3125,143.7556 184.9955,144.1136" id="Fill-118" fill="#000000"></path>
                <path d="M181.0564,149.5101 C180.6244,150.2191 180.6304,150.4771 180.9204,150.6591 L184.6744,153.0431 C185.0374,153.2741 185.3694,153.2311 185.8264,152.5361 L186.2004,152.7751 L185.0614,154.6771 L184.2274,154.1481 C184.2684,155.0711 184.2164,156.0881 183.7104,156.8851 C183.1814,157.7181 182.2524,157.8741 181.1664,157.1841 L178.0384,155.2001 C177.7494,155.0161 177.5214,155.1081 177.0564,155.8141 L176.6824,155.5761 L178.3754,152.9061 L178.7504,153.1451 C178.3714,153.7681 178.3924,154.0011 178.6824,154.1861 L181.3754,155.8941 C182.4504,156.5761 183.0074,156.3381 183.4674,155.6141 C183.8114,155.0701 183.8764,154.4331 183.8384,153.9341 L180.2764,151.6741 C179.9874,151.4901 179.7664,151.5711 179.3714,152.1661 L178.9964,151.9291 L180.6824,149.2731 L181.0564,149.5101 Z" id="Fill-120" fill="#000000"></path>
                <path d="M180.2449,159.5355 C180.9309,159.6965 181.1819,159.6705 181.6009,159.2345 L181.9319,159.4845 L179.9839,162.0635 L179.6529,161.8135 C180.1619,161.0685 180.0859,160.7425 179.6319,160.6325 L175.5259,159.5905 L177.3309,162.6565 C177.7999,163.4595 178.1059,163.6005 178.8259,162.9085 L179.1569,163.1585 L177.5709,165.2585 L177.2399,165.0075 C177.4619,164.6195 177.4839,164.1155 177.0819,163.4365 L173.9899,158.0895 C173.0149,156.4385 173.0749,155.5525 173.5579,154.9135 C174.0149,154.3085 174.6269,154.2325 175.0489,154.5535 C175.4139,154.8285 175.5699,155.2875 175.2679,155.6855 C175.0099,156.0285 174.5259,156.0745 174.1829,155.8165 C174.0919,155.7485 173.9609,155.6125 173.9049,155.4985 C173.6119,155.8865 173.7289,156.5145 174.6279,158.0525 L174.7219,158.2125 L180.2449,159.5355 Z" id="Fill-122" fill="#000000"></path>
                <polygon id="Fill-124" fill="#000000" points="175.8215 173.0335 174.7615 174.0955 168.3895 167.7395 165.3125 170.8255 164.3005 169.8155 168.4375 165.6685"></polygon>
                <polygon id="Fill-126" fill="#000000" points="159.3357 174.1058 158.6837 173.3478 163.3377 169.3378 163.9897 170.0958"></polygon>
                <path d="M159.385,179.2523 L157.036,180.9523 L160.717,183.5793 L159.385,179.2523 Z M162.525,184.7383 L161.252,185.6583 L152.247,179.3043 L153.462,178.4243 L155.805,180.0803 L158.941,177.8113 L158.092,175.0763 L159.306,174.1973 L162.525,184.7383 Z" id="Fill-128" fill="#000000"></path>
                <polygon id="Fill-130" fill="#000000" points="148.1804 181.0638 149.0594 180.5858 148.9794 193.6378 148.0994 194.1158"></polygon>
                <polygon id="Fill-132" fill="#000000" points="137.0984 198.2679 135.7104 198.7979 131.9874 189.0559 133.5224 188.4699 140.4764 194.2229 137.6724 186.8839 139.0604 186.3529 142.7834 196.0949 141.2474 196.6809 134.3444 191.0619"></polygon>
                <polygon id="Fill-134" fill="#000000" points="125.1819 191.0072 124.9069 190.0452 130.8199 188.3582 131.0949 189.3212"></polygon>
                <polygon id="Fill-136" fill="#000000" points="125.7922 201.5374 122.9092 198.3414 121.6132 202.4384 119.9912 202.7884 121.8382 196.9764 120.7532 191.9454 122.2352 191.6254 123.3202 196.6584 127.4002 201.1894"></polygon>
                <polygon id="Fill-138" fill="#000000" points="112.0168 196.7933 109.8008 203.5023 109.1028 203.5633 111.3768 196.8503 113.5938 190.1533 114.2918 190.0923"></polygon>
                <path d="M99.0388,199.6204 L100.3888,199.6764 L100.7758,197.6214 L99.4268,197.5674 L99.0388,199.6204 Z M99.5588,196.6394 L100.9148,196.6924 L101.4668,193.5934 L102.5468,193.6374 L101.9738,196.7354 L103.2638,196.7874 L103.2258,197.7224 L101.8558,197.6664 L101.4688,199.7194 L102.7368,199.7704 L102.6998,200.7034 L101.3358,200.6474 L100.7778,203.7474 L99.7048,203.7044 L100.2558,200.6034 L98.8998,200.5504 L98.3488,203.6494 L97.2678,203.6054 L97.8408,200.5064 L96.5518,200.4534 L96.5888,199.5204 L97.9908,199.5784 L98.3888,197.5254 L97.0778,197.4724 L97.1158,196.5394 L98.4788,196.5954 L99.0368,193.4934 L100.1318,193.5394 L99.5588,196.6394 Z" id="Fill-140" fill="#000000"></path>
                <path d="M90.5608,193.8675 C90.9068,193.5435 91.2978,193.2925 91.7358,193.1135 C92.1748,192.9265 92.6648,192.8585 93.2088,192.9105 C94.0308,193.0055 94.7198,193.3755 95.2748,194.0255 C95.8528,194.6765 96.0778,195.6495 95.9478,196.9465 C95.7798,198.2525 95.3408,199.1615 94.6298,199.6765 C93.9418,200.1815 93.1868,200.3845 92.3648,200.2815 C91.8248,200.2105 91.3618,200.0405 90.9748,199.7715 C90.5888,199.4995 90.2668,199.1565 90.0048,198.7445 L91.1468,197.9135 C91.4458,198.4405 91.8888,198.7475 92.4778,198.8335 C93.6668,198.9885 94.3568,198.3045 94.5478,196.7865 C94.7028,195.2735 94.1838,194.4595 92.9898,194.3465 C92.3968,194.2885 91.8968,194.4845 91.4868,194.9365 L90.5608,193.8675 Z" id="Fill-142" fill="#000000"></path>
                <polygon id="Fill-144" fill="#000000" points="90.8044 191.6634 84.0044 190.3704 84.1374 189.6724 90.9364 190.9654"></polygon>
                <path d="M77.5964,190.9642 C77.9864,190.6952 78.4104,190.5042 78.8704,190.3932 C79.3314,190.2732 79.8274,190.2792 80.3564,190.4102 C81.1564,190.6252 81.7834,191.0942 82.2364,191.8182 C82.7114,192.5482 82.7894,193.5432 82.4694,194.8072 C82.1104,196.0732 81.5414,196.9082 80.7624,197.3112 C80.0074,197.7102 79.2304,197.7982 78.4324,197.5742 C77.9084,197.4252 77.4754,197.1892 77.1334,196.8662 C76.7914,196.5382 76.5224,196.1512 76.3254,195.7042 L77.5784,195.0532 C77.7954,195.6192 78.1884,195.9872 78.7584,196.1602 C79.9104,196.4882 80.6954,195.9152 81.1084,194.4422 C81.4854,192.9672 81.0924,192.0862 79.9284,191.7982 C79.3514,191.6532 78.8264,191.7732 78.3544,192.1592 L77.5964,190.9642 Z" id="Fill-146" fill="#000000"></path>
                <polygon id="Fill-148" fill="#000000" points="78.157 188.8187 71.623 186.5357 71.857 185.8657 78.391 188.1477"></polygon>
                <path d="M67.5466,193.8011 L66.2456,193.2601 L69.0256,186.5721 L70.3266,187.1121 L67.5466,193.8011 Z M66.4216,196.5081 L65.1206,195.9671 L65.6776,194.6271 L66.9786,195.1661 L66.4216,196.5081 Z" id="Fill-150" fill="#000000"></path>
                <path d="M64.1404,192.3841 L62.8744,191.7661 L63.2114,191.0761 L63.1874,191.0651 C62.5194,191.3751 61.8484,191.3651 61.1724,191.0351 C60.6504,190.7801 60.2664,190.3571 60.0194,189.7651 C59.7784,189.1701 59.8294,188.4971 60.1734,187.7421 L62.2864,183.4161 L63.5534,184.0341 L61.6574,187.9151 C61.4334,188.3701 61.3824,188.7761 61.5004,189.1291 C61.6124,189.4851 61.8504,189.7511 62.2144,189.9301 C62.5784,190.1071 62.9384,190.1321 63.2914,190.0051 C63.6474,189.8821 63.9364,189.5941 64.1604,189.1381 L66.0564,185.2581 L67.3214,185.8761 L64.1404,192.3841 Z" id="Fill-152" fill="#000000"></path>
                <path d="M55.5886,180.9007 C56.0346,180.7437 56.4946,180.6727 56.9676,180.6877 C57.4446,180.6947 57.9216,180.8317 58.3966,181.0987 C59.1096,181.5187 59.5886,182.1377 59.8346,182.9557 C60.0986,183.7857 59.9086,184.7667 59.2646,185.8987 C58.5816,187.0247 57.8126,187.6787 56.9536,187.8597 C56.1196,188.0457 55.3476,187.9217 54.6376,187.4957 C54.1726,187.2127 53.8176,186.8687 53.5726,186.4657 C53.3306,186.0607 53.1746,185.6157 53.1036,185.1327 L54.4846,184.8377 C54.5426,185.4397 54.8236,185.8997 55.3276,186.2177 C56.3516,186.8397 57.2586,186.4977 58.0496,185.1857 C58.8046,183.8647 58.6596,182.9097 57.6146,182.3237 C57.0966,182.0297 56.5596,182.0067 56.0016,182.2537 L55.5886,180.9007 Z" id="Fill-154" fill="#000000"></path>
            </g>
        </g>
    </g>
</svg>