<?xml version="1.0" encoding="UTF-8"?>
<svg width="169px" height="169px" viewBox="0 0 169 169" version="1.1" xmlns="http://www.w3.org/2000/svg" xmlns:xlink="http://www.w3.org/1999/xlink">
    <!-- Generator: Sketch 48.2 (47327) - http://www.bohemiancoding.com/sketch -->
    <title>video-logo-inner</title>
    <desc>Created with Sketch.</desc>
    <defs></defs>
    <g id="Sticker" stroke="none" stroke-width="1" fill="none" fill-rule="evenodd" transform="translate(-20.000000, -20.000000)">
        <g id="video-logo-inner">
            <g transform="translate(20.000000, 20.000000)">
                <path d="M84.5183,15.8612 C46.5663,15.8612 15.6893,46.7372 15.6893,84.6892 C15.6893,122.6412 46.5663,153.5182 84.5183,153.5182 C122.4703,153.5182 153.3463,122.6412 153.3463,84.6892 C153.3463,46.7372 122.4703,15.8612 84.5183,15.8612 M84.5183,168.5182 C38.2953,168.5182 0.6893,130.9122 0.6893,84.6892 C0.6893,38.4662 38.2953,0.8612 84.5183,0.8612 C130.7413,0.8612 168.3463,38.4662 168.3463,84.6892 C168.3463,130.9122 130.7413,168.5182 84.5183,168.5182" id="Fill-4" fill="#000000"></path>
                <polygon id="Fill-156" fill="#FFFFFF" points="166.6658 77.9574 166.7618 78.6944 156.5588 74.9754 156.4718 74.3074 165.7358 70.7944 165.8428 71.6164 157.7348 74.6524 157.7448 74.7224"></polygon>
                <path d="M167.2468,80.9027 L167.2868,81.7297 L166.5238,81.6687 L166.4838,80.8407 L167.2468,80.9027 Z M157.0758,80.0297 L164.2968,80.6927 L164.3308,81.4087 L157.1098,80.7457 L157.0758,80.0297 Z" id="Fill-158" fill="#FFFFFF"></path>
                <path d="M159.0642,84.0042 C158.6422,83.9932 158.3172,84.1722 158.0872,84.5412 C157.8582,84.9092 157.7332,85.4312 157.7152,86.1062 C157.6972,86.7982 157.8312,87.3502 158.1152,87.7602 C158.4002,88.1702 158.7762,88.3822 159.2452,88.3952 C159.5252,88.4012 159.7522,88.3182 159.9262,88.1452 C160.0992,87.9722 160.2312,87.7522 160.3222,87.4872 C160.4142,87.2232 160.5072,86.8662 160.6042,86.4202 C160.7302,85.8992 160.8502,85.4802 160.9672,85.1642 C161.0832,84.8492 161.2602,84.5822 161.5002,84.3622 C161.7402,84.1442 162.0662,84.0402 162.4782,84.0512 C162.8722,84.0622 163.2242,84.1802 163.5382,84.4092 C163.8492,84.6372 164.0942,84.9772 164.2702,85.4262 C164.4452,85.8752 164.5242,86.4192 164.5082,87.0562 C164.4932,87.6372 164.3972,88.1112 164.2182,88.4822 C164.0392,88.8522 163.8192,89.1172 163.5582,89.2792 C163.2952,89.4412 163.0202,89.5192 162.7292,89.5122 C162.6452,89.5092 162.5562,89.5002 162.4632,89.4832 C162.3702,89.4672 162.3182,89.4532 162.3092,89.4432 L162.3282,88.7422 C162.3362,88.7412 162.3792,88.7502 162.4542,88.7662 C162.5282,88.7822 162.6082,88.7912 162.6912,88.7932 C162.9812,88.8012 163.2462,88.6772 163.4822,88.4202 C163.7182,88.1642 163.8452,87.6752 163.8642,86.9552 C163.8862,86.0932 163.7422,85.5182 163.4322,85.2292 C163.1202,84.9402 162.8202,84.7912 162.5292,84.7832 C162.2672,84.7762 162.0572,84.8582 161.8972,85.0262 C161.7392,85.1952 161.6162,85.4062 161.5292,85.6562 C161.4432,85.9072 161.3482,86.2522 161.2432,86.6902 C161.1162,87.2302 160.9922,87.6622 160.8722,87.9862 C160.7512,88.3122 160.5652,88.5852 160.3152,88.8092 C160.0672,89.0312 159.7322,89.1382 159.3102,89.1262 C158.4962,89.1062 157.9132,88.7972 157.5632,88.2032 C157.2122,87.6082 157.0502,86.8562 157.0732,85.9472 C157.0912,85.2832 157.1992,84.7492 157.3972,84.3482 C157.5952,83.9442 157.8312,83.6622 158.1072,83.5002 C158.3832,83.3402 158.6622,83.2632 158.9422,83.2702 C159.1302,83.2752 159.3122,83.3082 159.4882,83.3682 L159.4702,84.0702 C159.3582,84.0292 159.2232,84.0082 159.0642,84.0042" id="Fill-160" fill="#FFFFFF"></path>
                <path d="M166.9045,93.2288 L166.8205,94.0528 L166.0755,93.8788 L166.1595,93.0538 L166.9045,93.2288 Z M156.9765,90.8518 L164.0185,92.5828 L163.9455,93.2948 L156.9045,91.5648 L156.9765,90.8518 Z" id="Fill-162" fill="#FFFFFF"></path>
                <path d="M156.2258,95.8626 C156.2868,95.4826 156.4338,95.2006 156.6658,95.0136 C156.8998,94.8286 157.2158,94.7676 157.6128,94.8316 C157.6778,94.8416 157.7918,94.8686 157.9558,94.9146 L162.8948,96.4256 L163.0178,95.6486 L163.6418,95.8476 L163.5178,96.6246 L165.6888,97.5526 L165.6158,98.0116 L163.4048,97.3326 L163.1418,98.9826 L162.5188,98.7846 L162.7818,97.1336 L157.8718,95.6256 C157.7448,95.5866 157.6588,95.5636 157.6128,95.5556 C157.3428,95.5136 157.1558,95.5476 157.0488,95.6586 C156.9398,95.7696 156.8698,95.9316 156.8358,96.1446 C156.8188,96.2456 156.8198,96.3906 156.8368,96.5786 C156.8548,96.7656 156.8818,96.9286 156.9158,97.0676 L156.3048,96.8846 C156.1938,96.5636 156.1678,96.2226 156.2258,95.8626" id="Fill-164" fill="#FFFFFF"></path>
                <path d="M154.9919,106.5589 C155.2339,107.0759 155.6139,107.5139 156.1309,107.8739 C156.6489,108.2349 157.2309,108.5119 157.8769,108.7049 C158.5679,108.9129 159.1469,108.8969 159.6139,108.6609 C160.0799,108.4239 160.3989,108.0229 160.5679,107.4569 C160.7509,106.8469 160.7169,106.2819 160.4669,105.7629 C160.2179,105.2429 159.8319,104.8029 159.3149,104.4429 C158.7959,104.0819 158.2199,103.8069 157.5819,103.6159 C156.8909,103.4089 156.3139,103.4239 155.8519,103.6629 C155.3889,103.9009 155.0739,104.3019 154.9049,104.8679 C154.7219,105.4779 154.7519,106.0409 154.9919,106.5589 M155.5689,102.9909 C156.1779,102.6889 156.9129,102.6669 157.7739,102.9249 C158.5279,103.1509 159.2059,103.4929 159.8069,103.9519 C160.4069,104.4099 160.8399,104.9649 161.1039,105.6159 C161.3689,106.2679 161.3879,106.9749 161.1589,107.7369 C160.9309,108.4999 160.5119,109.0319 159.9029,109.3339 C159.2949,109.6359 158.5599,109.6589 157.6989,109.4009 C156.9449,109.1739 156.2669,108.8319 155.6669,108.3739 C155.0649,107.9149 154.6319,107.3599 154.3679,106.7089 C154.1029,106.0579 154.0859,105.3509 154.3139,104.5879 C154.5419,103.8259 154.9599,103.2929 155.5689,102.9909" id="Fill-166" fill="#FFFFFF"></path>
                <path d="M151.5471,113.3021 C151.5241,112.8071 151.6041,112.3461 151.7871,111.9141 C152.0631,111.2681 152.4461,110.8251 152.9351,110.5861 C153.4231,110.3461 153.9961,110.3661 154.6511,110.6471 C154.9011,110.7531 155.6111,111.1601 156.7801,111.8681 C157.9501,112.5761 158.7401,113.0591 159.1501,113.3151 L158.8681,113.9751 C156.3101,112.4041 154.8711,111.5501 154.5521,111.4141 C154.0011,111.1791 153.5451,111.1451 153.1831,111.3111 C152.8211,111.4781 152.5291,111.8231 152.3041,112.3491 C152.1431,112.7281 152.0811,113.1241 152.1181,113.5371 C152.1561,113.9511 152.2871,114.3371 152.5091,114.6981 C152.7331,115.0581 153.0261,115.3461 153.3921,115.5631 L157.2081,117.8641 L156.9261,118.5241 C156.3691,118.1831 155.3351,117.5551 153.8261,116.6421 C152.3161,115.7281 151.5271,115.2561 151.4591,115.2271 C151.2431,115.1351 151.0941,115.1881 151.0081,115.3861 C150.9231,115.5841 150.8951,115.8421 150.9221,116.1591 L150.4001,115.8441 C150.3471,115.5161 150.3811,115.2101 150.5031,114.9261 C150.6161,114.6581 150.7751,114.5001 150.9811,114.4491 C151.1851,114.4001 151.4131,114.4281 151.6631,114.5341 C151.7221,114.5611 151.8101,114.6081 151.9221,114.6761 C151.6951,114.2531 151.5711,113.7951 151.5471,113.3021" id="Fill-168" fill="#FFFFFF"></path>
                <path d="M151.615,124.2269 C151.975,124.4269 152.341,124.4969 152.713,124.4349 C153.084,124.3729 153.402,124.1049 153.666,123.6289 C153.875,123.2529 153.952,122.8749 153.9,122.4979 C153.846,122.1209 153.717,121.7809 153.51,121.4779 C153.303,121.1759 153.08,120.9309 152.84,120.7449 L149.166,117.9829 L149.515,117.3559 L155.302,121.7249 L155.07,122.1429 L154.136,121.6239 C154.168,121.6429 154.232,121.7799 154.325,122.0359 C154.42,122.2909 154.465,122.6049 154.461,122.9789 C154.458,123.3509 154.345,123.7389 154.122,124.1399 C153.804,124.7129 153.405,125.0599 152.927,125.1799 C152.447,125.2989 151.957,125.2209 151.459,124.9439 C151.335,124.8749 151.197,124.7829 151.043,124.6639 C150.887,124.5469 150.818,124.4859 150.831,124.4829 L151.151,123.9059 C151.329,124.0469 151.484,124.1549 151.615,124.2269" id="Fill-170" fill="#FFFFFF"></path>
                <polygon id="Fill-172" fill="#FFFFFF" points="143.2175 127.6351 143.5675 127.1961 150.1135 130.5001 149.6495 131.0831 144.3015 128.3711 144.2665 128.4161 147.0865 134.3051 146.5705 134.9531 141.2205 132.2421 141.1865 132.2861 144.0075 138.1751 143.5775 138.7131 140.1385 131.5061 140.4885 131.0661 146.1965 133.9551 146.2315 133.9111"></polygon>
                <path d="M140.4079,140.1156 C140.4479,139.4766 140.2449,138.8066 139.7979,138.1036 L136.6609,141.1466 C136.8159,141.3736 136.9629,141.5586 137.0999,141.6996 C137.5099,142.1236 137.9439,142.3286 138.4019,142.3166 C138.8589,142.3036 139.2829,142.1076 139.6729,141.7286 C140.1229,141.2926 140.3689,140.7546 140.4079,140.1156 M134.5789,138.2036 C134.6509,137.4486 134.9929,136.7746 135.6039,136.1816 C136.1689,135.6336 136.7889,135.3776 137.4599,135.4106 C138.1319,135.4436 138.7799,135.7836 139.4069,136.4286 C139.9479,136.9866 140.3699,137.6116 140.6749,138.3026 C140.9789,138.9916 141.0939,139.6856 141.0199,140.3836 C140.9469,141.0816 140.6239,141.7076 140.0529,142.2616 C139.5279,142.7696 138.9609,143.0306 138.3509,143.0416 C137.7409,143.0516 137.1719,142.7836 136.6439,142.2396 C136.5339,142.1256 136.3839,141.9506 136.1949,141.7156 C136.0069,141.4806 135.8639,141.2796 135.7669,141.1136 L139.4189,137.5716 C139.2429,137.3236 139.0719,137.1126 138.9019,136.9376 C138.4059,136.4266 137.8999,136.1606 137.3839,136.1396 C136.8669,136.1186 136.4009,136.3096 135.9829,136.7146 C135.5339,137.1506 135.2779,137.6486 135.2209,138.2076 C135.1609,138.7656 135.3439,139.3376 135.7659,139.9206 L135.2609,140.4096 C134.7359,139.6916 134.5089,138.9576 134.5789,138.2036" id="Fill-174" fill="#FFFFFF"></path>
                <path d="M134.0051,145.973 C134.0891,145.418 134.0221,144.848 133.8001,144.26 C133.5791,143.672 133.2581,143.109 132.8381,142.57 C132.3601,141.957 131.8831,141.619 131.4071,141.557 C130.9301,141.494 130.4661,141.639 130.0161,141.991 C129.6321,142.29 129.3711,142.688 129.2331,143.181 C129.0961,143.674 129.1151,144.236 129.2911,144.866 C129.4671,145.494 129.8201,146.149 130.3501,146.827 C130.7881,147.389 131.2531,147.706 131.7441,147.781 C132.2361,147.855 132.6991,147.721 133.1351,147.381 C133.6301,146.995 133.9201,146.526 134.0051,145.973 M134.3101,146.901 C134.0941,147.325 133.7921,147.69 133.4001,147.995 C132.8311,148.439 132.2211,148.605 131.5711,148.495 C130.9211,148.384 130.3281,147.987 129.7911,147.299 C129.3591,146.745 129.0161,146.111 128.7611,145.395 C128.5051,144.68 128.4301,143.967 128.5381,143.26 C128.6461,142.553 129.0131,141.954 129.6411,141.464 C130.5051,140.789 131.3701,140.679 132.2341,141.134 L131.8441,139.924 L132.0761,139.743 L137.1811,148.592 L136.6161,149.033 L134.6391,145.585 C134.6351,146.038 134.5261,146.477 134.3101,146.901" id="Fill-176" fill="#FFFFFF"></path>
                <path d="M123.9714,152.8031 C124.1374,152.2511 124.1524,151.6661 124.0174,151.0501 C123.8844,150.4331 123.6584,149.8371 123.3394,149.2641 C122.9894,148.6341 122.5754,148.2451 122.0974,148.0981 C121.6184,147.9511 121.1344,148.0141 120.6434,148.2871 C120.1024,148.5881 119.7474,149.0041 119.5774,149.5381 C119.4094,150.0731 119.3884,150.6451 119.5204,151.2581 C119.6524,151.8701 119.8784,152.4671 120.2024,153.0491 C120.5794,153.7291 120.9994,154.1411 121.4604,154.2871 C121.9214,154.4331 122.3974,154.3691 122.8894,154.0961 C123.4464,153.7871 123.8064,153.3561 123.9714,152.8031 M123.0564,154.7421 C122.4254,155.0931 121.8054,155.1691 121.1984,154.9711 C120.5904,154.7741 120.0574,154.2651 119.6024,153.4471 C119.2254,152.7671 118.9694,152.0591 118.8354,151.3251 C118.7004,150.5911 118.7474,149.9011 118.9774,149.2531 C119.2074,148.6061 119.6664,148.0911 120.3544,147.7091 C120.7884,147.4671 121.2134,147.3461 121.6314,147.3451 C122.0484,147.3441 122.4234,147.4531 122.7604,147.6731 L121.4854,144.3321 L122.1104,143.9851 L125.6404,153.1471 L125.2234,153.3781 L124.6854,152.4401 C124.5254,153.4611 123.9814,154.2291 123.0564,154.7421" id="Fill-178" fill="#FFFFFF"></path>
                <path d="M112.7019,152.7845 C112.4749,153.3005 112.3939,153.8725 112.4589,154.5005 C112.5229,155.1285 112.6869,155.7585 112.9509,156.3885 C113.2279,157.0545 113.5949,157.4885 114.0489,157.6885 C114.5029,157.8895 114.9899,157.8825 115.5089,157.6665 C116.0879,157.4245 116.4869,157.0415 116.7049,156.5185 C116.9239,155.9965 116.9999,155.4215 116.9359,154.7935 C116.8709,154.1655 116.7169,153.5565 116.4709,152.9695 C116.1759,152.2615 115.8079,151.8075 115.3709,151.6095 C114.9319,151.4115 114.4499,151.4235 113.9229,151.6425 C113.3359,151.8885 112.9279,152.2685 112.7019,152.7845 M111.9879,152.9535 C112.2739,152.0325 112.8869,151.3755 113.8299,150.9815 C114.4949,150.7035 115.1189,150.6965 115.7009,150.9615 C116.2839,151.2255 116.7559,151.7905 117.1169,152.6545 C117.4159,153.3715 117.5899,154.1035 117.6379,154.8505 C117.6859,155.5975 117.5579,156.2785 117.2589,156.8965 C116.9579,157.5145 116.4499,157.9725 115.7319,158.2725 C115.2729,158.4645 114.8369,158.5375 114.4229,158.4925 C114.0079,158.4475 113.6449,158.2965 113.3349,158.0395 L113.2829,158.0615 L113.3569,159.1125 L112.9289,159.2915 C112.7659,158.6585 112.4609,157.4885 112.0129,155.7835 C111.5639,154.0775 111.3249,153.1895 111.2959,153.1205 C111.2059,152.9045 111.0609,152.8385 110.8629,152.9215 C110.6639,153.0045 110.4639,153.1685 110.2619,153.4155 L110.1069,152.8255 C110.2979,152.5535 110.5359,152.3575 110.8219,152.2385 C111.0889,152.1255 111.3139,152.1235 111.4949,152.2295 C111.6769,152.3375 111.8199,152.5155 111.9249,152.7655 C111.9579,152.8445 111.9789,152.9065 111.9879,152.9535" id="Fill-180" fill="#FFFFFF"></path>
                <path d="M104.7478,155.7747 C104.4568,156.2307 104.3028,156.7537 104.2848,157.3437 C104.2668,157.9357 104.3458,158.5317 104.5208,159.1347 C104.7398,159.8797 105.0578,160.3707 105.4778,160.6037 C105.8968,160.8377 106.3808,160.8747 106.9298,160.7137 C107.5318,160.5387 107.9738,160.2117 108.2538,159.7347 C108.5348,159.2577 108.6828,158.7127 108.6978,158.0967 C108.7138,157.4827 108.6298,156.8617 108.4458,156.2307 C108.2598,155.5927 107.9578,155.1597 107.5398,154.9297 C107.1208,154.7007 106.6418,154.6657 106.1018,154.8227 C105.4918,155.0017 105.0398,155.3187 104.7478,155.7747 M106.9988,152.1307 C106.5448,151.9797 106.0578,151.9807 105.5358,152.1327 C104.9518,152.3047 104.4978,152.6217 104.1758,153.0877 C103.8528,153.5527 103.7398,154.1177 103.8368,154.7817 L103.9998,155.9487 C104.1798,155.5257 104.4518,155.1557 104.8188,154.8387 C105.1848,154.5217 105.6058,154.2947 106.0828,154.1557 C106.7668,153.9557 107.3878,154.0147 107.9498,154.3347 C108.5108,154.6527 108.9068,155.2037 109.1348,155.9867 C109.3478,156.7137 109.4338,157.4487 109.3908,158.1877 C109.3478,158.9267 109.1378,159.5847 108.7578,160.1587 C108.3798,160.7327 107.8218,161.1277 107.0838,161.3417 C106.0318,161.6507 105.1878,161.4327 104.5518,160.6917 L104.4688,161.9607 L104.1858,162.0437 L103.1838,155.1037 C103.0518,154.2157 103.1658,153.4557 103.5268,152.8227 C103.8898,152.1897 104.5288,151.7407 105.4448,151.4717 C106.0208,151.3027 106.5298,151.2747 106.9728,151.3847 C107.4138,151.4947 107.7718,151.6937 108.0458,151.9787 C108.3188,152.2647 108.5098,152.5877 108.6148,152.9477 L107.9128,153.1527 C107.7578,152.6217 107.4528,152.2817 106.9988,152.1307" id="Fill-182" fill="#FFFFFF"></path>
                <path d="M100.0383,161.7542 C100.4283,161.2462 100.6343,160.5762 100.6563,159.7442 L96.3543,160.5182 C96.3563,160.7932 96.3743,161.0282 96.4103,161.2222 C96.5143,161.8032 96.7603,162.2152 97.1463,162.4592 C97.5343,162.7042 97.9943,162.7782 98.5283,162.6832 C99.1473,162.5712 99.6493,162.2622 100.0383,161.7542 M96.2703,156.9142 C96.7493,156.3282 97.4103,155.9592 98.2483,155.8092 C99.0233,155.6692 99.6803,155.8012 100.2183,156.2032 C100.7563,156.6062 101.1063,157.2502 101.2653,158.1352 C101.4033,158.9002 101.4053,159.6542 101.2723,160.3972 C101.1403,161.1392 100.8483,161.7792 100.3983,162.3172 C99.9473,162.8562 99.3303,163.1952 98.5463,163.3362 C97.8283,163.4652 97.2113,163.3632 96.7003,163.0322 C96.1883,162.7012 95.8653,162.1622 95.7303,161.4152 C95.7023,161.2582 95.6753,161.0292 95.6503,160.7302 C95.6243,160.4302 95.6193,160.1842 95.6313,159.9902 L100.6383,159.0902 C100.6313,158.7872 100.6053,158.5162 100.5633,158.2752 C100.4363,157.5752 100.1643,157.0712 99.7483,156.7662 C99.3313,156.4602 98.8383,156.3592 98.2673,156.4622 C97.6483,156.5722 97.1603,156.8442 96.7993,157.2752 C96.4383,157.7062 96.2713,158.2812 96.2953,159.0002 L95.6043,159.1252 C95.5683,158.2362 95.7893,157.5002 96.2703,156.9142" id="Fill-184" fill="#FFFFFF"></path>
                <path d="M93.1687,156.0238 C93.0867,156.3578 93.0247,156.6018 92.9837,156.7558 L93.3197,156.7218 L93.2957,157.6998 L92.3867,157.7938 L92.4147,156.9718 L92.8787,155.3398 L93.3547,155.2918 C93.3137,155.4468 93.2527,155.6898 93.1687,156.0238" id="Fill-186" fill="#FFFFFF"></path>
                <polygon id="Fill-188" fill="#FFFFFF" points="84.6745 157.2943 85.2355 157.3163 86.4385 164.5503 85.6955 164.5203 84.7205 158.6043 84.6635 158.6013 81.5805 164.3563 80.7525 164.3233 79.7785 158.4073 79.7215 158.4043 76.6385 164.1603 75.9515 164.1333 79.7315 157.0983 80.2935 157.1193 81.3375 163.4333 81.3925 163.4353"></polygon>
                <path d="M72.9993,162.4105 C73.5373,162.0645 73.9583,161.5045 74.2603,160.7285 L69.9533,159.9995 C69.8603,160.2595 69.7983,160.4865 69.7653,160.6805 C69.6673,161.2625 69.7573,161.7325 70.0393,162.0945 C70.3203,162.4555 70.7283,162.6815 71.2633,162.7715 C71.8833,162.8775 72.4613,162.7575 72.9993,162.4105 M71.0943,156.5795 C71.7453,156.1915 72.4893,156.0685 73.3313,156.2115 C74.1053,156.3425 74.6793,156.6885 75.0503,157.2505 C75.4203,157.8115 75.5303,158.5355 75.3793,159.4225 C75.2503,160.1885 74.9983,160.8985 74.6203,161.5525 C74.2433,162.2055 73.7513,162.7095 73.1453,163.0625 C72.5393,163.4165 71.8443,163.5265 71.0593,163.3925 C70.3373,163.2705 69.7943,162.9675 69.4243,162.4815 C69.0553,161.9975 68.9343,161.3795 69.0613,160.6315 C69.0883,160.4745 69.1403,160.2505 69.2183,159.9615 C69.2963,159.6695 69.3733,159.4355 69.4503,159.2585 L74.4653,160.1075 C74.5623,159.8205 74.6303,159.5565 74.6703,159.3165 C74.7893,158.6145 74.7063,158.0495 74.4173,157.6205 C74.1283,157.1915 73.6983,156.9285 73.1253,156.8315 C72.5063,156.7265 71.9553,156.8155 71.4703,157.0995 C70.9843,157.3835 70.6313,157.8675 70.4123,158.5525 L69.7173,158.4335 C69.9863,157.5875 70.4443,156.9695 71.0943,156.5795" id="Fill-190" fill="#FFFFFF"></path>
                <path d="M65.6291,162.9154 C65.4391,163.2014 65.2991,163.4104 65.2101,163.5434 L65.5371,163.6234 L65.1851,164.5354 L64.2981,164.3204 L64.5991,163.5554 L65.5851,162.1744 L66.0491,162.2874 C65.9601,162.4194 65.8191,162.6294 65.6291,162.9154" id="Fill-192" fill="#FFFFFF"></path>
                <path d="M59.3367,158.1908 C59.2127,158.5848 59.2177,158.9568 59.3537,159.3088 C59.4887,159.6608 59.8147,159.9178 60.3337,160.0818 C60.7437,160.2108 61.1287,160.2118 61.4877,160.0848 C61.8477,159.9578 62.1537,159.7618 62.4097,159.4978 C62.6647,159.2348 62.8587,158.9668 62.9947,158.6958 L64.9657,154.5438 L65.6487,154.7578 L62.5247,161.3028 L62.0697,161.1588 L62.3907,160.1408 C62.3797,160.1758 62.2577,160.2658 62.0267,160.4088 C61.7947,160.5508 61.4957,160.6598 61.1297,160.7298 C60.7637,160.8008 60.3617,160.7678 59.9237,160.6298 C59.2977,160.4328 58.8787,160.1118 58.6657,159.6668 C58.4527,159.2208 58.4327,158.7258 58.6037,158.1808 C58.6457,158.0468 58.7097,157.8928 58.7947,157.7178 C58.8787,157.5438 58.9227,157.4618 58.9297,157.4728 L59.5587,157.6718 C59.4567,157.8758 59.3827,158.0478 59.3367,158.1908" id="Fill-194" fill="#FFFFFF"></path>
                <path d="M55.2683,157.5628 C55.8733,157.3518 56.4123,156.9058 56.8873,156.2218 L52.8693,154.5048 C52.7193,154.7368 52.6053,154.9428 52.5283,155.1238 C52.2963,155.6668 52.2753,156.1458 52.4633,156.5628 C52.6533,156.9798 52.9963,157.2938 53.4963,157.5078 C54.0743,157.7548 54.6643,157.7728 55.2683,157.5628 M54.7793,151.4478 C55.5023,151.2228 56.2563,151.2768 57.0393,151.6118 C57.7623,151.9198 58.2403,152.3918 58.4683,153.0248 C58.6963,153.6568 58.6343,154.3868 58.2813,155.2128 C57.9753,155.9278 57.5643,156.5598 57.0453,157.1068 C56.5263,157.6548 55.9303,158.0298 55.2583,158.2308 C54.5863,158.4328 53.8843,158.3768 53.1523,158.0648 C52.4793,157.7768 52.0213,157.3538 51.7753,156.7958 C51.5313,156.2378 51.5573,155.6098 51.8543,154.9128 C51.9173,154.7658 52.0203,154.5608 52.1643,154.2958 C52.3083,154.0318 52.4373,153.8218 52.5553,153.6678 L57.2323,155.6668 C57.3933,155.4098 57.5213,155.1678 57.6173,154.9458 C57.8963,154.2908 57.9473,153.7208 57.7663,153.2368 C57.5863,152.7508 57.2293,152.3958 56.6953,152.1668 C56.1183,151.9198 55.5613,151.8778 55.0223,152.0418 C54.4843,152.2038 54.0283,152.5918 53.6543,153.2068 L53.0083,152.9298 C53.4653,152.1668 54.0563,151.6738 54.7793,151.4478" id="Fill-196" fill="#FFFFFF"></path>
                <path d="M43.8284,147.3197 C43.2274,148.0487 42.8044,148.5647 42.5594,148.8657 C42.3154,149.1667 42.1584,149.3727 42.0894,149.4837 C41.7914,149.9707 41.6954,150.4127 41.8054,150.8087 C41.9134,151.2057 42.2074,151.5497 42.6864,151.8437 C43.0384,152.0587 43.4214,152.1787 43.8364,152.2017 C44.2494,152.2247 44.6514,152.1527 45.0394,151.9847 C45.4294,151.8167 45.7574,151.5667 46.0254,151.2367 L48.8584,147.7987 L49.4694,148.1727 L42.9734,156.0567 L42.3614,155.6817 L44.8924,152.6017 C44.4614,152.7667 44.0014,152.8177 43.5144,152.7547 C43.0254,152.6917 42.5934,152.5457 42.2174,152.3147 C41.6184,151.9477 41.2314,151.4987 41.0564,150.9677 C40.8814,150.4377 40.9794,149.8697 41.3514,149.2627 C41.4404,149.1187 41.5624,148.9457 41.7184,148.7457 C41.8734,148.5447 42.1524,148.2097 42.5494,147.7387 C42.7784,147.4727 43.4764,146.6317 44.6414,145.2137 L45.2524,145.5887 L43.8284,147.3197 Z" id="Fill-198" fill="#FFFFFF"></path>
                <path d="M38.7165,142.1986 C38.1555,142.2526 37.6165,142.4596 37.0995,142.8216 C36.5815,143.1826 36.1115,143.6326 35.6885,144.1696 C35.2415,144.7356 35.0415,145.2656 35.0865,145.7616 C35.1325,146.2566 35.3755,146.6776 35.8175,147.0256 C36.3095,147.4136 36.8385,147.5766 37.4005,147.5126 C37.9635,147.4496 38.5045,147.2366 39.0205,146.8756 C39.5385,146.5136 39.9945,146.0826 40.3885,145.5826 C40.8635,144.9786 41.0815,144.4376 41.0415,143.9596 C41.0005,143.4796 40.7565,143.0636 40.3075,142.7106 C39.8075,142.3166 39.2775,142.1446 38.7165,142.1986 M38.2215,141.6576 C39.1655,141.4586 40.0385,141.6756 40.8405,142.3066 C41.4075,142.7536 41.7165,143.2956 41.7685,143.9326 C41.8205,144.5706 41.5565,145.2566 40.9775,145.9926 C40.4965,146.6036 39.9415,147.1106 39.3125,147.5156 C38.6835,147.9216 38.0265,148.1416 37.3395,148.1796 C36.6535,148.2186 36.0055,147.9966 35.3945,147.5156 C35.0055,147.2086 34.7295,146.8626 34.5675,146.4786 C34.4035,146.0946 34.3605,145.7046 34.4325,145.3076 L34.3885,145.2736 L33.5065,145.8486 L33.1415,145.5616 C33.6155,145.1116 34.4885,144.2766 35.7615,143.0546 C37.0335,141.8336 37.6935,141.1926 37.7395,141.1356 C37.8845,140.9496 37.8725,140.7916 37.7025,140.6586 C37.5335,140.5246 37.2925,140.4296 36.9785,140.3736 L37.4185,139.9516 C37.7505,139.9856 38.0365,140.0976 38.2795,140.2896 C38.5085,140.4696 38.6185,140.6646 38.6145,140.8756 C38.6095,141.0866 38.5235,141.2986 38.3545,141.5116 C38.3025,141.5786 38.2585,141.6266 38.2215,141.6576" id="Fill-200" fill="#FFFFFF"></path>
                <path d="M30.259,141.4232 C30.836,141.4262 31.4,141.2772 31.954,140.9762 C32.509,140.6742 33.017,140.2902 33.478,139.8242 C33.984,139.3112 34.242,138.8042 34.248,138.3032 C34.256,137.8042 34.059,137.3572 33.658,136.9612 C33.219,136.5272 32.719,136.3032 32.16,136.2892 C31.6,136.2772 31.044,136.4192 30.493,136.7172 C29.942,137.0152 29.432,137.4012 28.965,137.8742 C28.418,138.4272 28.14,138.9452 28.13,139.4292 C28.119,139.9132 28.314,140.3522 28.715,140.7472 C29.168,141.1952 29.682,141.4202 30.259,141.4232 M28.14,141.0882 C27.626,140.5812 27.38,140.0082 27.4,139.3692 C27.418,138.7302 27.758,138.0772 28.415,137.4102 C28.962,136.8582 29.569,136.4132 30.236,136.0782 C30.903,135.7422 31.579,135.5942 32.264,135.6332 C32.95,135.6722 33.573,135.9682 34.133,136.5212 C34.487,136.8692 34.722,137.2442 34.841,137.6452 C34.959,138.0452 34.96,138.4372 34.842,138.8212 L37.692,136.6582 L38.201,137.1622 L30.398,143.1212 L30.058,142.7852 L30.808,142.0062 C29.782,142.1382 28.893,141.8322 28.14,141.0882" id="Fill-202" fill="#FFFFFF"></path>
                <path d="M24.3938,135.1527 C24.9668,135.2187 25.5458,135.1327 26.1288,134.8937 C26.7138,134.6557 27.2598,134.3297 27.7698,133.9167 C28.3308,133.4627 28.6408,132.9867 28.7028,132.4907 C28.7658,131.9947 28.6178,131.5277 28.2648,131.0907 C27.8748,130.6107 27.4028,130.3337 26.8488,130.2587 C26.2928,130.1847 25.7258,130.2647 25.1438,130.5007 C24.5638,130.7367 24.0158,131.0647 23.4988,131.4827 C22.8948,131.9727 22.5608,132.4577 22.4978,132.9367 C22.4348,133.4167 22.5798,133.8757 22.9338,134.3117 C23.3348,134.8057 23.8218,135.0867 24.3938,135.1527 M22.3268,134.5877 C21.8708,134.0277 21.6888,133.4307 21.7778,132.7977 C21.8678,132.1647 22.2758,131.5517 23.0028,130.9627 C23.6068,130.4727 24.2598,130.0977 24.9598,129.8377 C25.6588,129.5777 26.3478,129.5047 27.0248,129.6187 C27.7028,129.7327 28.2888,130.0947 28.7838,130.7067 C29.0968,131.0917 29.2898,131.4897 29.3638,131.9007 C29.4378,132.3107 29.3948,132.7017 29.2368,133.0707 L32.3058,131.2327 L32.7568,131.7897 L24.3468,136.8557 L24.0448,136.4847 L24.8768,135.7937 C23.8428,135.8107 22.9928,135.4107 22.3268,134.5877" id="Fill-204" fill="#FFFFFF"></path>
                <path d="M24.6267,124.7464 C25.2267,124.6894 25.7057,124.6604 26.0617,124.6564 C26.4177,124.6544 26.7447,124.7114 27.0447,124.8284 C27.3457,124.9454 27.5937,125.1534 27.7877,125.4514 C27.9567,125.7104 28.0607,125.9884 28.0997,126.2884 L27.5037,126.5584 C27.4597,126.2524 27.3817,126.0134 27.2697,125.8404 C27.0857,125.5574 26.8407,125.3924 26.5367,125.3464 C26.2317,125.2994 25.8487,125.2914 25.3877,125.3224 L24.4917,125.3884 L19.5937,130.8144 L19.1717,130.1684 L23.4217,125.4984 L23.3917,125.4514 L16.4617,126.0154 L16.0777,125.4264 L24.0257,124.8034 C24.3647,124.7724 24.5637,124.7534 24.6267,124.7464" id="Fill-206" fill="#FFFFFF"></path>
                <path d="M17.5432,114.8783 C17.0212,114.6693 16.4462,114.6073 15.8202,114.6913 C15.1952,114.7743 14.5722,114.9593 13.9492,115.2423 C13.2932,115.5413 12.8712,115.9213 12.6852,116.3813 C12.4992,116.8423 12.5222,117.3283 12.7542,117.8403 C13.0152,118.4113 13.4092,118.7973 13.9392,118.9993 C14.4682,119.2003 15.0442,119.2593 15.6712,119.1743 C16.2962,119.0903 16.8992,118.9163 17.4782,118.6523 C18.1782,118.3343 18.6192,117.9533 18.8042,117.5093 C18.9872,117.0653 18.9602,116.5833 18.7232,116.0633 C18.4602,115.4833 18.0652,115.0883 17.5432,114.8783 M17.3512,114.1703 C18.2812,114.4263 18.9582,115.0193 19.3802,115.9473 C19.6802,116.6053 19.7082,117.2283 19.4612,117.8183 C19.2162,118.4083 18.6672,118.8993 17.8152,119.2873 C17.1062,119.6093 16.3802,119.8063 15.6372,119.8773 C14.8922,119.9493 14.2062,119.8453 13.5782,119.5653 C12.9522,119.2843 12.4772,118.7893 12.1552,118.0823 C11.9492,117.6313 11.8612,117.1963 11.8942,116.7803 C11.9252,116.3643 12.0652,115.9983 12.3112,115.6803 L12.2882,115.6283 L11.2392,115.7353 L11.0472,115.3133 C11.6742,115.1313 12.8342,114.7873 14.5242,114.2853 C16.2152,113.7823 17.0942,113.5163 17.1632,113.4843 C17.3762,113.3883 17.4382,113.2413 17.3482,113.0453 C17.2592,112.8493 17.0882,112.6533 16.8342,112.4603 L17.4202,112.2863 C17.6982,112.4693 17.9012,112.7003 18.0302,112.9823 C18.1502,113.2453 18.1602,113.4713 18.0592,113.6543 C17.9592,113.8403 17.7842,113.9883 17.5362,114.1023 C17.4602,114.1373 17.3982,114.1593 17.3512,114.1703" id="Fill-208" fill="#FFFFFF"></path>
                <path d="M10.3547,110.3245 C10.8467,110.5935 11.4057,110.7225 12.0337,110.7145 C12.6627,110.7065 13.3017,110.5955 13.9517,110.3835 C14.6897,110.1405 15.1697,109.8065 15.3907,109.3805 C15.6097,108.9535 15.6307,108.4685 15.4527,107.9255 C15.3017,107.4625 15.0177,107.0825 14.6007,106.7855 C14.1837,106.4885 13.6477,106.3155 12.9967,106.2675 C12.3447,106.2195 11.6097,106.3295 10.7917,106.5975 C10.1137,106.8185 9.6577,107.1485 9.4217,107.5855 C9.1847,108.0215 9.1517,108.5035 9.3237,109.0285 C9.5207,109.6255 9.8627,110.0575 10.3547,110.3245 M9.3767,110.2975 C9.0527,109.9515 8.8117,109.5415 8.6577,109.0705 C8.4327,108.3845 8.4837,107.7545 8.8087,107.1795 C9.1327,106.6055 9.7087,106.1825 10.5367,105.9115 C11.2047,105.6935 11.9177,105.5855 12.6787,105.5885 C13.4387,105.5915 14.1327,105.7625 14.7617,106.1035 C15.3907,106.4445 15.8287,106.9945 16.0767,107.7505 C16.4177,108.7925 16.2287,109.6425 15.5077,110.3035 L16.7777,110.3455 L16.8697,110.6255 L6.8127,112.4235 L6.5897,111.7415 L10.5037,111.0535 C10.0787,110.8965 9.7037,110.6445 9.3767,110.2975" id="Fill-210" fill="#FFFFFF"></path>
                <path d="M12.5193,99.1185 C12.0603,98.7795 11.5173,98.5765 10.8893,98.5085 C10.2633,98.4395 9.6193,98.4745 8.9583,98.6135 C8.2533,98.7635 7.7523,99.0535 7.4563,99.4845 C7.1593,99.9165 7.0723,100.4205 7.1933,100.9985 C7.3253,101.6215 7.6253,102.1005 8.0943,102.4375 C8.5623,102.7745 9.1093,102.9765 9.7373,103.0455 C10.3643,103.1135 11.0023,103.0795 11.6533,102.9415 C12.3603,102.7935 12.8593,102.5035 13.1503,102.0725 C13.4433,101.6425 13.5273,101.1395 13.4063,100.5615 C13.2743,99.9385 12.9783,99.4575 12.5193,99.1185 M13.7203,102.5275 C13.3313,103.0835 12.6963,103.4545 11.8153,103.6395 C11.0463,103.8035 10.2883,103.8265 9.5403,103.7115 C8.7933,103.5975 8.1473,103.3165 7.6033,102.8715 C7.0603,102.4265 6.7063,101.8145 6.5403,101.0345 C6.3753,100.2565 6.4893,99.5885 6.8793,99.0315 C7.2683,98.4755 7.9033,98.1045 8.7833,97.9185 C9.5533,97.7565 10.3123,97.7325 11.0593,97.8475 C11.8063,97.9625 12.4523,98.2425 12.9963,98.6875 C13.5403,99.1335 13.8933,99.7445 14.0583,100.5235 C14.2233,101.3035 14.1103,101.9715 13.7203,102.5275" id="Fill-212" fill="#FFFFFF"></path>
                <path d="M12.3118,91.557 C12.5688,91.979 12.7208,92.424 12.7658,92.89 C12.8338,93.589 12.7108,94.161 12.3968,94.606 C12.0828,95.051 11.5708,95.307 10.8608,95.376 C10.5918,95.403 9.7738,95.386 8.4078,95.326 C7.0418,95.266 6.1178,95.222 5.6348,95.194 L5.5648,94.48 C8.5628,94.631 10.2348,94.689 10.5808,94.656 C11.1768,94.597 11.5938,94.409 11.8318,94.089 C12.0668,93.77 12.1588,93.326 12.1028,92.756 C12.0638,92.346 11.9278,91.969 11.6968,91.624 C11.4658,91.28 11.1658,91.003 10.7978,90.794 C10.4288,90.585 10.0318,90.473 9.6068,90.458 L5.1548,90.27 L5.0858,89.557 C5.7388,89.587 6.9458,89.642 8.7088,89.72 C10.4728,89.798 11.3908,89.833 11.4658,89.826 C11.6978,89.803 11.8048,89.685 11.7838,89.47 C11.7628,89.256 11.6638,89.016 11.4878,88.75 L12.0968,88.776 C12.3018,89.038 12.4188,89.324 12.4488,89.631 C12.4778,89.92 12.4128,90.136 12.2568,90.278 C12.1028,90.42 11.8888,90.504 11.6178,90.531 C11.5538,90.537 11.4548,90.537 11.3218,90.532 C11.7248,90.793 12.0548,91.136 12.3118,91.557" id="Fill-214" fill="#FFFFFF"></path>
                <path d="M12.3103,85.4954 C12.3123,85.8804 12.2143,86.1824 12.0153,86.4044 C11.8153,86.6264 11.5133,86.7384 11.1113,86.7424 C11.0463,86.7424 10.9293,86.7344 10.7593,86.7174 L5.6393,86.0414 L5.6463,86.8284 L4.9993,86.7354 L4.9923,85.9484 L2.6973,85.3914 L2.6933,84.9284 L4.9863,85.2314 L4.9733,83.5594 L5.6203,83.6534 L5.6343,85.3254 L10.7263,86.0004 C10.8583,86.0174 10.9463,86.0264 10.9943,86.0264 C11.2643,86.0234 11.4453,85.9594 11.5333,85.8324 C11.6213,85.7044 11.6643,85.5334 11.6623,85.3184 C11.6603,85.2154 11.6373,85.0724 11.5883,84.8914 C11.5393,84.7084 11.4873,84.5524 11.4293,84.4204 L12.0623,84.5004 C12.2243,84.7984 12.3063,85.1314 12.3103,85.4954" id="Fill-216" fill="#FFFFFF"></path>
                <path d="M12.3694,79.054 L5.3164,77.371 L5.3844,76.658 L12.4374,78.34 L12.3694,79.054 Z M2.4264,76.744 L2.5034,75.919 L3.2504,76.089 L3.1724,76.914 L2.4264,76.744 Z" id="Fill-218" fill="#FFFFFF"></path>
                <path d="M13.0906,74.014 C13.0316,74.393 12.8866,74.677 12.6546,74.864 C12.4226,75.052 12.1076,75.115 11.7086,75.053 C11.6446,75.043 11.5286,75.017 11.3666,74.973 L6.4176,73.493 L6.2996,74.271 L5.6756,74.076 L5.7936,73.298 L3.6166,72.383 L3.6876,71.925 L5.9016,72.59 L6.1546,70.938 L6.7786,71.132 L6.5266,72.785 L11.4466,74.261 C11.5726,74.298 11.6596,74.322 11.7056,74.328 C11.9746,74.369 12.1626,74.334 12.2696,74.223 C12.3766,74.111 12.4466,73.949 12.4786,73.736 C12.4946,73.634 12.4926,73.489 12.4736,73.301 C12.4556,73.114 12.4276,72.952 12.3926,72.813 L13.0046,72.992 C13.1166,73.312 13.1456,73.653 13.0906,74.014" id="Fill-220" fill="#FFFFFF"></path>
                <g id="Group-4" transform="translate(9.000000, 3.000000)" fill="#FFFFFF">
                    <path d="M2.7092,48.5277 C3.4162,48.1737 4.2312,48.1837 5.1582,48.5587 C5.4092,48.6597 5.6362,48.7717 5.8382,48.8937 L5.3232,50.1657 C5.1362,50.0587 4.9542,49.9707 4.7812,49.9007 C4.1682,49.6527 3.6422,49.6337 3.2042,49.8447 C2.7662,50.0557 2.4302,50.4507 2.1952,51.0307 C1.8952,51.7747 1.8782,52.4857 2.1432,53.1607 C2.4082,53.8367 2.9972,54.4397 3.9102,54.9697 C4.8552,55.5227 5.4612,55.8527 5.7302,55.9617 C6.4472,56.2527 7.0492,56.2887 7.5332,56.0727 C8.0202,55.8557 8.3942,55.4237 8.6552,54.7747 C8.9292,54.0987 8.9612,53.4527 8.7522,52.8357 C8.5442,52.2167 8.0692,51.6937 7.3272,51.2617 L7.8202,50.0427 C8.9272,50.6917 9.6322,51.4797 9.9382,52.4077 C10.2412,53.3367 10.1782,54.3327 9.7472,55.3967 C9.3562,56.3657 8.7782,57.0277 8.0172,57.3837 C7.2522,57.7407 6.3572,57.7107 5.3262,57.2947 C5.0152,57.1687 4.3722,56.8177 3.3962,56.2427 C2.1412,55.5127 1.3272,54.6487 0.9562,53.6477 C0.5852,52.6477 0.6352,51.5677 1.1052,50.4077 C1.4672,49.5077 2.0032,48.8817 2.7092,48.5277" id="Fill-258"></path>
                    <path d="M6.303,44.1253 C6.478,44.8333 6.983,45.5093 7.822,46.1513 C8.761,46.8623 9.307,47.2603 9.462,47.3473 C10.146,47.7313 10.747,47.8463 11.269,47.6883 C11.791,47.5323 12.223,47.1493 12.566,46.5403 C12.955,45.8483 13.064,45.1463 12.892,44.4333 C12.72,43.7213 12.216,43.0393 11.383,42.3893 C10.526,41.7243 9.979,41.3253 9.742,41.1923 C9.06,40.8083 8.455,40.6973 7.932,40.8563 C7.407,41.0183 6.977,41.3983 6.638,42.0013 C6.24,42.7083 6.128,43.4173 6.303,44.1253 M7.62,39.5103 C8.443,39.2493 9.341,39.3933 10.318,39.9423 C10.585,40.0933 11.165,40.5103 12.056,41.1923 C13.197,42.0593 13.884,43.0233 14.121,44.0893 C14.358,45.1533 14.174,46.2233 13.571,47.2963 C13.067,48.1913 12.404,48.7713 11.58,49.0363 C10.756,49.3013 9.861,49.1613 8.893,48.6173 C8.773,48.5623 8.65,48.4863 8.522,48.3923 C8.391,48.2983 8.227,48.1733 8.025,48.0173 L7.15,47.3473 C6.012,46.4943 5.325,45.5293 5.09,44.4543 C4.854,43.3803 5.034,42.3093 5.634,41.2433 C6.137,40.3493 6.8,39.7713 7.62,39.5103" id="Fill-259"></path>
                    <polygon id="Fill-260" points="16.0871 26.8421 22.7861 33.8561 21.9371 34.9331 16.3621 29.0921 16.3101 29.1581 19.8301 37.6041 19.1111 38.5161 11.4901 35.2691 11.4471 35.3241 17.0221 41.1651 16.2491 42.1441 9.5501 35.1301 10.8851 33.4371 18.0771 36.5251 18.1121 36.4811 14.7601 28.5241"></polygon>
                    <path d="M20.4905,24.429 L22.3005,26.994 L24.2295,25.184 C24.4625,24.967 24.6255,24.701 24.7215,24.387 C24.8175,24.074 24.8395,23.759 24.7865,23.444 C24.7335,23.128 24.6015,22.858 24.3915,22.634 C24.1235,22.348 23.8045,22.202 23.4345,22.197 C23.0645,22.191 22.7275,22.332 22.4215,22.619 L20.4905,24.429 Z M23.5515,20.744 C24.1915,20.739 24.7545,20.995 25.2395,21.512 C25.6805,21.982 25.9665,22.488 26.0975,23.03 C26.2285,23.573 26.2035,24.115 26.0195,24.658 C25.8375,25.2 25.5115,25.691 25.0415,26.131 L23.0185,28.027 L25.3485,31.331 L24.3475,32.269 L18.7695,24.334 L21.7935,21.5 C22.3245,21.002 22.9105,20.75 23.5515,20.744 Z" id="Fill-261"></path>
                    <path d="M34.8069,19.6361 C35.2809,20.5271 35.4109,21.4011 35.1979,22.2591 C34.9849,23.1171 34.4239,23.8761 33.5189,24.5331 L33.3709,24.6411 C32.6019,25.2001 31.8579,25.4471 31.1399,25.3791 C30.4219,25.3131 29.8219,24.9471 29.3389,24.2821 C29.2789,24.1981 29.1199,23.9171 28.8619,23.4351 C28.6049,22.9531 28.4159,22.5991 28.2979,22.3731 L25.9469,17.9901 L27.0569,17.1851 L29.1419,21.1041 L29.8059,22.3521 L30.0989,22.8991 C30.1809,23.0591 30.2469,23.1731 30.2949,23.2411 C30.5919,23.6491 30.9689,23.8801 31.4289,23.9321 C31.8879,23.9851 32.3639,23.8331 32.8549,23.4771 C33.3979,23.0811 33.7429,22.6071 33.8879,22.0521 C34.0329,21.4961 33.9629,20.9521 33.6799,20.4201 L30.5899,14.6181 L31.7009,13.8111 L34.8069,19.6361 Z" id="Fill-262"></path>
                    <polygon id="Fill-263" points="40.178 8.9828 40.633 10.1568 38.012 11.6378 41.101 19.4928 39.907 20.1688 36.818 12.3138 34.209 13.7878 33.755 12.6128"></polygon>
                    <polygon id="Fill-264" points="48.2532 5.5829 48.4032 6.8729 44.0322 8.7209 44.7732 11.4789 48.7312 9.8039 49.0492 11.0219 45.0902 12.6969 45.8862 15.6589 50.3352 13.7769 50.8192 14.9249 44.9402 17.4109 42.4502 8.0369"></polygon>
                    <path d="M52.4651,5.5887 L52.8721,8.4727 L55.4961,7.7187 C55.7661,7.6407 56.0091,7.4927 56.2291,7.2747 C56.4461,7.0567 56.6031,6.8007 56.6931,6.5077 C56.7821,6.2147 56.7861,5.9207 56.7001,5.6247 C56.6011,5.2747 56.4051,5.0267 56.1151,4.8817 C55.8261,4.7367 55.4851,4.7217 55.0891,4.8347 L52.4651,5.5887 Z M56.8311,3.5687 C57.3961,3.7617 57.7691,4.1717 57.9491,4.7987 C58.0571,5.1757 58.0851,5.5687 58.0331,5.9767 C57.9811,6.3847 57.8411,6.7627 57.6161,7.1097 C57.3901,7.4557 57.0811,7.7237 56.6891,7.9147 L56.7081,7.9827 C57.0111,8.0217 57.3301,8.1527 57.6651,8.3767 C58.0021,8.6007 58.2581,9.0177 58.4351,9.6277 C58.4781,9.7797 58.5301,10.0317 58.5921,10.3827 C58.6391,10.6807 58.6771,10.8787 58.7051,10.9767 C58.7931,11.2817 58.9011,11.4937 59.0271,11.6127 C59.1521,11.7317 59.3111,11.7977 59.4991,11.8117 L59.5541,12.2047 C59.3771,12.3327 59.1491,12.4367 58.8711,12.5167 C58.5301,12.6147 58.2361,12.6077 57.9901,12.4937 C57.7431,12.3807 57.5541,12.0897 57.4191,11.6237 C57.3761,11.4707 57.3251,11.2277 57.2701,10.8947 C57.2361,10.6807 57.2041,10.5197 57.1731,10.4127 C56.9981,9.8017 56.7431,9.3967 56.4091,9.1967 C56.0741,8.9967 55.7341,8.9467 55.3831,9.0477 L53.0421,9.7207 L53.6441,13.9467 L52.3261,14.3257 L50.9641,4.7237 L54.8941,3.5937 C55.6201,3.3857 56.2661,3.3777 56.8311,3.5687 Z" id="Fill-265"></path>
                    <path d="M66.8664,1.9364 C67.5314,2.3634 67.9404,3.0694 68.0924,4.0574 C68.1334,4.3244 68.1524,4.5764 68.1514,4.8124 L66.7954,5.0204 C66.7894,4.8054 66.7734,4.6034 66.7444,4.4194 C66.6434,3.7644 66.3924,3.3024 65.9874,3.0344 C65.5834,2.7664 65.0714,2.6794 64.4534,2.7734 C63.6594,2.8954 63.0404,3.2434 62.5954,3.8164 C62.1484,4.3904 61.9304,5.2054 61.9434,6.2604 C61.9504,7.3544 61.9764,8.0454 62.0204,8.3314 C62.1374,9.0964 62.4124,9.6324 62.8464,9.9394 C63.2814,10.2464 63.8444,10.3464 64.5354,10.2394 C65.2564,10.1294 65.8274,9.8264 66.2514,9.3324 C66.6774,8.8374 66.8854,8.1614 66.8764,7.3034 L68.1774,7.1034 C68.1844,8.3864 67.8684,9.3954 67.2254,10.1314 C66.5834,10.8674 65.6944,11.3224 64.5584,11.4964 C63.5264,11.6554 62.6614,11.4974 61.9654,11.0234 C61.2694,10.5494 60.8374,9.7644 60.6694,8.6654 C60.6174,8.3334 60.5914,7.6014 60.5874,6.4684 C60.5724,5.0174 60.8994,3.8764 61.5704,3.0464 C62.2404,2.2164 63.1934,1.7064 64.4294,1.5174 C65.3884,1.3694 66.2024,1.5094 66.8664,1.9364" id="Fill-266"></path>
                    <path d="M72.2922,2.1781 L71.9562,5.0721 L74.6862,5.0041 C74.9662,4.9961 75.2392,4.9151 75.5072,4.7591 C75.7722,4.6041 75.9872,4.3951 76.1482,4.1341 C76.3112,3.8731 76.3882,3.5891 76.3802,3.2811 C76.3712,2.9171 76.2442,2.6291 76.0012,2.4151 C75.7572,2.2021 75.4312,2.1011 75.0212,2.1111 L72.2922,2.1781 Z M77.0242,1.3251 C77.5232,1.6551 77.7802,2.1451 77.7972,2.7981 C77.8072,3.1901 77.7332,3.5761 77.5792,3.9581 C77.4272,4.3411 77.1962,4.6711 76.8912,4.9491 C76.5852,5.2271 76.2182,5.4091 75.7902,5.4941 L75.7922,5.5651 C76.0752,5.6791 76.3512,5.8871 76.6202,6.1881 C76.8892,6.4901 77.0312,6.9571 77.0482,7.5921 C77.0522,7.7511 77.0382,8.0081 77.0102,8.3641 C76.9802,8.6621 76.9662,8.8641 76.9692,8.9671 C76.9772,9.2841 77.0262,9.5161 77.1202,9.6621 C77.2122,9.8101 77.3482,9.9141 77.5262,9.9751 L77.4792,10.3681 C77.2762,10.4481 77.0302,10.4911 76.7412,10.4981 C76.3862,10.5071 76.1042,10.4261 75.8952,10.2531 C75.6862,10.0811 75.5742,9.7521 75.5632,9.2671 C75.5582,9.1091 75.5712,8.8611 75.6002,8.5241 C75.6232,8.3091 75.6332,8.1451 75.6302,8.0331 C75.6142,7.3991 75.4702,6.9431 75.1962,6.6641 C74.9232,6.3871 74.6052,6.2521 74.2412,6.2611 L71.8062,6.3221 L71.3222,10.5631 L69.9512,10.5971 L71.0562,0.9631 L75.1442,0.8611 C75.8992,0.8421 76.5252,0.9971 77.0242,1.3251 Z" id="Fill-267"></path>
                    <path d="M84.2141,2.9842 L84.1301,2.9752 L81.2531,7.3272 L84.8601,7.6932 L84.2141,2.9842 Z M85.3971,1.4432 L86.8081,11.2402 L85.3311,11.0902 L85.0271,8.9632 L80.4591,8.4992 L79.1611,10.4632 L77.8531,10.3312 L83.8931,1.2912 L85.3971,1.4432 Z" id="Fill-268"></path>
                    <path d="M92.1418,3.8309 L91.0358,6.7679 L93.6168,7.3499 C93.9258,7.4199 94.2378,7.4059 94.5518,7.3099 C94.8658,7.2129 95.1378,7.0539 95.3698,6.8339 C95.6008,6.6139 95.7498,6.3529 95.8188,6.0529 C95.9058,5.6699 95.8448,5.3259 95.6428,5.0159 C95.4408,4.7059 95.1338,4.5059 94.7238,4.4139 L92.1418,3.8309 Z M96.9118,4.2969 C97.2738,4.8239 97.3788,5.4339 97.2238,6.1249 C97.0798,6.7539 96.8228,7.2749 96.4468,7.6869 C96.0718,8.0999 95.6078,8.3829 95.0568,8.5369 C94.5048,8.6889 93.9148,8.6949 93.2878,8.5529 L90.5828,7.9419 L89.1568,11.7249 L87.8178,11.4219 L91.2558,2.3529 L95.2998,3.2659 C96.0088,3.4259 96.5458,3.7699 96.9118,4.2969 Z" id="Fill-269"></path>
                    <polygon id="Fill-270" points="107.3235 7.183 102.7805 15.753 101.4915 15.287 103.5125 11.462 99.3925 9.973 97.3715 13.797 96.0795 13.331 100.6225 4.76 101.9115 5.227 99.9875 8.863 104.1075 10.353 106.0325 6.716"></polygon>
                    <polygon id="Fill-271" points="113.052 9.9593 112.349 11.0043 111.339 10.5203 107.369 16.5033 108.379 16.9873 107.677 18.0323 104.419 16.4723 105.121 15.4263 106.132 15.9103 110.102 9.9273 109.091 9.4423 109.795 8.3973"></polygon>
                    <path d="M120.1457,14.8529 C120.3817,15.6069 120.2427,16.4109 119.7257,17.2649 C119.5847,17.4969 119.4387,17.7029 119.2867,17.8829 L118.1127,17.1719 C118.2477,17.0029 118.3627,16.8389 118.4587,16.6789 C118.8027,16.1119 118.9057,15.5959 118.7667,15.1309 C118.6287,14.6649 118.2917,14.2699 117.7567,13.9469 C117.0707,13.5309 116.3727,13.3999 115.6627,13.5539 C114.9527,13.7079 114.2637,14.1939 113.5947,15.0109 C112.8977,15.8539 112.4747,16.3999 112.3257,16.6479 C111.9227,17.3109 111.7917,17.8989 111.9277,18.4129 C112.0647,18.9259 112.4327,19.3639 113.0317,19.7259 C113.6537,20.1029 114.2867,20.2379 114.9297,20.1309 C115.5737,20.0239 116.1667,19.6379 116.7097,18.9749 L117.8357,19.6559 C117.0187,20.6449 116.1267,21.2169 115.1637,21.3689 C114.1977,21.5209 113.2237,21.2999 112.2427,20.7059 C111.3477,20.1639 110.7857,19.4879 110.5547,18.6779 C110.3267,17.8689 110.4997,16.9889 111.0747,16.0379 C111.2487,15.7499 111.6977,15.1709 112.4207,14.2999 C113.3407,13.1769 114.3247,12.5119 115.3717,12.3059 C116.4167,12.0999 117.4757,12.3199 118.5457,12.9679 C119.3757,13.4699 119.9097,14.0989 120.1457,14.8529" id="Fill-272"></path>
                    <path d="M127.9143,20.4295 C128.1223,21.0625 127.9913,21.6765 127.5243,22.2695 C127.4013,22.4245 127.2603,22.5735 127.0983,22.7185 L126.0203,21.8695 C126.1663,21.7455 126.2613,21.6545 126.3083,21.5965 C126.5513,21.2885 126.6083,20.9505 126.4813,20.5835 C126.3553,20.2165 126.0763,19.8625 125.6433,19.5215 C125.1163,19.1045 124.6083,18.8595 124.1213,18.7835 C123.6333,18.7085 123.2433,18.8575 122.9483,19.2315 C122.7743,19.4515 122.7043,19.6905 122.7383,19.9495 C122.7723,20.2075 122.8673,20.4645 123.0233,20.7175 C123.1803,20.9715 123.4073,21.3005 123.7083,21.7035 C124.1103,22.2345 124.4153,22.6885 124.6213,23.0665 C124.8293,23.4435 124.9383,23.8545 124.9523,24.2985 C124.9653,24.7415 124.7943,25.1875 124.4413,25.6345 C123.7713,26.4845 122.9963,26.8755 122.1173,26.8055 C121.2383,26.7365 120.3023,26.3085 119.3053,25.5225 C118.5273,24.9105 118.0203,24.2675 117.7863,23.5945 C117.5503,22.9205 117.6873,22.2615 118.1963,21.6165 C118.2773,21.5135 118.3703,21.4105 118.4773,21.3045 C118.5843,21.1995 118.6763,21.1215 118.7503,21.0725 L119.8273,21.9235 C119.7883,21.9275 119.7213,21.9765 119.6303,22.0705 C119.5383,22.1645 119.4663,22.2445 119.4143,22.3105 C119.1373,22.6615 119.0703,23.0365 119.2143,23.4355 C119.3563,23.8345 119.6703,24.2235 120.1523,24.6055 C120.7833,25.1025 121.3703,25.3785 121.9153,25.4345 C122.4613,25.4895 122.9033,25.3015 123.2443,24.8685 C123.4313,24.6345 123.5073,24.3865 123.4763,24.1235 C123.4443,23.8615 123.3523,23.6045 123.2003,23.3535 C123.0483,23.1025 122.8173,22.7655 122.5073,22.3435 C122.1133,21.8185 121.8113,21.3675 121.6063,20.9895 C121.3983,20.6125 121.2913,20.2015 121.2853,19.7575 C121.2793,19.3125 121.4523,18.8665 121.8063,18.4195 C122.3653,17.7085 123.0683,17.3895 123.9153,17.4625 C124.7613,17.5355 125.6313,17.9245 126.5243,18.6295 C127.2433,19.1965 127.7073,19.7965 127.9143,20.4295" id="Fill-273"></path>
                    <polygon id="Fill-274" points="125.6496 28.7249 124.4346 29.7179 123.4016 28.7539 124.6156 27.7609"></polygon>
                    <path d="M137.4621,30.4144 C137.4711,31.2044 137.1051,31.9344 136.3621,32.6024 C136.1611,32.7844 135.9621,32.9384 135.7641,33.0664 L134.8451,32.0484 C135.0231,31.9264 135.1811,31.8024 135.3191,31.6764 C135.8131,31.2324 136.0601,30.7684 136.0621,30.2824 C136.0641,29.7964 135.8561,29.3214 135.4361,28.8574 C134.8991,28.2614 134.2681,27.9344 133.5441,27.8764 C132.8201,27.8194 132.0211,28.0854 131.1441,28.6744 C130.2331,29.2814 129.6711,29.6824 129.4561,29.8754 C128.8811,30.3944 128.5831,30.9194 128.5661,31.4504 C128.5481,31.9814 128.7741,32.5074 129.2421,33.0264 C129.7311,33.5674 130.2971,33.8794 130.9431,33.9634 C131.5901,34.0464 132.2701,33.8484 132.9831,33.3694 L133.8631,34.3474 C132.7961,35.0584 131.7771,35.3474 130.8101,35.2144 C129.8411,35.0824 128.9741,34.5894 128.2041,33.7364 C127.5051,32.9594 127.1621,32.1504 127.1761,31.3094 C127.1911,30.4674 127.6091,29.6744 128.4351,28.9314 C128.6841,28.7064 129.2801,28.2814 130.2261,27.6554 C131.4311,26.8464 132.5641,26.4924 133.6251,26.5974 C134.6881,26.7024 135.6371,27.2194 136.4751,28.1474 C137.1241,28.8694 137.4531,29.6234 137.4621,30.4144" id="Fill-275"></path>
                    <path d="M139.8391,35.5677 C139.1261,35.4147 138.2961,35.5727 137.3521,36.0447 C136.3031,36.5777 135.7041,36.8947 135.5591,36.9957 C134.9131,37.4417 134.5471,37.9327 134.4601,38.4697 C134.3711,39.0067 134.5271,39.5637 134.9241,40.1397 C135.3761,40.7927 135.9581,41.1977 136.6751,41.3557 C137.3911,41.5127 138.2241,41.3597 139.1741,40.8957 C140.1481,40.4157 140.7441,40.0987 140.9681,39.9447 C141.6121,39.4987 141.9781,39.0057 142.0641,38.4637 C142.1491,37.9227 141.9941,37.3687 141.6031,36.7997 C141.1401,36.1317 140.5531,35.7207 139.8391,35.5677 M143.4091,38.7747 C143.2851,39.6277 142.7611,40.3727 141.8411,41.0087 C141.5871,41.1847 140.9581,41.5227 139.9541,42.0237 C138.6761,42.6697 137.5061,42.8647 136.4451,42.6117 C135.3861,42.3577 134.5051,41.7237 133.8041,40.7107 C133.2201,39.8667 132.9891,39.0157 133.1121,38.1587 C133.2351,37.3027 133.7531,36.5587 134.6671,35.9267 C134.7691,35.8447 134.8901,35.7667 135.0311,35.6917 C135.1731,35.6167 135.3581,35.5227 135.5871,35.4107 L136.5721,34.9167 C137.8371,34.2687 139.0051,34.0737 140.0751,34.3327 C141.1441,34.5907 142.0271,35.2237 142.7221,36.2297 C143.3071,37.0737 143.5351,37.9227 143.4091,38.7747" id="Fill-276"></path>
                    <polygon id="Fill-277" points="151.095 51.8963 141.864 54.8683 141.264 53.6343 148.95 51.1633 148.914 51.0883 139.779 50.5733 139.271 49.5283 145.515 44.0853 145.485 44.0223 137.798 46.4923 137.253 45.3723 146.488 42.3993 147.429 44.3393 141.513 49.4673 141.538 49.5173 150.16 49.9693"></polygon>
                </g>
            </g>
        </g>
    </g>
</svg>