<?xml version="1.0" encoding="UTF-8"?>
<svg width="116px" height="109px" viewBox="0 0 116 109" version="1.1" xmlns="http://www.w3.org/2000/svg" xmlns:xlink="http://www.w3.org/1999/xlink">
    <!-- Generator: Sketch 48.2 (47327) - http://www.bohemiancoding.com/sketch -->
    <title>video-logo-center</title>
    <desc>Created with Sketch.</desc>
    <defs>
        <polygon id="path-1" points="0 207.379 207.379 207.379 207.379 0 0 0"></polygon>
    </defs>
    <g id="Sticker" stroke="none" stroke-width="1" fill="none" fill-rule="evenodd" transform="translate(-48.000000, -44.000000)">
        <g id="video-logo-center">
            <g transform="translate(0.000000, 1.000000)">
                <path d="M82.8821,147.6527 C72.1531,147.6527 63.5611,143.6077 58.6911,136.2617 C53.3291,128.1737 53.1071,116.7827 58.0831,105.0087 L60.8471,106.1767 C56.2691,117.0077 56.3951,127.3687 61.1921,134.6037 C65.4871,141.0837 73.1911,144.6527 82.8821,144.6527 C104.6991,144.6527 129.9651,126.8687 139.2031,105.0087 L141.9671,106.1767 C132.3011,129.0467 105.7961,147.6527 82.8821,147.6527" id="Fill-222" fill="#000000"></path>
                <path d="M57.3072,80.5897 C61.8032,69.9507 73.0372,61.9067 83.0402,61.9067 C86.6922,61.9067 89.1732,63.1767 90.6382,64.3407 L93.0822,62.0647 L94.7232,62.0647 L89.8912,73.4977 L88.3032,73.4977 C88.6082,67.5157 86.8932,63.8107 81.7062,63.8107 C75.6192,63.8107 67.6762,69.5807 63.1132,80.3777 C58.7732,90.6457 63.2642,95.6737 69.1922,95.6737 C75.1732,95.6737 79.9982,92.0217 83.9412,87.5767 L85.3292,88.4227 C81.0792,93.3457 74.3802,98.4267 66.6532,98.4267 C56.7022,98.4267 52.7662,91.3337 57.3072,80.5897" id="Fill-224" fill="#000000"></path>
                <path d="M116.0072,80.5897 C120.5042,69.9507 131.7372,61.9067 141.7402,61.9067 C145.3922,61.9067 147.8732,63.1767 149.3382,64.3407 L151.7832,62.0647 L153.4242,62.0647 L148.5912,73.4977 L147.0032,73.4977 C147.3082,67.5157 145.5932,63.8107 140.4062,63.8107 C134.3192,63.8107 126.3762,69.5807 121.8132,80.3777 C117.4732,90.6457 121.9642,95.6737 127.8922,95.6737 C133.8732,95.6737 138.6982,92.0217 142.6412,87.5767 L144.0292,88.4227 C139.7792,93.3457 133.0802,98.4267 125.3532,98.4267 C115.4022,98.4267 111.4662,91.3337 116.0072,80.5897" id="Fill-226" fill="#000000"></path>
                <path d="M144.4592,91.8607 L145.0212,91.8607 L145.0832,92.1727 L145.1142,92.2047 L145.1462,92.1727 C145.3332,91.9227 145.5832,91.7987 145.8322,91.7987 C145.9572,91.7987 146.0192,91.7987 146.1442,91.8607 L146.1442,92.4227 L145.7702,92.4227 C145.4012,92.4227 145.0962,92.7217 145.0832,93.0847 L145.0832,94.7947 L144.4592,94.7947 L144.4592,91.8607 Z" id="Fill-228" fill="#000000"></path>
                <path d="M147.7986,92.3607 C147.2056,92.3607 146.8876,92.7977 146.8876,93.3277 C146.8876,93.8577 147.2056,94.2957 147.7986,94.2957 C148.3286,94.2957 148.7036,93.8577 148.7036,93.3277 C148.7036,92.7977 148.3286,92.3607 147.7986,92.3607 Z M149.2646,94.7947 L148.7036,94.7947 L148.6406,94.5447 L148.6096,94.5127 L148.5786,94.5447 C148.3916,94.7317 148.0796,94.8567 147.7676,94.8567 C146.9556,94.8567 146.2696,94.2327 146.2696,93.3277 C146.2696,92.4227 146.9556,91.7987 147.7676,91.7987 C148.0796,91.7987 148.3916,91.9237 148.5786,92.1107 L148.6096,92.1417 L148.6406,92.1107 L148.7036,91.8607 L149.2646,91.8607 L149.2646,94.7947 Z" id="Fill-230" fill="#000000"></path>
                <path d="M151.4807,94.2952 C152.0737,94.2952 152.3857,93.8582 152.3857,93.3272 C152.3857,92.7972 152.0737,92.3602 151.4807,92.3602 C150.9507,92.3602 150.5757,92.7972 150.5757,93.3272 C150.5757,93.8582 150.9507,94.2952 151.4807,94.2952 Z M150.0147,91.8602 L150.5757,91.8602 L150.6317,92.1102 L150.6697,92.1422 L150.7007,92.1102 C150.8877,91.9232 151.1997,91.7992 151.5117,91.7992 C152.3237,91.7992 153.0097,92.4232 153.0097,93.3272 C153.0097,94.2332 152.3237,94.8572 151.5117,94.8572 C151.2067,94.8572 150.8877,94.7322 150.7007,94.5442 L150.6697,94.5132 L150.6317,94.5442 L150.6317,96.1172 L150.0147,96.1172 L150.0147,91.8602 Z" id="Fill-232" fill="#000000"></path>
                <path d="M153.572,90.0511 L154.196,90.0511 L154.196,92.1111 L154.227,92.1421 L154.259,92.1111 C154.383,91.9231 154.695,91.7991 154.945,91.7991 C155.694,91.7991 156.131,92.2981 156.131,92.9851 L156.131,94.7941 L155.507,94.7941 L155.507,92.9851 C155.488,92.5851 155.295,92.3611 154.883,92.3611 C154.514,92.3611 154.209,92.6591 154.196,93.0221 L154.196,94.7941 L153.572,94.7941 L153.572,90.0511 Z" id="Fill-234" fill="#000000"></path>
                <mask id="mask-2" fill="white">
                    <use xlink:href="#path-1"></use>
                </mask>
                <g id="Clip-237"></g>
                <path d="M156.823,94.795 L157.434,94.795 L157.434,91.861 L156.823,91.861 L156.823,94.795 Z M156.817,91.3 L157.441,91.3 L157.441,90.613 L156.817,90.613 L156.817,91.3 Z" id="Fill-236" fill="#000000" mask="url(#mask-2)"></path>
                <path d="M159.532,94.2952 C159.907,94.2952 160.194,94.0452 160.293,93.7952 L160.78,94.1082 C160.537,94.5442 160.094,94.8572 159.501,94.8572 C158.715,94.8572 158.003,94.2332 158.003,93.3272 C158.003,92.4232 158.715,91.7992 159.501,91.7992 C160.094,91.7992 160.531,92.1102 160.774,92.5472 L160.287,92.8592 C160.187,92.6092 159.907,92.3602 159.532,92.3602 C158.939,92.3602 158.615,92.7972 158.615,93.3272 C158.615,93.8582 158.939,94.2952 159.532,94.2952" id="Fill-238" fill="#000000" mask="url(#mask-2)"></path>
                <path d="M160.9993,93.9828 L161.5613,93.7648 C161.5923,94.0768 161.8413,94.3078 162.1533,94.3078 C162.4653,94.3078 162.6223,94.1388 162.6223,93.9518 C162.6223,93.7708 162.4973,93.6768 162.2473,93.6328 C162.1413,93.6148 162.0353,93.5898 161.9353,93.5648 C161.4363,93.4398 161.0923,93.1398 161.0923,92.6718 C161.0923,92.1108 161.6233,91.7988 162.1223,91.7988 C162.6533,91.7988 163.1213,92.1418 163.1833,92.6718 L162.5593,92.6718 C162.5593,92.4848 162.3723,92.3478 162.1223,92.3478 C161.8733,92.3478 161.6863,92.4848 161.6863,92.6718 C161.6863,92.8598 161.8353,92.9658 162.0603,93.0088 L162.3723,93.0718 C162.8583,93.1778 163.2143,93.4528 163.2143,93.9518 C163.2143,94.4518 162.7463,94.8568 162.1533,94.8568 C161.5613,94.8568 161.1243,94.5128 160.9993,93.9828" id="Fill-239" fill="#000000" mask="url(#mask-2)"></path>
                <path d="M140.4534,135.7176 C140.4804,135.5936 140.4354,135.3196 140.4094,135.2396 L139.4534,132.5056 C139.3824,132.3016 139.2234,132.1686 138.9134,132.1686 L138.7104,132.1686 C138.6574,132.1686 138.6394,132.1516 138.6484,132.0986 L138.6834,131.9116 C138.6924,131.8506 138.7104,131.8416 138.7714,131.8416 C138.8874,131.8416 139.1174,131.8676 139.7014,131.8676 C140.3734,131.8676 140.6744,131.8416 140.7894,131.8416 C140.8514,131.8416 140.8784,131.8596 140.8694,131.9116 L140.8514,132.0986 C140.8434,132.1516 140.8254,132.1686 140.7724,132.1686 L140.5424,132.1686 C140.2054,132.1686 140.1874,132.3906 140.2594,132.5936 L141.0814,135.0546 C141.1174,135.1686 141.1524,135.1686 141.2144,135.0896 C141.4094,134.8236 142.7454,132.9216 142.8434,132.6476 C142.9584,132.3106 142.8694,132.1686 142.5154,132.1686 L142.3384,132.1686 C142.2854,132.1686 142.2674,132.1336 142.2764,132.0806 L142.2944,131.9116 C142.3034,131.8506 142.3214,131.8416 142.4004,131.8416 C142.5244,131.8416 142.8694,131.8676 143.3744,131.8676 C143.8604,131.8676 144.1264,131.8416 144.2414,131.8416 C144.3214,131.8416 144.3384,131.8676 144.3294,131.9116 L144.3034,132.0806 C144.2944,132.1516 144.2764,132.1686 144.2324,132.1686 L144.0644,132.1686 C143.7634,132.1686 143.6044,132.3106 143.3744,132.6026 C143.2504,132.7616 141.6304,135.0356 141.5064,135.2136 C141.3114,135.4886 141.2234,135.6026 141.1354,136.0006 L140.9134,137.0006 C140.8164,137.4526 140.9674,137.4966 141.2594,137.4966 L141.5244,137.4966 C141.5774,137.4966 141.5954,137.5236 141.5864,137.5676 L141.5594,137.7536 C141.5514,137.7976 141.5334,137.8236 141.4624,137.8236 C141.3294,137.8236 141.0464,137.7976 140.3914,137.7976 C139.6574,137.7976 139.3824,137.8236 139.2854,137.8236 C139.2324,137.8236 139.2054,137.8066 139.2144,137.7536 L139.2494,137.5676 C139.2494,137.5236 139.2674,137.4966 139.3294,137.4966 L139.5864,137.4966 C140.0024,137.4966 140.0994,137.2926 140.1614,137.0286 L140.4534,135.7176 Z" id="Fill-240" fill="#000000" mask="url(#mask-2)"></path>
                <path d="M143.7536,135.8416 C144.0636,135.8676 145.2226,135.4966 145.2226,134.8416 C145.2226,134.6646 145.1336,134.5056 144.9396,134.5056 C144.3726,134.5056 143.8246,135.5236 143.7536,135.8416 M142.9656,137.0186 C142.9656,136.2756 143.4526,135.3466 144.0986,134.7086 C144.3816,134.4256 144.8596,134.1156 145.2846,134.1156 C145.6296,134.1156 145.7886,134.3726 145.7886,134.5846 C145.7886,135.0186 145.4616,135.4796 144.9656,135.7356 C144.4876,135.9746 144.0096,136.0716 143.6826,136.0986 C143.6386,136.2046 143.5676,136.4966 143.5676,136.9126 C143.5676,137.3116 143.8596,137.4706 144.0276,137.4706 C144.4616,137.4706 144.8506,137.1426 145.0366,136.8416 C145.0546,136.8156 145.0806,136.7976 145.1166,136.8326 L145.2136,136.9126 C145.2576,136.9396 145.2576,136.9656 145.2226,136.9916 C145.0016,137.3016 144.4706,137.8866 143.7886,137.8866 C143.2136,137.8866 142.9656,137.6036 142.9656,137.0186" id="Fill-241" fill="#000000" mask="url(#mask-2)"></path>
                <path d="M148.5759,135.6561 C148.6999,135.3991 148.7879,135.1781 148.7879,134.9221 C148.7879,134.6821 148.6999,134.3991 148.3719,134.3991 C147.5579,134.3991 146.6109,136.2661 146.6109,137.1071 C146.6109,137.3111 146.6999,137.4171 146.8499,137.4171 C147.2929,137.4171 148.4169,135.9831 148.5759,135.6561 Z M149.6909,134.1161 C149.7259,134.1161 149.7359,134.1601 149.7179,134.1961 C149.5499,134.5581 149.0979,135.7801 149.0539,135.9221 C149.0009,136.0721 148.6289,137.1701 148.6289,137.2491 C148.6289,137.3291 148.6729,137.3551 148.7259,137.3551 C148.8329,137.3551 149.2839,136.8951 149.3459,136.8151 C149.3719,136.7891 149.3989,136.7711 149.4169,136.7981 L149.4959,136.8861 C149.5229,136.9131 149.5319,136.9301 149.5139,136.9571 C149.4169,137.1341 148.6469,137.8861 148.1419,137.8861 C148.0359,137.8861 147.9559,137.8501 147.9559,137.7361 C147.9559,137.6031 148.0449,137.3291 148.3809,136.3901 L148.3369,136.3731 C147.9649,136.9391 147.0719,137.8861 146.4429,137.8861 C146.2399,137.8861 145.9649,137.7181 145.9649,137.3201 C145.9649,136.0281 147.4169,134.1161 148.4959,134.1161 C148.8679,134.1161 149.0359,134.2751 149.1249,134.4171 L149.2929,134.1771 C149.3199,134.1421 149.3459,134.1161 149.3809,134.1161 L149.6909,134.1161 Z" id="Fill-242" fill="#000000" mask="url(#mask-2)"></path>
                <path d="M150.7873,135.992 C150.9193,135.602 151.5923,132.337 151.6273,132.204 C151.6983,131.886 151.8673,131.735 152.0703,131.735 C152.3273,131.735 152.4593,131.939 152.4593,132.125 C152.4593,132.204 152.4243,132.346 152.3273,132.585 C152.2833,132.691 150.9813,136.028 150.9373,136.107 C150.9023,136.179 150.8843,136.179 150.8313,136.179 C150.7963,136.179 150.7433,136.125 150.7873,135.992 M149.9903,137.426 C149.9903,137.17 150.1853,136.948 150.4513,136.948 C150.7253,136.948 150.8753,137.222 150.8753,137.39 C150.8753,137.665 150.6893,137.887 150.3973,137.887 C150.2733,137.887 149.9903,137.763 149.9903,137.426" id="Fill-243" fill="#000000" mask="url(#mask-2)"></path>
                <path d="M87.4963,49.2718 C86.9923,50.9088 86.2043,51.8738 84.8143,51.8738 C83.6283,51.8738 82.7523,51.3508 82.7523,50.2538 C82.7523,49.8818 82.8853,49.3338 82.9383,49.1478 L83.6903,46.6608 C83.8233,46.2618 83.7263,46.1118 83.4433,46.1118 L83.1243,46.1118 C83.0803,46.1118 83.0533,46.0938 83.0623,46.0418 L83.1063,45.8548 C83.1153,45.8018 83.1333,45.7848 83.2223,45.7848 C83.3283,45.7848 83.6373,45.8108 84.2743,45.8108 C84.9913,45.8108 85.2923,45.7848 85.3813,45.7848 C85.4523,45.7848 85.4693,45.8108 85.4603,45.8738 L85.4253,46.0418 C85.4163,46.0848 85.3903,46.1118 85.3363,46.1118 L85.0533,46.1118 C84.8413,46.1118 84.6283,46.1468 84.4873,46.6168 L83.7613,48.9788 C83.7083,49.1738 83.5053,49.8288 83.5053,50.2268 C83.5053,51.3418 84.5933,51.4748 84.9033,51.4748 C85.2923,51.4748 85.7703,51.2898 86.0543,51.0328 C86.4603,50.6688 86.7443,50.1828 87.0453,49.2008 L87.8233,46.6518 C87.9563,46.2268 87.7703,46.1118 87.4963,46.1118 L87.1603,46.1118 C87.0803,46.1118 87.0713,46.0848 87.0803,46.0418 L87.1063,45.8738 C87.1243,45.8108 87.1423,45.7848 87.2223,45.7848 C87.3283,45.7848 87.6643,45.8108 88.3013,45.8108 C88.8143,45.8108 89.0183,45.7848 89.1073,45.7848 C89.1863,45.7848 89.1953,45.8108 89.1863,45.8738 L89.1603,46.0418 C89.1513,46.0848 89.1333,46.1118 89.0623,46.1118 L88.8763,46.1118 C88.5933,46.1118 88.4613,46.2798 88.3633,46.5188 L87.4963,49.2718 Z" id="Fill-244" fill="#000000" mask="url(#mask-2)"></path>
                <path d="M88.6892,51.7406 C88.6272,51.7406 88.5922,51.7056 88.6092,51.6606 L89.1052,50.2266 C89.2652,49.7316 89.5392,48.8026 89.5392,48.6776 C89.5392,48.5986 89.4682,48.5456 89.3882,48.5456 C89.2112,48.5456 88.8132,48.9436 88.6892,49.0946 C88.6712,49.1216 88.6362,49.1116 88.6182,49.0946 L88.5302,49.0066 C88.5122,48.9886 88.5122,48.9616 88.5302,48.9346 C88.7162,48.6606 89.2472,48.0586 89.8492,48.0586 C90.0252,48.0586 90.0962,48.2096 90.0962,48.3686 C90.1052,48.5366 89.9552,49.0326 89.7782,49.6256 L89.8222,49.6426 C90.0612,49.1476 90.7692,48.0586 91.2652,48.0586 C91.5212,48.0586 91.6812,48.2186 91.6812,48.4576 C91.6812,48.6866 91.5032,48.8646 91.3352,48.8646 C91.2562,48.8646 91.1852,48.8466 91.1142,48.7756 C91.0432,48.7056 90.9992,48.6696 90.8842,48.6696 C90.6452,48.6696 90.1492,49.4306 89.7952,50.0146 C89.6892,50.1826 89.5832,50.3866 89.4502,50.7846 L89.1582,51.6786 C89.1412,51.7406 89.1142,51.7406 89.0432,51.7406 L88.6892,51.7406 Z" id="Fill-245" fill="#000000" mask="url(#mask-2)"></path>
                <path d="M93.4763,46.6253 C93.6093,46.2893 93.6003,46.0673 93.3433,46.0673 L93.0863,46.0673 C93.0243,46.0673 93.0163,46.0323 93.0343,45.9873 L93.0863,45.8283 C93.1043,45.7753 93.1223,45.7673 93.1753,45.7673 L94.2723,45.7673 C94.3523,45.7673 94.3793,45.8193 94.3523,45.8993 L92.5113,50.5813 C92.4323,50.7843 92.2193,51.2713 92.4053,51.2713 C92.5473,51.2713 92.9543,50.9263 93.0603,50.8113 C93.0963,50.7753 93.1133,50.7843 93.1403,50.8113 L93.2373,50.9173 C93.2553,50.9353 93.2643,50.9713 93.2283,51.0063 C93.1843,51.0763 92.3613,51.8293 91.7943,51.8293 C91.6803,51.8293 91.6003,51.7753 91.6003,51.5723 C91.6003,51.4393 91.8213,50.8823 91.9273,50.6163 L93.4763,46.6253 Z" id="Fill-246" fill="#000000" mask="url(#mask-2)"></path>
                <path d="M96.3264,106.7171 C96.3264,110.0311 94.5564,111.9891 92.5984,111.9891 C91.4304,111.9891 90.5274,111.4241 89.4724,110.7461 L88.0044,109.7301 C87.0624,109.1271 86.3844,108.9021 85.5184,108.9021 C84.8404,108.9021 83.7864,109.6551 83.7864,111.9141 L81.7904,111.9141 C81.7904,108.6001 83.5604,106.6421 85.5184,106.6421 C86.6104,106.6421 87.4394,106.8671 88.5314,107.5461 L90.1134,108.6001 C90.7904,109.0141 91.6194,109.7301 92.4854,109.7301 C93.4274,109.7301 94.3304,108.9021 94.3304,106.7171 L96.3264,106.7171 Z" id="Fill-247" fill="#000000" mask="url(#mask-2)"></path>
                <path d="M111.8264,106.7171 C111.8264,110.0311 110.0564,111.9891 108.0984,111.9891 C106.9304,111.9891 106.0274,111.4241 104.9724,110.7461 L103.5044,109.7301 C102.5624,109.1271 101.8844,108.9021 101.0184,108.9021 C100.3404,108.9021 99.2864,109.6551 99.2864,111.9141 L97.2904,111.9141 C97.2904,108.6001 99.0604,106.6421 101.0184,106.6421 C102.1104,106.6421 102.9394,106.8671 104.0314,107.5461 L105.6134,108.6001 C106.2904,109.0141 107.1194,109.7301 107.9854,109.7301 C108.9274,109.7301 109.8304,108.9021 109.8304,106.7171 L111.8264,106.7171 Z" id="Fill-248" fill="#000000" mask="url(#mask-2)"></path>
                <path d="M87.0491,94.2952 C87.6421,94.2952 87.9541,93.8582 87.9541,93.3272 C87.9541,92.7972 87.6421,92.3602 87.0491,92.3602 C86.4561,92.3602 86.1441,92.7972 86.1441,93.3272 C86.1441,93.8582 86.4561,94.2952 87.0491,94.2952 M87.0491,91.7992 C87.8601,91.7992 88.5781,92.4232 88.5781,93.3272 C88.5781,94.2332 87.8601,94.8572 87.0491,94.8572 C86.2371,94.8572 85.5201,94.2332 85.5201,93.3272 C85.5201,92.4232 86.2371,91.7992 87.0491,91.7992" id="Fill-249" fill="#000000" mask="url(#mask-2)"></path>
                <path d="M91.6047,92.1107 C91.7607,91.9237 92.0727,91.7987 92.3227,91.7987 C93.0087,91.7987 93.3837,92.2357 93.3837,92.8597 L93.3837,94.7947 L92.7597,94.7947 L92.7597,92.9227 C92.7597,92.5477 92.5727,92.3607 92.2597,92.3607 C91.8917,92.3607 91.5857,92.6597 91.5737,93.0217 L91.5737,94.7947 L90.9497,94.7947 L90.9497,92.9227 C90.9497,92.5477 90.7627,92.3607 90.4507,92.3607 C90.0827,92.3607 89.7767,92.6597 89.7637,93.0217 L89.7637,94.7947 L89.1397,94.7947 L89.1397,91.8607 L89.7017,91.8607 L89.7637,92.1107 L89.7947,92.1417 L89.8267,92.1107 C89.9507,91.9237 90.2627,91.7987 90.5127,91.7987 C90.9617,91.7987 91.2867,91.9927 91.4487,92.2977 L91.6047,92.1107 Z" id="Fill-250" fill="#000000" mask="url(#mask-2)"></path>
                <path d="M95.5373,94.2952 C96.1303,94.2952 96.4423,93.8582 96.4423,93.3272 C96.4423,92.7972 96.1303,92.3602 95.5373,92.3602 C95.0073,92.3602 94.6323,92.7972 94.6323,93.3272 C94.6323,93.8582 95.0073,94.2952 95.5373,94.2952 Z M94.0713,91.8602 L94.6323,91.8602 L94.6883,92.1102 L94.7263,92.1422 L94.7573,92.1102 C94.9443,91.9232 95.2563,91.7992 95.5683,91.7992 C96.3803,91.7992 97.0663,92.4232 97.0663,93.3272 C97.0663,94.2332 96.3803,94.8572 95.5683,94.8572 C95.2633,94.8572 94.9443,94.7322 94.7573,94.5442 L94.7263,94.5132 L94.6883,94.5442 L94.6883,96.1172 L94.0713,96.1172 L94.0713,91.8602 Z" id="Fill-251" fill="#000000" mask="url(#mask-2)"></path>
                <path d="M100.1247,94.7943 L99.5627,94.7943 L99.5007,94.5443 L99.4697,94.5133 L99.4377,94.5443 C99.3137,94.7323 99.0017,94.8563 98.7517,94.8563 C98.0027,94.8563 97.5657,94.3573 97.5657,93.6713 L97.5657,91.8603 L98.1897,91.8603 L98.1897,93.6713 C98.2027,94.0703 98.3957,94.2953 98.8137,94.2953 C99.1767,94.2953 99.4817,94.0013 99.5007,93.6403 L99.5007,91.8603 L100.1247,91.8603 L100.1247,94.7943 Z" id="Fill-252" fill="#000000" mask="url(#mask-2)"></path>
                <path d="M100.5618,91.8607 L101.1298,91.8607 L101.1298,91.2367 L101.6228,90.6127 L101.7408,90.6127 L101.7408,91.8607 L102.3718,91.8607 L102.3718,92.4227 L101.7408,92.4227 L101.7408,93.9207 C101.7408,94.1077 101.8728,94.2327 102.0598,94.2327 L102.4338,94.1707 L102.4338,94.7317 L102.0908,94.7947 C101.4668,94.7947 101.1298,94.4817 101.1298,93.9207 L101.1298,92.4227 L100.5618,92.4227 L100.5618,91.8607 Z" id="Fill-253" fill="#000000" mask="url(#mask-2)"></path>
                <path d="M103.3703,92.9349 L104.8683,92.9349 C104.8373,92.6099 104.5253,92.3609 104.1503,92.3609 C103.7133,92.3609 103.4643,92.6099 103.3703,92.9349 Z M103.3393,93.4839 C103.3393,93.9199 103.6513,94.2949 104.1823,94.2949 C104.5563,94.2949 104.8123,94.1079 104.9063,93.8579 L105.4303,94.1079 C105.1803,94.5439 104.7433,94.8569 104.1503,94.8569 C103.3703,94.8569 102.7153,94.2329 102.7153,93.3279 C102.7153,92.4229 103.3393,91.7989 104.1503,91.7989 C104.8993,91.7989 105.5233,92.3919 105.5233,93.2959 L105.4613,93.4839 L103.3393,93.4839 Z" id="Fill-254" fill="#000000" mask="url(#mask-2)"></path>
                <path d="M106.0544,91.8607 L106.6164,91.8607 L106.6784,92.1727 L106.7094,92.2047 L106.7414,92.1727 C106.9284,91.9227 107.1784,91.7987 107.4274,91.7987 C107.5524,91.7987 107.6144,91.7987 107.7394,91.8607 L107.7394,92.4227 L107.3654,92.4227 C106.9964,92.4227 106.6914,92.7217 106.6784,93.0847 L106.6784,94.7947 L106.0544,94.7947 L106.0544,91.8607 Z" id="Fill-255" fill="#000000" mask="url(#mask-2)"></path>
                <polygon id="Fill-256" fill="#000000" mask="url(#mask-2)" points="136.1819 142.6777 135.9169 142.4127 139.6119 138.7177 139.8769 138.9827"></polygon>
                <polygon id="Fill-257" fill="#000000" mask="url(#mask-2)" points="77.4983 43.7902 77.7633 43.5252 81.4583 47.2202 81.1933 47.4852"></polygon>
                <path d="M64.638,111.9206 C62.787,116.2996 57.737,119.8496 53.357,119.8496 C48.978,119.8496 46.929,116.2996 48.78,111.9206 C50.63,107.5416 55.681,103.9916 60.06,103.9916 C64.439,103.9916 66.489,107.5416 64.638,111.9206" id="Fill-278" fill="#000000" mask="url(#mask-2)"></path>
                <path d="M145.4171,111.9206 C143.5661,116.2996 138.5161,119.8496 134.1371,119.8496 C129.7571,119.8496 127.7081,116.2996 129.5591,111.9206 C131.4101,107.5416 136.4601,103.9916 140.8391,103.9916 C145.2181,103.9916 147.2681,107.5416 145.4171,111.9206" id="Fill-279" fill="#000000" mask="url(#mask-2)"></path>
                <path d="M132.1658,145.4609 L130.4978,145.4609 L130.8088,143.8499 L132.4768,143.8499 L132.1658,145.4609 Z M131.7148,148.9629 L124.8398,148.9629 L125.1788,147.3519 L132.0228,147.3519 L131.7148,148.9629 Z M125.7388,143.8499 L127.4068,143.8499 L127.0958,145.4609 L125.4278,145.4609 L125.7388,143.8499 Z M124.2978,141.1829 L122.2578,151.7389 L133.1728,151.7389 L135.2128,141.1829 L124.2978,141.1829 Z" id="Fill-280" fill="#000000" mask="url(#mask-2)"></path>
            </g>
        </g>
    </g>
</svg>